G04 #@! TF.GenerationSoftware,KiCad,Pcbnew,5.1.5-52549c5~86~ubuntu18.04.1*
G04 #@! TF.CreationDate,2020-04-16T21:51:48+01:00*
G04 #@! TF.ProjectId,accesscontrol,61636365-7373-4636-9f6e-74726f6c2e6b,rev?*
G04 #@! TF.SameCoordinates,Original*
G04 #@! TF.FileFunction,Copper,L2,Inr*
G04 #@! TF.FilePolarity,Positive*
%FSLAX46Y46*%
G04 Gerber Fmt 4.6, Leading zero omitted, Abs format (unit mm)*
G04 Created by KiCad (PCBNEW 5.1.5-52549c5~86~ubuntu18.04.1) date 2020-04-16 21:51:48*
%MOMM*%
%LPD*%
G04 APERTURE LIST*
%ADD10C,2.500000*%
%ADD11R,2.500000X2.500000*%
%ADD12R,1.900000X1.900000*%
%ADD13C,1.900000*%
%ADD14C,1.890000*%
%ADD15C,2.600000*%
%ADD16O,1.700000X1.700000*%
%ADD17R,1.700000X1.700000*%
%ADD18C,0.500000*%
%ADD19C,0.800000*%
%ADD20C,1.000000*%
%ADD21C,0.254000*%
G04 APERTURE END LIST*
D10*
X158000000Y-71400000D03*
D11*
X163000000Y-71400000D03*
D10*
X128000000Y-71400000D03*
D11*
X133000000Y-71400000D03*
D10*
X113000000Y-71400000D03*
D11*
X118000000Y-71400000D03*
D10*
X73000000Y-71400000D03*
X78000000Y-71400000D03*
X83000000Y-71400000D03*
X88000000Y-71400000D03*
X93000000Y-71400000D03*
X98000000Y-71400000D03*
D11*
X103000000Y-71400000D03*
D10*
X143000000Y-71400000D03*
D11*
X148000000Y-71400000D03*
D12*
X90600000Y-95800000D03*
D13*
X93140000Y-97070000D03*
X90600000Y-98340000D03*
X93140000Y-99610000D03*
X90600000Y-100880000D03*
X93140000Y-102150000D03*
X90600000Y-103420000D03*
X93140000Y-104690000D03*
D14*
X80880000Y-106570000D03*
X79360000Y-104030000D03*
X80880000Y-96460000D03*
X79360000Y-93920000D03*
D15*
X87310000Y-92470000D03*
X87310000Y-108020000D03*
D16*
X141200000Y-92200000D03*
X141200000Y-94740000D03*
X141200000Y-97280000D03*
X141200000Y-99820000D03*
X141200000Y-102360000D03*
D17*
X141200000Y-104900000D03*
D18*
X137800000Y-92500000D03*
D19*
X88400000Y-99200000D03*
D18*
X104500000Y-93800000D03*
X118300000Y-93000000D03*
X111100000Y-93500000D03*
X111100000Y-104500000D03*
X130500000Y-93000000D03*
X120900000Y-92400000D03*
X129900000Y-104600000D03*
X125900000Y-92400000D03*
X130500000Y-95500000D03*
X130400000Y-111800000D03*
X101900000Y-90000000D03*
X101287500Y-101612500D03*
X106112500Y-103187500D03*
X98500000Y-93200000D03*
X128500000Y-111800000D03*
X111100000Y-102600000D03*
X111200000Y-95000000D03*
X119400000Y-111800000D03*
X108900000Y-104700000D03*
X122600000Y-86400000D03*
X128000000Y-86400000D03*
D20*
X147900000Y-89900000D03*
X147900000Y-88400000D03*
X146400000Y-89900000D03*
D18*
X133800000Y-85000000D03*
D20*
X156300000Y-88400000D03*
X156300000Y-92000000D03*
X153000000Y-98800000D03*
X165400000Y-88800000D03*
X165400000Y-90300000D03*
X165400000Y-91800000D03*
X163900000Y-88800000D03*
X162400000Y-88800000D03*
X163600000Y-106400000D03*
X147200000Y-109700000D03*
X145700000Y-97200000D03*
D18*
X118900000Y-86400000D03*
D20*
X149100000Y-106400000D03*
X165300000Y-96800000D03*
X165300000Y-98200000D03*
D18*
X115100000Y-93500000D03*
X115100000Y-104500000D03*
X133700000Y-92500000D03*
X97100000Y-93200000D03*
X130400000Y-107800000D03*
X120400000Y-89200000D03*
X126600000Y-89200000D03*
X108300000Y-97800000D03*
X105800000Y-90900000D03*
X119400000Y-102000000D03*
X124300000Y-101200000D03*
X124900000Y-98900000D03*
X125400000Y-97600000D03*
X126400000Y-96200000D03*
X127400000Y-95500000D03*
X105100000Y-92600000D03*
X118900000Y-103600000D03*
X105600000Y-93300000D03*
X118400000Y-104400000D03*
X106100000Y-93900000D03*
X115100000Y-102800000D03*
X115000000Y-98800000D03*
X119400000Y-98800000D03*
X115000000Y-97800000D03*
X120200000Y-97800000D03*
D21*
G36*
X175548001Y-118548000D02*
G01*
X60452000Y-118548000D01*
X60452000Y-113785584D01*
X62823000Y-113785584D01*
X62823000Y-114214416D01*
X62906660Y-114635008D01*
X63070767Y-115031196D01*
X63309013Y-115387757D01*
X63612243Y-115690987D01*
X63968804Y-115929233D01*
X64364992Y-116093340D01*
X64785584Y-116177000D01*
X65214416Y-116177000D01*
X65635008Y-116093340D01*
X66031196Y-115929233D01*
X66387757Y-115690987D01*
X66690987Y-115387757D01*
X66929233Y-115031196D01*
X67093340Y-114635008D01*
X67177000Y-114214416D01*
X67177000Y-113785584D01*
X168823000Y-113785584D01*
X168823000Y-114214416D01*
X168906660Y-114635008D01*
X169070767Y-115031196D01*
X169309013Y-115387757D01*
X169612243Y-115690987D01*
X169968804Y-115929233D01*
X170364992Y-116093340D01*
X170785584Y-116177000D01*
X171214416Y-116177000D01*
X171635008Y-116093340D01*
X172031196Y-115929233D01*
X172387757Y-115690987D01*
X172690987Y-115387757D01*
X172929233Y-115031196D01*
X173093340Y-114635008D01*
X173177000Y-114214416D01*
X173177000Y-113785584D01*
X173093340Y-113364992D01*
X172929233Y-112968804D01*
X172690987Y-112612243D01*
X172387757Y-112309013D01*
X172031196Y-112070767D01*
X171635008Y-111906660D01*
X171214416Y-111823000D01*
X170785584Y-111823000D01*
X170364992Y-111906660D01*
X169968804Y-112070767D01*
X169612243Y-112309013D01*
X169309013Y-112612243D01*
X169070767Y-112968804D01*
X168906660Y-113364992D01*
X168823000Y-113785584D01*
X67177000Y-113785584D01*
X67093340Y-113364992D01*
X66929233Y-112968804D01*
X66690987Y-112612243D01*
X66387757Y-112309013D01*
X66031196Y-112070767D01*
X65635008Y-111906660D01*
X65214416Y-111823000D01*
X64785584Y-111823000D01*
X64364992Y-111906660D01*
X63968804Y-112070767D01*
X63612243Y-112309013D01*
X63309013Y-112612243D01*
X63070767Y-112968804D01*
X62906660Y-113364992D01*
X62823000Y-113785584D01*
X60452000Y-113785584D01*
X60452000Y-111733321D01*
X118723000Y-111733321D01*
X118723000Y-111866679D01*
X118749016Y-111997474D01*
X118800050Y-112120680D01*
X118874140Y-112231563D01*
X118968437Y-112325860D01*
X119079320Y-112399950D01*
X119202526Y-112450984D01*
X119333321Y-112477000D01*
X119466679Y-112477000D01*
X119597474Y-112450984D01*
X119720680Y-112399950D01*
X119831563Y-112325860D01*
X119925860Y-112231563D01*
X119999950Y-112120680D01*
X120050984Y-111997474D01*
X120077000Y-111866679D01*
X120077000Y-111733321D01*
X127823000Y-111733321D01*
X127823000Y-111866679D01*
X127849016Y-111997474D01*
X127900050Y-112120680D01*
X127974140Y-112231563D01*
X128068437Y-112325860D01*
X128179320Y-112399950D01*
X128302526Y-112450984D01*
X128433321Y-112477000D01*
X128566679Y-112477000D01*
X128697474Y-112450984D01*
X128820680Y-112399950D01*
X128931563Y-112325860D01*
X129025860Y-112231563D01*
X129099950Y-112120680D01*
X129150984Y-111997474D01*
X129177000Y-111866679D01*
X129177000Y-111733321D01*
X129723000Y-111733321D01*
X129723000Y-111866679D01*
X129749016Y-111997474D01*
X129800050Y-112120680D01*
X129874140Y-112231563D01*
X129968437Y-112325860D01*
X130079320Y-112399950D01*
X130202526Y-112450984D01*
X130333321Y-112477000D01*
X130466679Y-112477000D01*
X130597474Y-112450984D01*
X130720680Y-112399950D01*
X130831563Y-112325860D01*
X130925860Y-112231563D01*
X130999950Y-112120680D01*
X131050984Y-111997474D01*
X131077000Y-111866679D01*
X131077000Y-111733321D01*
X131050984Y-111602526D01*
X130999950Y-111479320D01*
X130925860Y-111368437D01*
X130831563Y-111274140D01*
X130720680Y-111200050D01*
X130597474Y-111149016D01*
X130466679Y-111123000D01*
X130333321Y-111123000D01*
X130202526Y-111149016D01*
X130079320Y-111200050D01*
X129968437Y-111274140D01*
X129874140Y-111368437D01*
X129800050Y-111479320D01*
X129749016Y-111602526D01*
X129723000Y-111733321D01*
X129177000Y-111733321D01*
X129150984Y-111602526D01*
X129099950Y-111479320D01*
X129025860Y-111368437D01*
X128931563Y-111274140D01*
X128820680Y-111200050D01*
X128697474Y-111149016D01*
X128566679Y-111123000D01*
X128433321Y-111123000D01*
X128302526Y-111149016D01*
X128179320Y-111200050D01*
X128068437Y-111274140D01*
X127974140Y-111368437D01*
X127900050Y-111479320D01*
X127849016Y-111602526D01*
X127823000Y-111733321D01*
X120077000Y-111733321D01*
X120050984Y-111602526D01*
X119999950Y-111479320D01*
X119925860Y-111368437D01*
X119831563Y-111274140D01*
X119720680Y-111200050D01*
X119597474Y-111149016D01*
X119466679Y-111123000D01*
X119333321Y-111123000D01*
X119202526Y-111149016D01*
X119079320Y-111200050D01*
X118968437Y-111274140D01*
X118874140Y-111368437D01*
X118800050Y-111479320D01*
X118749016Y-111602526D01*
X118723000Y-111733321D01*
X60452000Y-111733321D01*
X60452000Y-107666185D01*
X79963420Y-107666185D01*
X80052542Y-107924964D01*
X80332781Y-108060358D01*
X80634051Y-108138478D01*
X80944772Y-108156323D01*
X81253003Y-108113205D01*
X81546901Y-108010784D01*
X81707458Y-107924964D01*
X81796580Y-107666185D01*
X80880000Y-106749605D01*
X79963420Y-107666185D01*
X60452000Y-107666185D01*
X60452000Y-106634772D01*
X79293677Y-106634772D01*
X79336795Y-106943003D01*
X79439216Y-107236901D01*
X79525036Y-107397458D01*
X79783815Y-107486580D01*
X80700395Y-106570000D01*
X81059605Y-106570000D01*
X81976185Y-107486580D01*
X82234964Y-107397458D01*
X82370358Y-107117219D01*
X82427303Y-106897612D01*
X82441541Y-106931987D01*
X82666107Y-107268074D01*
X82951926Y-107553893D01*
X83288013Y-107778459D01*
X83661454Y-107933143D01*
X84057896Y-108012000D01*
X84462104Y-108012000D01*
X84858546Y-107933143D01*
X85231987Y-107778459D01*
X85568074Y-107553893D01*
X85680236Y-107441731D01*
X85649368Y-107516253D01*
X85583000Y-107849905D01*
X85583000Y-108190095D01*
X85649368Y-108523747D01*
X85779553Y-108838041D01*
X85968552Y-109120898D01*
X86209102Y-109361448D01*
X86491959Y-109550447D01*
X86806253Y-109680632D01*
X87139905Y-109747000D01*
X87480095Y-109747000D01*
X87813747Y-109680632D01*
X87987408Y-109608699D01*
X146273000Y-109608699D01*
X146273000Y-109791301D01*
X146308624Y-109970396D01*
X146378504Y-110139099D01*
X146479952Y-110290928D01*
X146609072Y-110420048D01*
X146760901Y-110521496D01*
X146929604Y-110591376D01*
X147108699Y-110627000D01*
X147291301Y-110627000D01*
X147470396Y-110591376D01*
X147639099Y-110521496D01*
X147790928Y-110420048D01*
X147920048Y-110290928D01*
X148021496Y-110139099D01*
X148091376Y-109970396D01*
X148127000Y-109791301D01*
X148127000Y-109608699D01*
X148091376Y-109429604D01*
X148021496Y-109260901D01*
X147920048Y-109109072D01*
X147790928Y-108979952D01*
X147639099Y-108878504D01*
X147470396Y-108808624D01*
X147291301Y-108773000D01*
X147108699Y-108773000D01*
X146929604Y-108808624D01*
X146760901Y-108878504D01*
X146609072Y-108979952D01*
X146479952Y-109109072D01*
X146378504Y-109260901D01*
X146308624Y-109429604D01*
X146273000Y-109608699D01*
X87987408Y-109608699D01*
X88128041Y-109550447D01*
X88410898Y-109361448D01*
X88651448Y-109120898D01*
X88840447Y-108838041D01*
X88970632Y-108523747D01*
X89037000Y-108190095D01*
X89037000Y-107849905D01*
X88970632Y-107516253D01*
X88840447Y-107201959D01*
X88651448Y-106919102D01*
X88410898Y-106678552D01*
X88128041Y-106489553D01*
X87813747Y-106359368D01*
X87480095Y-106293000D01*
X87139905Y-106293000D01*
X86806253Y-106359368D01*
X86491959Y-106489553D01*
X86209102Y-106678552D01*
X86165286Y-106722368D01*
X86233143Y-106558546D01*
X86312000Y-106162104D01*
X86312000Y-105757896D01*
X86233143Y-105361454D01*
X86078459Y-104988013D01*
X85853893Y-104651926D01*
X85568074Y-104366107D01*
X85231987Y-104141541D01*
X84858546Y-103986857D01*
X84462104Y-103908000D01*
X84057896Y-103908000D01*
X83661454Y-103986857D01*
X83288013Y-104141541D01*
X82951926Y-104366107D01*
X82666107Y-104651926D01*
X82441541Y-104988013D01*
X82286857Y-105361454D01*
X82212587Y-105734835D01*
X81976185Y-105653420D01*
X81059605Y-106570000D01*
X80700395Y-106570000D01*
X79783815Y-105653420D01*
X79525036Y-105742542D01*
X79389642Y-106022781D01*
X79311522Y-106324051D01*
X79293677Y-106634772D01*
X60452000Y-106634772D01*
X60452000Y-103894870D01*
X77988000Y-103894870D01*
X77988000Y-104165130D01*
X78040725Y-104430198D01*
X78144149Y-104679886D01*
X78294298Y-104904599D01*
X78485401Y-105095702D01*
X78710114Y-105245851D01*
X78959802Y-105349275D01*
X79224870Y-105402000D01*
X79495130Y-105402000D01*
X79760198Y-105349275D01*
X80009886Y-105245851D01*
X80051507Y-105218040D01*
X79963420Y-105473815D01*
X80880000Y-106390395D01*
X81796580Y-105473815D01*
X81707458Y-105215036D01*
X81427219Y-105079642D01*
X81125949Y-105001522D01*
X80815228Y-104983677D01*
X80506997Y-105026795D01*
X80213099Y-105129216D01*
X80069847Y-105205786D01*
X80234599Y-105095702D01*
X80425702Y-104904599D01*
X80575851Y-104679886D01*
X80679275Y-104430198D01*
X80732000Y-104165130D01*
X80732000Y-103894870D01*
X80679275Y-103629802D01*
X80575851Y-103380114D01*
X80425702Y-103155401D01*
X80234599Y-102964298D01*
X80009886Y-102814149D01*
X79760198Y-102710725D01*
X79495130Y-102658000D01*
X79224870Y-102658000D01*
X78959802Y-102710725D01*
X78710114Y-102814149D01*
X78485401Y-102964298D01*
X78294298Y-103155401D01*
X78144149Y-103380114D01*
X78040725Y-103629802D01*
X77988000Y-103894870D01*
X60452000Y-103894870D01*
X60452000Y-99118548D01*
X87573000Y-99118548D01*
X87573000Y-99281452D01*
X87604782Y-99441227D01*
X87667123Y-99591731D01*
X87757628Y-99727181D01*
X87872819Y-99842372D01*
X88008269Y-99932877D01*
X88158773Y-99995218D01*
X88318548Y-100027000D01*
X88481452Y-100027000D01*
X88641227Y-99995218D01*
X88791731Y-99932877D01*
X88927181Y-99842372D01*
X89042372Y-99727181D01*
X89132877Y-99591731D01*
X89195218Y-99441227D01*
X89227000Y-99281452D01*
X89227000Y-99118548D01*
X89195218Y-98958773D01*
X89132877Y-98808269D01*
X89042372Y-98672819D01*
X88927181Y-98557628D01*
X88791731Y-98467123D01*
X88641227Y-98404782D01*
X88481452Y-98373000D01*
X88318548Y-98373000D01*
X88158773Y-98404782D01*
X88008269Y-98467123D01*
X87872819Y-98557628D01*
X87757628Y-98672819D01*
X87667123Y-98808269D01*
X87604782Y-98958773D01*
X87573000Y-99118548D01*
X60452000Y-99118548D01*
X60452000Y-95016185D01*
X78443420Y-95016185D01*
X78532542Y-95274964D01*
X78812781Y-95410358D01*
X79114051Y-95488478D01*
X79424772Y-95506323D01*
X79733003Y-95463205D01*
X80026901Y-95360784D01*
X80170153Y-95284214D01*
X80005401Y-95394298D01*
X79814298Y-95585401D01*
X79664149Y-95810114D01*
X79560725Y-96059802D01*
X79508000Y-96324870D01*
X79508000Y-96595130D01*
X79560725Y-96860198D01*
X79664149Y-97109886D01*
X79814298Y-97334599D01*
X80005401Y-97525702D01*
X80230114Y-97675851D01*
X80479802Y-97779275D01*
X80744870Y-97832000D01*
X81015130Y-97832000D01*
X81280198Y-97779275D01*
X81529886Y-97675851D01*
X81754599Y-97525702D01*
X81945702Y-97334599D01*
X82095851Y-97109886D01*
X82199275Y-96860198D01*
X82252000Y-96595130D01*
X82252000Y-96324870D01*
X82199275Y-96059802D01*
X82095851Y-95810114D01*
X81945702Y-95585401D01*
X81754599Y-95394298D01*
X81529886Y-95244149D01*
X81280198Y-95140725D01*
X81015130Y-95088000D01*
X80744870Y-95088000D01*
X80479802Y-95140725D01*
X80230114Y-95244149D01*
X80188493Y-95271960D01*
X80276580Y-95016185D01*
X79360000Y-94099605D01*
X78443420Y-95016185D01*
X60452000Y-95016185D01*
X60452000Y-93984772D01*
X77773677Y-93984772D01*
X77816795Y-94293003D01*
X77919216Y-94586901D01*
X78005036Y-94747458D01*
X78263815Y-94836580D01*
X79180395Y-93920000D01*
X79539605Y-93920000D01*
X80456185Y-94836580D01*
X80714964Y-94747458D01*
X80850358Y-94467219D01*
X80886484Y-94327896D01*
X82208000Y-94327896D01*
X82208000Y-94732104D01*
X82286857Y-95128546D01*
X82441541Y-95501987D01*
X82666107Y-95838074D01*
X82951926Y-96123893D01*
X83288013Y-96348459D01*
X83661454Y-96503143D01*
X84057896Y-96582000D01*
X84462104Y-96582000D01*
X84858546Y-96503143D01*
X85231987Y-96348459D01*
X85568074Y-96123893D01*
X85853893Y-95838074D01*
X86078459Y-95501987D01*
X86233143Y-95128546D01*
X86288549Y-94850000D01*
X89220934Y-94850000D01*
X89220934Y-96750000D01*
X89229178Y-96833707D01*
X89253595Y-96914196D01*
X89293245Y-96988376D01*
X89346605Y-97053395D01*
X89411624Y-97106755D01*
X89485804Y-97146405D01*
X89566293Y-97170822D01*
X89650000Y-97179066D01*
X89858925Y-97179066D01*
X89722213Y-97270414D01*
X89530414Y-97462213D01*
X89379718Y-97687746D01*
X89275917Y-97938344D01*
X89223000Y-98204377D01*
X89223000Y-98475623D01*
X89275917Y-98741656D01*
X89379718Y-98992254D01*
X89530414Y-99217787D01*
X89722213Y-99409586D01*
X89947746Y-99560282D01*
X90067776Y-99610000D01*
X89947746Y-99659718D01*
X89722213Y-99810414D01*
X89530414Y-100002213D01*
X89379718Y-100227746D01*
X89275917Y-100478344D01*
X89223000Y-100744377D01*
X89223000Y-101015623D01*
X89275917Y-101281656D01*
X89379718Y-101532254D01*
X89530414Y-101757787D01*
X89722213Y-101949586D01*
X89947746Y-102100282D01*
X90067776Y-102150000D01*
X89947746Y-102199718D01*
X89722213Y-102350414D01*
X89530414Y-102542213D01*
X89379718Y-102767746D01*
X89275917Y-103018344D01*
X89223000Y-103284377D01*
X89223000Y-103555623D01*
X89275917Y-103821656D01*
X89379718Y-104072254D01*
X89530414Y-104297787D01*
X89722213Y-104489586D01*
X89947746Y-104640282D01*
X90198344Y-104744083D01*
X90464377Y-104797000D01*
X90735623Y-104797000D01*
X91001656Y-104744083D01*
X91252254Y-104640282D01*
X91477787Y-104489586D01*
X91669586Y-104297787D01*
X91820282Y-104072254D01*
X91924083Y-103821656D01*
X91977000Y-103555623D01*
X91977000Y-103284377D01*
X91924083Y-103018344D01*
X91820282Y-102767746D01*
X91669586Y-102542213D01*
X91477787Y-102350414D01*
X91252254Y-102199718D01*
X91132224Y-102150000D01*
X91252254Y-102100282D01*
X91477787Y-101949586D01*
X91669586Y-101757787D01*
X91820282Y-101532254D01*
X91924083Y-101281656D01*
X91977000Y-101015623D01*
X91977000Y-100744377D01*
X91924083Y-100478344D01*
X91820282Y-100227746D01*
X91669586Y-100002213D01*
X91477787Y-99810414D01*
X91252254Y-99659718D01*
X91132224Y-99610000D01*
X91252254Y-99560282D01*
X91477787Y-99409586D01*
X91669586Y-99217787D01*
X91820282Y-98992254D01*
X91924083Y-98741656D01*
X91977000Y-98475623D01*
X91977000Y-98204377D01*
X91924083Y-97938344D01*
X91820282Y-97687746D01*
X91669586Y-97462213D01*
X91477787Y-97270414D01*
X91341075Y-97179066D01*
X91550000Y-97179066D01*
X91633707Y-97170822D01*
X91714196Y-97146405D01*
X91763000Y-97120319D01*
X91763000Y-97205623D01*
X91815917Y-97471656D01*
X91919718Y-97722254D01*
X92070414Y-97947787D01*
X92262213Y-98139586D01*
X92487746Y-98290282D01*
X92607776Y-98340000D01*
X92487746Y-98389718D01*
X92262213Y-98540414D01*
X92070414Y-98732213D01*
X91919718Y-98957746D01*
X91815917Y-99208344D01*
X91763000Y-99474377D01*
X91763000Y-99745623D01*
X91815917Y-100011656D01*
X91919718Y-100262254D01*
X92070414Y-100487787D01*
X92262213Y-100679586D01*
X92487746Y-100830282D01*
X92607776Y-100880000D01*
X92487746Y-100929718D01*
X92262213Y-101080414D01*
X92070414Y-101272213D01*
X91919718Y-101497746D01*
X91815917Y-101748344D01*
X91763000Y-102014377D01*
X91763000Y-102285623D01*
X91815917Y-102551656D01*
X91919718Y-102802254D01*
X92070414Y-103027787D01*
X92262213Y-103219586D01*
X92487746Y-103370282D01*
X92607776Y-103420000D01*
X92487746Y-103469718D01*
X92262213Y-103620414D01*
X92070414Y-103812213D01*
X91919718Y-104037746D01*
X91815917Y-104288344D01*
X91763000Y-104554377D01*
X91763000Y-104825623D01*
X91815917Y-105091656D01*
X91919718Y-105342254D01*
X92070414Y-105567787D01*
X92262213Y-105759586D01*
X92487746Y-105910282D01*
X92738344Y-106014083D01*
X93004377Y-106067000D01*
X93275623Y-106067000D01*
X93541656Y-106014083D01*
X93792254Y-105910282D01*
X94017787Y-105759586D01*
X94027373Y-105750000D01*
X139711928Y-105750000D01*
X139724188Y-105874482D01*
X139760498Y-105994180D01*
X139819463Y-106104494D01*
X139898815Y-106201185D01*
X139995506Y-106280537D01*
X140105820Y-106339502D01*
X140225518Y-106375812D01*
X140350000Y-106388072D01*
X140914250Y-106385000D01*
X141073000Y-106226250D01*
X141073000Y-105027000D01*
X141327000Y-105027000D01*
X141327000Y-106226250D01*
X141485750Y-106385000D01*
X142050000Y-106388072D01*
X142174482Y-106375812D01*
X142294180Y-106339502D01*
X142351807Y-106308699D01*
X162673000Y-106308699D01*
X162673000Y-106491301D01*
X162708624Y-106670396D01*
X162778504Y-106839099D01*
X162879952Y-106990928D01*
X163009072Y-107120048D01*
X163160901Y-107221496D01*
X163329604Y-107291376D01*
X163508699Y-107327000D01*
X163691301Y-107327000D01*
X163870396Y-107291376D01*
X164039099Y-107221496D01*
X164190928Y-107120048D01*
X164320048Y-106990928D01*
X164421496Y-106839099D01*
X164491376Y-106670396D01*
X164527000Y-106491301D01*
X164527000Y-106308699D01*
X164491376Y-106129604D01*
X164421496Y-105960901D01*
X164320048Y-105809072D01*
X164190928Y-105679952D01*
X164039099Y-105578504D01*
X163870396Y-105508624D01*
X163691301Y-105473000D01*
X163508699Y-105473000D01*
X163329604Y-105508624D01*
X163160901Y-105578504D01*
X163009072Y-105679952D01*
X162879952Y-105809072D01*
X162778504Y-105960901D01*
X162708624Y-106129604D01*
X162673000Y-106308699D01*
X142351807Y-106308699D01*
X142404494Y-106280537D01*
X142501185Y-106201185D01*
X142580537Y-106104494D01*
X142639502Y-105994180D01*
X142675812Y-105874482D01*
X142688072Y-105750000D01*
X142685000Y-105185750D01*
X142526250Y-105027000D01*
X141327000Y-105027000D01*
X141073000Y-105027000D01*
X139873750Y-105027000D01*
X139715000Y-105185750D01*
X139711928Y-105750000D01*
X94027373Y-105750000D01*
X94209586Y-105567787D01*
X94360282Y-105342254D01*
X94464083Y-105091656D01*
X94517000Y-104825623D01*
X94517000Y-104633321D01*
X108223000Y-104633321D01*
X108223000Y-104766679D01*
X108249016Y-104897474D01*
X108300050Y-105020680D01*
X108374140Y-105131563D01*
X108468437Y-105225860D01*
X108579320Y-105299950D01*
X108702526Y-105350984D01*
X108833321Y-105377000D01*
X108966679Y-105377000D01*
X109097474Y-105350984D01*
X109220680Y-105299950D01*
X109331563Y-105225860D01*
X109425860Y-105131563D01*
X109499950Y-105020680D01*
X109550984Y-104897474D01*
X109577000Y-104766679D01*
X109577000Y-104633321D01*
X109550984Y-104502526D01*
X109522319Y-104433321D01*
X110423000Y-104433321D01*
X110423000Y-104566679D01*
X110449016Y-104697474D01*
X110500050Y-104820680D01*
X110574140Y-104931563D01*
X110668437Y-105025860D01*
X110779320Y-105099950D01*
X110902526Y-105150984D01*
X111033321Y-105177000D01*
X111166679Y-105177000D01*
X111297474Y-105150984D01*
X111420680Y-105099950D01*
X111531563Y-105025860D01*
X111625860Y-104931563D01*
X111699950Y-104820680D01*
X111750984Y-104697474D01*
X111777000Y-104566679D01*
X111777000Y-104433321D01*
X111757110Y-104333321D01*
X117723000Y-104333321D01*
X117723000Y-104466679D01*
X117749016Y-104597474D01*
X117800050Y-104720680D01*
X117874140Y-104831563D01*
X117968437Y-104925860D01*
X118079320Y-104999950D01*
X118202526Y-105050984D01*
X118333321Y-105077000D01*
X118466679Y-105077000D01*
X118597474Y-105050984D01*
X118720680Y-104999950D01*
X118831563Y-104925860D01*
X118925860Y-104831563D01*
X118999950Y-104720680D01*
X119050984Y-104597474D01*
X119063744Y-104533321D01*
X129223000Y-104533321D01*
X129223000Y-104666679D01*
X129249016Y-104797474D01*
X129300050Y-104920680D01*
X129374140Y-105031563D01*
X129468437Y-105125860D01*
X129579320Y-105199950D01*
X129702526Y-105250984D01*
X129833321Y-105277000D01*
X129966679Y-105277000D01*
X130097474Y-105250984D01*
X130220680Y-105199950D01*
X130331563Y-105125860D01*
X130425860Y-105031563D01*
X130499950Y-104920680D01*
X130550984Y-104797474D01*
X130577000Y-104666679D01*
X130577000Y-104533321D01*
X130550984Y-104402526D01*
X130499950Y-104279320D01*
X130425860Y-104168437D01*
X130331563Y-104074140D01*
X130295436Y-104050000D01*
X139711928Y-104050000D01*
X139715000Y-104614250D01*
X139873750Y-104773000D01*
X141073000Y-104773000D01*
X141073000Y-104753000D01*
X141327000Y-104753000D01*
X141327000Y-104773000D01*
X142526250Y-104773000D01*
X142685000Y-104614250D01*
X142688072Y-104050000D01*
X142675812Y-103925518D01*
X142639502Y-103805820D01*
X142580537Y-103695506D01*
X142501185Y-103598815D01*
X142404494Y-103519463D01*
X142294180Y-103460498D01*
X142174482Y-103424188D01*
X142050000Y-103411928D01*
X141923185Y-103412618D01*
X142014040Y-103351911D01*
X142191911Y-103174040D01*
X142331663Y-102964886D01*
X142427926Y-102732487D01*
X142477000Y-102485774D01*
X142477000Y-102234226D01*
X142427926Y-101987513D01*
X142331663Y-101755114D01*
X142191911Y-101545960D01*
X142014040Y-101368089D01*
X141804886Y-101228337D01*
X141572487Y-101132074D01*
X141360966Y-101090000D01*
X141572487Y-101047926D01*
X141804886Y-100951663D01*
X142014040Y-100811911D01*
X142191911Y-100634040D01*
X142331663Y-100424886D01*
X142427926Y-100192487D01*
X142477000Y-99945774D01*
X142477000Y-99694226D01*
X142427926Y-99447513D01*
X142331663Y-99215114D01*
X142191911Y-99005960D01*
X142014040Y-98828089D01*
X141835360Y-98708699D01*
X152073000Y-98708699D01*
X152073000Y-98891301D01*
X152108624Y-99070396D01*
X152178504Y-99239099D01*
X152279952Y-99390928D01*
X152409072Y-99520048D01*
X152560901Y-99621496D01*
X152729604Y-99691376D01*
X152908699Y-99727000D01*
X153091301Y-99727000D01*
X153270396Y-99691376D01*
X153439099Y-99621496D01*
X153590928Y-99520048D01*
X153720048Y-99390928D01*
X153821496Y-99239099D01*
X153891376Y-99070396D01*
X153927000Y-98891301D01*
X153927000Y-98708699D01*
X153891376Y-98529604D01*
X153821496Y-98360901D01*
X153720048Y-98209072D01*
X153590928Y-98079952D01*
X153439099Y-97978504D01*
X153270396Y-97908624D01*
X153091301Y-97873000D01*
X152908699Y-97873000D01*
X152729604Y-97908624D01*
X152560901Y-97978504D01*
X152409072Y-98079952D01*
X152279952Y-98209072D01*
X152178504Y-98360901D01*
X152108624Y-98529604D01*
X152073000Y-98708699D01*
X141835360Y-98708699D01*
X141804886Y-98688337D01*
X141572487Y-98592074D01*
X141360966Y-98550000D01*
X141572487Y-98507926D01*
X141804886Y-98411663D01*
X142014040Y-98271911D01*
X142191911Y-98094040D01*
X142331663Y-97884886D01*
X142427926Y-97652487D01*
X142477000Y-97405774D01*
X142477000Y-97154226D01*
X142467945Y-97108699D01*
X144773000Y-97108699D01*
X144773000Y-97291301D01*
X144808624Y-97470396D01*
X144878504Y-97639099D01*
X144979952Y-97790928D01*
X145109072Y-97920048D01*
X145260901Y-98021496D01*
X145429604Y-98091376D01*
X145608699Y-98127000D01*
X145791301Y-98127000D01*
X145970396Y-98091376D01*
X146139099Y-98021496D01*
X146290928Y-97920048D01*
X146420048Y-97790928D01*
X146521496Y-97639099D01*
X146591376Y-97470396D01*
X146627000Y-97291301D01*
X146627000Y-97108699D01*
X146591376Y-96929604D01*
X146521496Y-96760901D01*
X146420048Y-96609072D01*
X146290928Y-96479952D01*
X146139099Y-96378504D01*
X145970396Y-96308624D01*
X145791301Y-96273000D01*
X145608699Y-96273000D01*
X145429604Y-96308624D01*
X145260901Y-96378504D01*
X145109072Y-96479952D01*
X144979952Y-96609072D01*
X144878504Y-96760901D01*
X144808624Y-96929604D01*
X144773000Y-97108699D01*
X142467945Y-97108699D01*
X142427926Y-96907513D01*
X142331663Y-96675114D01*
X142191911Y-96465960D01*
X142014040Y-96288089D01*
X141804886Y-96148337D01*
X141572487Y-96052074D01*
X141360966Y-96010000D01*
X141572487Y-95967926D01*
X141804886Y-95871663D01*
X142014040Y-95731911D01*
X142191911Y-95554040D01*
X142331663Y-95344886D01*
X142427926Y-95112487D01*
X142477000Y-94865774D01*
X142477000Y-94614226D01*
X142427926Y-94367513D01*
X142331663Y-94135114D01*
X142191911Y-93925960D01*
X142014040Y-93748089D01*
X141804886Y-93608337D01*
X141572487Y-93512074D01*
X141360966Y-93470000D01*
X141572487Y-93427926D01*
X141804886Y-93331663D01*
X142014040Y-93191911D01*
X142191911Y-93014040D01*
X142331663Y-92804886D01*
X142427926Y-92572487D01*
X142477000Y-92325774D01*
X142477000Y-92074226D01*
X142444075Y-91908699D01*
X155373000Y-91908699D01*
X155373000Y-92091301D01*
X155408624Y-92270396D01*
X155478504Y-92439099D01*
X155579952Y-92590928D01*
X155709072Y-92720048D01*
X155860901Y-92821496D01*
X156029604Y-92891376D01*
X156208699Y-92927000D01*
X156391301Y-92927000D01*
X156570396Y-92891376D01*
X156739099Y-92821496D01*
X156890928Y-92720048D01*
X157020048Y-92590928D01*
X157121496Y-92439099D01*
X157191376Y-92270396D01*
X157227000Y-92091301D01*
X157227000Y-91908699D01*
X157191376Y-91729604D01*
X157121496Y-91560901D01*
X157020048Y-91409072D01*
X156890928Y-91279952D01*
X156739099Y-91178504D01*
X156570396Y-91108624D01*
X156391301Y-91073000D01*
X156208699Y-91073000D01*
X156029604Y-91108624D01*
X155860901Y-91178504D01*
X155709072Y-91279952D01*
X155579952Y-91409072D01*
X155478504Y-91560901D01*
X155408624Y-91729604D01*
X155373000Y-91908699D01*
X142444075Y-91908699D01*
X142427926Y-91827513D01*
X142331663Y-91595114D01*
X142191911Y-91385960D01*
X142014040Y-91208089D01*
X141804886Y-91068337D01*
X141572487Y-90972074D01*
X141325774Y-90923000D01*
X141074226Y-90923000D01*
X140827513Y-90972074D01*
X140595114Y-91068337D01*
X140385960Y-91208089D01*
X140208089Y-91385960D01*
X140068337Y-91595114D01*
X139972074Y-91827513D01*
X139923000Y-92074226D01*
X139923000Y-92325774D01*
X139972074Y-92572487D01*
X140068337Y-92804886D01*
X140208089Y-93014040D01*
X140385960Y-93191911D01*
X140595114Y-93331663D01*
X140827513Y-93427926D01*
X141039034Y-93470000D01*
X140827513Y-93512074D01*
X140595114Y-93608337D01*
X140385960Y-93748089D01*
X140208089Y-93925960D01*
X140068337Y-94135114D01*
X139972074Y-94367513D01*
X139923000Y-94614226D01*
X139923000Y-94865774D01*
X139972074Y-95112487D01*
X140068337Y-95344886D01*
X140208089Y-95554040D01*
X140385960Y-95731911D01*
X140595114Y-95871663D01*
X140827513Y-95967926D01*
X141039034Y-96010000D01*
X140827513Y-96052074D01*
X140595114Y-96148337D01*
X140385960Y-96288089D01*
X140208089Y-96465960D01*
X140068337Y-96675114D01*
X139972074Y-96907513D01*
X139923000Y-97154226D01*
X139923000Y-97405774D01*
X139972074Y-97652487D01*
X140068337Y-97884886D01*
X140208089Y-98094040D01*
X140385960Y-98271911D01*
X140595114Y-98411663D01*
X140827513Y-98507926D01*
X141039034Y-98550000D01*
X140827513Y-98592074D01*
X140595114Y-98688337D01*
X140385960Y-98828089D01*
X140208089Y-99005960D01*
X140068337Y-99215114D01*
X139972074Y-99447513D01*
X139923000Y-99694226D01*
X139923000Y-99945774D01*
X139972074Y-100192487D01*
X140068337Y-100424886D01*
X140208089Y-100634040D01*
X140385960Y-100811911D01*
X140595114Y-100951663D01*
X140827513Y-101047926D01*
X141039034Y-101090000D01*
X140827513Y-101132074D01*
X140595114Y-101228337D01*
X140385960Y-101368089D01*
X140208089Y-101545960D01*
X140068337Y-101755114D01*
X139972074Y-101987513D01*
X139923000Y-102234226D01*
X139923000Y-102485774D01*
X139972074Y-102732487D01*
X140068337Y-102964886D01*
X140208089Y-103174040D01*
X140385960Y-103351911D01*
X140476815Y-103412618D01*
X140350000Y-103411928D01*
X140225518Y-103424188D01*
X140105820Y-103460498D01*
X139995506Y-103519463D01*
X139898815Y-103598815D01*
X139819463Y-103695506D01*
X139760498Y-103805820D01*
X139724188Y-103925518D01*
X139711928Y-104050000D01*
X130295436Y-104050000D01*
X130220680Y-104000050D01*
X130097474Y-103949016D01*
X129966679Y-103923000D01*
X129833321Y-103923000D01*
X129702526Y-103949016D01*
X129579320Y-104000050D01*
X129468437Y-104074140D01*
X129374140Y-104168437D01*
X129300050Y-104279320D01*
X129249016Y-104402526D01*
X129223000Y-104533321D01*
X119063744Y-104533321D01*
X119077000Y-104466679D01*
X119077000Y-104333321D01*
X119062025Y-104258035D01*
X119097474Y-104250984D01*
X119220680Y-104199950D01*
X119331563Y-104125860D01*
X119425860Y-104031563D01*
X119499950Y-103920680D01*
X119550984Y-103797474D01*
X119577000Y-103666679D01*
X119577000Y-103533321D01*
X119550984Y-103402526D01*
X119499950Y-103279320D01*
X119425860Y-103168437D01*
X119331563Y-103074140D01*
X119220680Y-103000050D01*
X119097474Y-102949016D01*
X118966679Y-102923000D01*
X118833321Y-102923000D01*
X118702526Y-102949016D01*
X118579320Y-103000050D01*
X118468437Y-103074140D01*
X118374140Y-103168437D01*
X118300050Y-103279320D01*
X118249016Y-103402526D01*
X118223000Y-103533321D01*
X118223000Y-103666679D01*
X118237975Y-103741965D01*
X118202526Y-103749016D01*
X118079320Y-103800050D01*
X117968437Y-103874140D01*
X117874140Y-103968437D01*
X117800050Y-104079320D01*
X117749016Y-104202526D01*
X117723000Y-104333321D01*
X111757110Y-104333321D01*
X111750984Y-104302526D01*
X111699950Y-104179320D01*
X111625860Y-104068437D01*
X111531563Y-103974140D01*
X111420680Y-103900050D01*
X111297474Y-103849016D01*
X111166679Y-103823000D01*
X111033321Y-103823000D01*
X110902526Y-103849016D01*
X110779320Y-103900050D01*
X110668437Y-103974140D01*
X110574140Y-104068437D01*
X110500050Y-104179320D01*
X110449016Y-104302526D01*
X110423000Y-104433321D01*
X109522319Y-104433321D01*
X109499950Y-104379320D01*
X109425860Y-104268437D01*
X109331563Y-104174140D01*
X109220680Y-104100050D01*
X109097474Y-104049016D01*
X108966679Y-104023000D01*
X108833321Y-104023000D01*
X108702526Y-104049016D01*
X108579320Y-104100050D01*
X108468437Y-104174140D01*
X108374140Y-104268437D01*
X108300050Y-104379320D01*
X108249016Y-104502526D01*
X108223000Y-104633321D01*
X94517000Y-104633321D01*
X94517000Y-104554377D01*
X94464083Y-104288344D01*
X94360282Y-104037746D01*
X94209586Y-103812213D01*
X94017787Y-103620414D01*
X93792254Y-103469718D01*
X93672224Y-103420000D01*
X93792254Y-103370282D01*
X94017787Y-103219586D01*
X94116552Y-103120821D01*
X105435500Y-103120821D01*
X105435500Y-103254179D01*
X105461516Y-103384974D01*
X105512550Y-103508180D01*
X105586640Y-103619063D01*
X105680937Y-103713360D01*
X105791820Y-103787450D01*
X105915026Y-103838484D01*
X106045821Y-103864500D01*
X106179179Y-103864500D01*
X106309974Y-103838484D01*
X106433180Y-103787450D01*
X106544063Y-103713360D01*
X106638360Y-103619063D01*
X106712450Y-103508180D01*
X106763484Y-103384974D01*
X106789500Y-103254179D01*
X106789500Y-103120821D01*
X106763484Y-102990026D01*
X106712450Y-102866820D01*
X106638360Y-102755937D01*
X106544063Y-102661640D01*
X106433180Y-102587550D01*
X106309974Y-102536516D01*
X106293912Y-102533321D01*
X110423000Y-102533321D01*
X110423000Y-102666679D01*
X110449016Y-102797474D01*
X110500050Y-102920680D01*
X110574140Y-103031563D01*
X110668437Y-103125860D01*
X110779320Y-103199950D01*
X110902526Y-103250984D01*
X111033321Y-103277000D01*
X111166679Y-103277000D01*
X111297474Y-103250984D01*
X111420680Y-103199950D01*
X111531563Y-103125860D01*
X111625860Y-103031563D01*
X111699950Y-102920680D01*
X111750984Y-102797474D01*
X111763744Y-102733321D01*
X114423000Y-102733321D01*
X114423000Y-102866679D01*
X114449016Y-102997474D01*
X114500050Y-103120680D01*
X114574140Y-103231563D01*
X114668437Y-103325860D01*
X114779320Y-103399950D01*
X114902526Y-103450984D01*
X115033321Y-103477000D01*
X115166679Y-103477000D01*
X115297474Y-103450984D01*
X115420680Y-103399950D01*
X115531563Y-103325860D01*
X115625860Y-103231563D01*
X115699950Y-103120680D01*
X115750984Y-102997474D01*
X115777000Y-102866679D01*
X115777000Y-102733321D01*
X115750984Y-102602526D01*
X115699950Y-102479320D01*
X115625860Y-102368437D01*
X115531563Y-102274140D01*
X115420680Y-102200050D01*
X115297474Y-102149016D01*
X115166679Y-102123000D01*
X115033321Y-102123000D01*
X114902526Y-102149016D01*
X114779320Y-102200050D01*
X114668437Y-102274140D01*
X114574140Y-102368437D01*
X114500050Y-102479320D01*
X114449016Y-102602526D01*
X114423000Y-102733321D01*
X111763744Y-102733321D01*
X111777000Y-102666679D01*
X111777000Y-102533321D01*
X111750984Y-102402526D01*
X111699950Y-102279320D01*
X111625860Y-102168437D01*
X111531563Y-102074140D01*
X111420680Y-102000050D01*
X111297474Y-101949016D01*
X111218568Y-101933321D01*
X118723000Y-101933321D01*
X118723000Y-102066679D01*
X118749016Y-102197474D01*
X118800050Y-102320680D01*
X118874140Y-102431563D01*
X118968437Y-102525860D01*
X119079320Y-102599950D01*
X119202526Y-102650984D01*
X119333321Y-102677000D01*
X119466679Y-102677000D01*
X119597474Y-102650984D01*
X119720680Y-102599950D01*
X119831563Y-102525860D01*
X119925860Y-102431563D01*
X119999950Y-102320680D01*
X120050984Y-102197474D01*
X120077000Y-102066679D01*
X120077000Y-101933321D01*
X120050984Y-101802526D01*
X119999950Y-101679320D01*
X119925860Y-101568437D01*
X119831563Y-101474140D01*
X119720680Y-101400050D01*
X119597474Y-101349016D01*
X119466679Y-101323000D01*
X119333321Y-101323000D01*
X119202526Y-101349016D01*
X119079320Y-101400050D01*
X118968437Y-101474140D01*
X118874140Y-101568437D01*
X118800050Y-101679320D01*
X118749016Y-101802526D01*
X118723000Y-101933321D01*
X111218568Y-101933321D01*
X111166679Y-101923000D01*
X111033321Y-101923000D01*
X110902526Y-101949016D01*
X110779320Y-102000050D01*
X110668437Y-102074140D01*
X110574140Y-102168437D01*
X110500050Y-102279320D01*
X110449016Y-102402526D01*
X110423000Y-102533321D01*
X106293912Y-102533321D01*
X106179179Y-102510500D01*
X106045821Y-102510500D01*
X105915026Y-102536516D01*
X105791820Y-102587550D01*
X105680937Y-102661640D01*
X105586640Y-102755937D01*
X105512550Y-102866820D01*
X105461516Y-102990026D01*
X105435500Y-103120821D01*
X94116552Y-103120821D01*
X94209586Y-103027787D01*
X94360282Y-102802254D01*
X94464083Y-102551656D01*
X94517000Y-102285623D01*
X94517000Y-102014377D01*
X94464083Y-101748344D01*
X94380196Y-101545821D01*
X100610500Y-101545821D01*
X100610500Y-101679179D01*
X100636516Y-101809974D01*
X100687550Y-101933180D01*
X100761640Y-102044063D01*
X100855937Y-102138360D01*
X100966820Y-102212450D01*
X101090026Y-102263484D01*
X101220821Y-102289500D01*
X101354179Y-102289500D01*
X101484974Y-102263484D01*
X101608180Y-102212450D01*
X101719063Y-102138360D01*
X101813360Y-102044063D01*
X101887450Y-101933180D01*
X101938484Y-101809974D01*
X101964500Y-101679179D01*
X101964500Y-101545821D01*
X101938484Y-101415026D01*
X101887450Y-101291820D01*
X101813360Y-101180937D01*
X101765744Y-101133321D01*
X123623000Y-101133321D01*
X123623000Y-101266679D01*
X123649016Y-101397474D01*
X123700050Y-101520680D01*
X123774140Y-101631563D01*
X123868437Y-101725860D01*
X123979320Y-101799950D01*
X124102526Y-101850984D01*
X124233321Y-101877000D01*
X124366679Y-101877000D01*
X124497474Y-101850984D01*
X124620680Y-101799950D01*
X124731563Y-101725860D01*
X124825860Y-101631563D01*
X124899950Y-101520680D01*
X124950984Y-101397474D01*
X124977000Y-101266679D01*
X124977000Y-101133321D01*
X124950984Y-101002526D01*
X124899950Y-100879320D01*
X124825860Y-100768437D01*
X124731563Y-100674140D01*
X124620680Y-100600050D01*
X124497474Y-100549016D01*
X124366679Y-100523000D01*
X124233321Y-100523000D01*
X124102526Y-100549016D01*
X123979320Y-100600050D01*
X123868437Y-100674140D01*
X123774140Y-100768437D01*
X123700050Y-100879320D01*
X123649016Y-101002526D01*
X123623000Y-101133321D01*
X101765744Y-101133321D01*
X101719063Y-101086640D01*
X101608180Y-101012550D01*
X101484974Y-100961516D01*
X101354179Y-100935500D01*
X101220821Y-100935500D01*
X101090026Y-100961516D01*
X100966820Y-101012550D01*
X100855937Y-101086640D01*
X100761640Y-101180937D01*
X100687550Y-101291820D01*
X100636516Y-101415026D01*
X100610500Y-101545821D01*
X94380196Y-101545821D01*
X94360282Y-101497746D01*
X94209586Y-101272213D01*
X94017787Y-101080414D01*
X93792254Y-100929718D01*
X93672224Y-100880000D01*
X93792254Y-100830282D01*
X94017787Y-100679586D01*
X94209586Y-100487787D01*
X94360282Y-100262254D01*
X94464083Y-100011656D01*
X94517000Y-99745623D01*
X94517000Y-99474377D01*
X94464083Y-99208344D01*
X94360282Y-98957746D01*
X94209586Y-98732213D01*
X94017787Y-98540414D01*
X93792254Y-98389718D01*
X93672224Y-98340000D01*
X93792254Y-98290282D01*
X94017787Y-98139586D01*
X94209586Y-97947787D01*
X94352887Y-97733321D01*
X114323000Y-97733321D01*
X114323000Y-97866679D01*
X114349016Y-97997474D01*
X114400050Y-98120680D01*
X114474140Y-98231563D01*
X114542577Y-98300000D01*
X114474140Y-98368437D01*
X114400050Y-98479320D01*
X114349016Y-98602526D01*
X114323000Y-98733321D01*
X114323000Y-98866679D01*
X114349016Y-98997474D01*
X114400050Y-99120680D01*
X114474140Y-99231563D01*
X114568437Y-99325860D01*
X114679320Y-99399950D01*
X114802526Y-99450984D01*
X114933321Y-99477000D01*
X115066679Y-99477000D01*
X115197474Y-99450984D01*
X115320680Y-99399950D01*
X115431563Y-99325860D01*
X115525860Y-99231563D01*
X115599950Y-99120680D01*
X115650984Y-98997474D01*
X115677000Y-98866679D01*
X115677000Y-98733321D01*
X118723000Y-98733321D01*
X118723000Y-98866679D01*
X118749016Y-98997474D01*
X118800050Y-99120680D01*
X118874140Y-99231563D01*
X118968437Y-99325860D01*
X119079320Y-99399950D01*
X119202526Y-99450984D01*
X119333321Y-99477000D01*
X119466679Y-99477000D01*
X119597474Y-99450984D01*
X119720680Y-99399950D01*
X119831563Y-99325860D01*
X119925860Y-99231563D01*
X119999950Y-99120680D01*
X120050984Y-98997474D01*
X120077000Y-98866679D01*
X120077000Y-98833321D01*
X124223000Y-98833321D01*
X124223000Y-98966679D01*
X124249016Y-99097474D01*
X124300050Y-99220680D01*
X124374140Y-99331563D01*
X124468437Y-99425860D01*
X124579320Y-99499950D01*
X124702526Y-99550984D01*
X124833321Y-99577000D01*
X124966679Y-99577000D01*
X125097474Y-99550984D01*
X125220680Y-99499950D01*
X125331563Y-99425860D01*
X125425860Y-99331563D01*
X125499950Y-99220680D01*
X125550984Y-99097474D01*
X125577000Y-98966679D01*
X125577000Y-98833321D01*
X125550984Y-98702526D01*
X125499950Y-98579320D01*
X125425860Y-98468437D01*
X125331563Y-98374140D01*
X125220680Y-98300050D01*
X125097474Y-98249016D01*
X124966679Y-98223000D01*
X124833321Y-98223000D01*
X124702526Y-98249016D01*
X124579320Y-98300050D01*
X124468437Y-98374140D01*
X124374140Y-98468437D01*
X124300050Y-98579320D01*
X124249016Y-98702526D01*
X124223000Y-98833321D01*
X120077000Y-98833321D01*
X120077000Y-98733321D01*
X120050984Y-98602526D01*
X119999950Y-98479320D01*
X119972785Y-98438665D01*
X120002526Y-98450984D01*
X120133321Y-98477000D01*
X120266679Y-98477000D01*
X120397474Y-98450984D01*
X120520680Y-98399950D01*
X120631563Y-98325860D01*
X120725860Y-98231563D01*
X120799950Y-98120680D01*
X120850984Y-97997474D01*
X120877000Y-97866679D01*
X120877000Y-97733321D01*
X120850984Y-97602526D01*
X120822319Y-97533321D01*
X124723000Y-97533321D01*
X124723000Y-97666679D01*
X124749016Y-97797474D01*
X124800050Y-97920680D01*
X124874140Y-98031563D01*
X124968437Y-98125860D01*
X125079320Y-98199950D01*
X125202526Y-98250984D01*
X125333321Y-98277000D01*
X125466679Y-98277000D01*
X125597474Y-98250984D01*
X125720680Y-98199950D01*
X125831563Y-98125860D01*
X125925860Y-98031563D01*
X125999950Y-97920680D01*
X126050984Y-97797474D01*
X126077000Y-97666679D01*
X126077000Y-97533321D01*
X126050984Y-97402526D01*
X125999950Y-97279320D01*
X125925860Y-97168437D01*
X125831563Y-97074140D01*
X125720680Y-97000050D01*
X125597474Y-96949016D01*
X125466679Y-96923000D01*
X125333321Y-96923000D01*
X125202526Y-96949016D01*
X125079320Y-97000050D01*
X124968437Y-97074140D01*
X124874140Y-97168437D01*
X124800050Y-97279320D01*
X124749016Y-97402526D01*
X124723000Y-97533321D01*
X120822319Y-97533321D01*
X120799950Y-97479320D01*
X120725860Y-97368437D01*
X120631563Y-97274140D01*
X120520680Y-97200050D01*
X120397474Y-97149016D01*
X120266679Y-97123000D01*
X120133321Y-97123000D01*
X120002526Y-97149016D01*
X119879320Y-97200050D01*
X119768437Y-97274140D01*
X119674140Y-97368437D01*
X119600050Y-97479320D01*
X119549016Y-97602526D01*
X119523000Y-97733321D01*
X119523000Y-97866679D01*
X119549016Y-97997474D01*
X119600050Y-98120680D01*
X119627215Y-98161335D01*
X119597474Y-98149016D01*
X119466679Y-98123000D01*
X119333321Y-98123000D01*
X119202526Y-98149016D01*
X119079320Y-98200050D01*
X118968437Y-98274140D01*
X118874140Y-98368437D01*
X118800050Y-98479320D01*
X118749016Y-98602526D01*
X118723000Y-98733321D01*
X115677000Y-98733321D01*
X115650984Y-98602526D01*
X115599950Y-98479320D01*
X115525860Y-98368437D01*
X115457423Y-98300000D01*
X115525860Y-98231563D01*
X115599950Y-98120680D01*
X115650984Y-97997474D01*
X115677000Y-97866679D01*
X115677000Y-97733321D01*
X115650984Y-97602526D01*
X115599950Y-97479320D01*
X115525860Y-97368437D01*
X115431563Y-97274140D01*
X115320680Y-97200050D01*
X115197474Y-97149016D01*
X115066679Y-97123000D01*
X114933321Y-97123000D01*
X114802526Y-97149016D01*
X114679320Y-97200050D01*
X114568437Y-97274140D01*
X114474140Y-97368437D01*
X114400050Y-97479320D01*
X114349016Y-97602526D01*
X114323000Y-97733321D01*
X94352887Y-97733321D01*
X94360282Y-97722254D01*
X94464083Y-97471656D01*
X94517000Y-97205623D01*
X94517000Y-96934377D01*
X94464083Y-96668344D01*
X94360282Y-96417746D01*
X94209586Y-96192213D01*
X94150694Y-96133321D01*
X125723000Y-96133321D01*
X125723000Y-96266679D01*
X125749016Y-96397474D01*
X125800050Y-96520680D01*
X125874140Y-96631563D01*
X125968437Y-96725860D01*
X126079320Y-96799950D01*
X126202526Y-96850984D01*
X126333321Y-96877000D01*
X126466679Y-96877000D01*
X126597474Y-96850984D01*
X126720680Y-96799950D01*
X126831563Y-96725860D01*
X126925860Y-96631563D01*
X126999950Y-96520680D01*
X127050984Y-96397474D01*
X127077000Y-96266679D01*
X127077000Y-96133321D01*
X127068989Y-96093047D01*
X127079320Y-96099950D01*
X127202526Y-96150984D01*
X127333321Y-96177000D01*
X127466679Y-96177000D01*
X127597474Y-96150984D01*
X127720680Y-96099950D01*
X127831563Y-96025860D01*
X127925860Y-95931563D01*
X127999950Y-95820680D01*
X128050984Y-95697474D01*
X128077000Y-95566679D01*
X128077000Y-95433321D01*
X129823000Y-95433321D01*
X129823000Y-95566679D01*
X129849016Y-95697474D01*
X129900050Y-95820680D01*
X129974140Y-95931563D01*
X130068437Y-96025860D01*
X130179320Y-96099950D01*
X130302526Y-96150984D01*
X130433321Y-96177000D01*
X130566679Y-96177000D01*
X130697474Y-96150984D01*
X130820680Y-96099950D01*
X130931563Y-96025860D01*
X131025860Y-95931563D01*
X131099950Y-95820680D01*
X131150984Y-95697474D01*
X131177000Y-95566679D01*
X131177000Y-95433321D01*
X131150984Y-95302526D01*
X131099950Y-95179320D01*
X131025860Y-95068437D01*
X130931563Y-94974140D01*
X130820680Y-94900050D01*
X130697474Y-94849016D01*
X130566679Y-94823000D01*
X130433321Y-94823000D01*
X130302526Y-94849016D01*
X130179320Y-94900050D01*
X130068437Y-94974140D01*
X129974140Y-95068437D01*
X129900050Y-95179320D01*
X129849016Y-95302526D01*
X129823000Y-95433321D01*
X128077000Y-95433321D01*
X128050984Y-95302526D01*
X127999950Y-95179320D01*
X127925860Y-95068437D01*
X127831563Y-94974140D01*
X127720680Y-94900050D01*
X127597474Y-94849016D01*
X127466679Y-94823000D01*
X127333321Y-94823000D01*
X127202526Y-94849016D01*
X127079320Y-94900050D01*
X126968437Y-94974140D01*
X126874140Y-95068437D01*
X126800050Y-95179320D01*
X126749016Y-95302526D01*
X126723000Y-95433321D01*
X126723000Y-95566679D01*
X126731011Y-95606953D01*
X126720680Y-95600050D01*
X126597474Y-95549016D01*
X126466679Y-95523000D01*
X126333321Y-95523000D01*
X126202526Y-95549016D01*
X126079320Y-95600050D01*
X125968437Y-95674140D01*
X125874140Y-95768437D01*
X125800050Y-95879320D01*
X125749016Y-96002526D01*
X125723000Y-96133321D01*
X94150694Y-96133321D01*
X94017787Y-96000414D01*
X93792254Y-95849718D01*
X93541656Y-95745917D01*
X93275623Y-95693000D01*
X93004377Y-95693000D01*
X92738344Y-95745917D01*
X92487746Y-95849718D01*
X92262213Y-96000414D01*
X92070414Y-96192213D01*
X91979066Y-96328925D01*
X91979066Y-94933321D01*
X110523000Y-94933321D01*
X110523000Y-95066679D01*
X110549016Y-95197474D01*
X110600050Y-95320680D01*
X110674140Y-95431563D01*
X110768437Y-95525860D01*
X110879320Y-95599950D01*
X111002526Y-95650984D01*
X111133321Y-95677000D01*
X111266679Y-95677000D01*
X111397474Y-95650984D01*
X111520680Y-95599950D01*
X111631563Y-95525860D01*
X111725860Y-95431563D01*
X111799950Y-95320680D01*
X111850984Y-95197474D01*
X111877000Y-95066679D01*
X111877000Y-94933321D01*
X111850984Y-94802526D01*
X111799950Y-94679320D01*
X111725860Y-94568437D01*
X111631563Y-94474140D01*
X111520680Y-94400050D01*
X111397474Y-94349016D01*
X111266679Y-94323000D01*
X111133321Y-94323000D01*
X111002526Y-94349016D01*
X110879320Y-94400050D01*
X110768437Y-94474140D01*
X110674140Y-94568437D01*
X110600050Y-94679320D01*
X110549016Y-94802526D01*
X110523000Y-94933321D01*
X91979066Y-94933321D01*
X91979066Y-94850000D01*
X91970822Y-94766293D01*
X91946405Y-94685804D01*
X91906755Y-94611624D01*
X91853395Y-94546605D01*
X91788376Y-94493245D01*
X91714196Y-94453595D01*
X91633707Y-94429178D01*
X91550000Y-94420934D01*
X89650000Y-94420934D01*
X89566293Y-94429178D01*
X89485804Y-94453595D01*
X89411624Y-94493245D01*
X89346605Y-94546605D01*
X89293245Y-94611624D01*
X89253595Y-94685804D01*
X89229178Y-94766293D01*
X89220934Y-94850000D01*
X86288549Y-94850000D01*
X86312000Y-94732104D01*
X86312000Y-94327896D01*
X86233143Y-93931454D01*
X86165286Y-93767632D01*
X86209102Y-93811448D01*
X86491959Y-94000447D01*
X86806253Y-94130632D01*
X87139905Y-94197000D01*
X87480095Y-94197000D01*
X87813747Y-94130632D01*
X88128041Y-94000447D01*
X88410898Y-93811448D01*
X88651448Y-93570898D01*
X88840447Y-93288041D01*
X88904534Y-93133321D01*
X97823000Y-93133321D01*
X97823000Y-93266679D01*
X97849016Y-93397474D01*
X97900050Y-93520680D01*
X97974140Y-93631563D01*
X98068437Y-93725860D01*
X98179320Y-93799950D01*
X98302526Y-93850984D01*
X98433321Y-93877000D01*
X98566679Y-93877000D01*
X98697474Y-93850984D01*
X98820680Y-93799950D01*
X98920396Y-93733321D01*
X103823000Y-93733321D01*
X103823000Y-93866679D01*
X103849016Y-93997474D01*
X103900050Y-94120680D01*
X103974140Y-94231563D01*
X104068437Y-94325860D01*
X104179320Y-94399950D01*
X104302526Y-94450984D01*
X104433321Y-94477000D01*
X104566679Y-94477000D01*
X104697474Y-94450984D01*
X104820680Y-94399950D01*
X104931563Y-94325860D01*
X105025860Y-94231563D01*
X105099950Y-94120680D01*
X105150984Y-93997474D01*
X105177000Y-93866679D01*
X105177000Y-93831582D01*
X105279320Y-93899950D01*
X105402526Y-93950984D01*
X105423000Y-93955056D01*
X105423000Y-93966679D01*
X105449016Y-94097474D01*
X105500050Y-94220680D01*
X105574140Y-94331563D01*
X105668437Y-94425860D01*
X105779320Y-94499950D01*
X105902526Y-94550984D01*
X106033321Y-94577000D01*
X106166679Y-94577000D01*
X106297474Y-94550984D01*
X106420680Y-94499950D01*
X106531563Y-94425860D01*
X106625860Y-94331563D01*
X106699950Y-94220680D01*
X106750984Y-94097474D01*
X106777000Y-93966679D01*
X106777000Y-93833321D01*
X106750984Y-93702526D01*
X106699950Y-93579320D01*
X106625860Y-93468437D01*
X106590744Y-93433321D01*
X110423000Y-93433321D01*
X110423000Y-93566679D01*
X110449016Y-93697474D01*
X110500050Y-93820680D01*
X110574140Y-93931563D01*
X110668437Y-94025860D01*
X110779320Y-94099950D01*
X110902526Y-94150984D01*
X111033321Y-94177000D01*
X111166679Y-94177000D01*
X111297474Y-94150984D01*
X111420680Y-94099950D01*
X111531563Y-94025860D01*
X111625860Y-93931563D01*
X111699950Y-93820680D01*
X111750984Y-93697474D01*
X111777000Y-93566679D01*
X111777000Y-93433321D01*
X111750984Y-93302526D01*
X111699950Y-93179320D01*
X111625860Y-93068437D01*
X111531563Y-92974140D01*
X111470474Y-92933321D01*
X117623000Y-92933321D01*
X117623000Y-93066679D01*
X117649016Y-93197474D01*
X117700050Y-93320680D01*
X117774140Y-93431563D01*
X117868437Y-93525860D01*
X117979320Y-93599950D01*
X118102526Y-93650984D01*
X118233321Y-93677000D01*
X118366679Y-93677000D01*
X118497474Y-93650984D01*
X118620680Y-93599950D01*
X118731563Y-93525860D01*
X118825860Y-93431563D01*
X118899950Y-93320680D01*
X118950984Y-93197474D01*
X118977000Y-93066679D01*
X118977000Y-92933321D01*
X118950984Y-92802526D01*
X118899950Y-92679320D01*
X118825860Y-92568437D01*
X118731563Y-92474140D01*
X118620680Y-92400050D01*
X118497474Y-92349016D01*
X118418568Y-92333321D01*
X120223000Y-92333321D01*
X120223000Y-92466679D01*
X120249016Y-92597474D01*
X120300050Y-92720680D01*
X120374140Y-92831563D01*
X120468437Y-92925860D01*
X120579320Y-92999950D01*
X120702526Y-93050984D01*
X120833321Y-93077000D01*
X120966679Y-93077000D01*
X121097474Y-93050984D01*
X121220680Y-92999950D01*
X121331563Y-92925860D01*
X121425860Y-92831563D01*
X121499950Y-92720680D01*
X121550984Y-92597474D01*
X121577000Y-92466679D01*
X121577000Y-92333321D01*
X125223000Y-92333321D01*
X125223000Y-92466679D01*
X125249016Y-92597474D01*
X125300050Y-92720680D01*
X125374140Y-92831563D01*
X125468437Y-92925860D01*
X125579320Y-92999950D01*
X125702526Y-93050984D01*
X125833321Y-93077000D01*
X125966679Y-93077000D01*
X126097474Y-93050984D01*
X126220680Y-92999950D01*
X126320396Y-92933321D01*
X129823000Y-92933321D01*
X129823000Y-93066679D01*
X129849016Y-93197474D01*
X129900050Y-93320680D01*
X129974140Y-93431563D01*
X130068437Y-93525860D01*
X130179320Y-93599950D01*
X130302526Y-93650984D01*
X130433321Y-93677000D01*
X130566679Y-93677000D01*
X130697474Y-93650984D01*
X130820680Y-93599950D01*
X130931563Y-93525860D01*
X131025860Y-93431563D01*
X131099950Y-93320680D01*
X131150984Y-93197474D01*
X131177000Y-93066679D01*
X131177000Y-92933321D01*
X131150984Y-92802526D01*
X131099950Y-92679320D01*
X131025860Y-92568437D01*
X130931563Y-92474140D01*
X130870474Y-92433321D01*
X137123000Y-92433321D01*
X137123000Y-92566679D01*
X137149016Y-92697474D01*
X137200050Y-92820680D01*
X137274140Y-92931563D01*
X137368437Y-93025860D01*
X137479320Y-93099950D01*
X137602526Y-93150984D01*
X137733321Y-93177000D01*
X137866679Y-93177000D01*
X137997474Y-93150984D01*
X138120680Y-93099950D01*
X138231563Y-93025860D01*
X138325860Y-92931563D01*
X138399950Y-92820680D01*
X138450984Y-92697474D01*
X138477000Y-92566679D01*
X138477000Y-92433321D01*
X138450984Y-92302526D01*
X138399950Y-92179320D01*
X138325860Y-92068437D01*
X138231563Y-91974140D01*
X138120680Y-91900050D01*
X137997474Y-91849016D01*
X137866679Y-91823000D01*
X137733321Y-91823000D01*
X137602526Y-91849016D01*
X137479320Y-91900050D01*
X137368437Y-91974140D01*
X137274140Y-92068437D01*
X137200050Y-92179320D01*
X137149016Y-92302526D01*
X137123000Y-92433321D01*
X130870474Y-92433321D01*
X130820680Y-92400050D01*
X130697474Y-92349016D01*
X130566679Y-92323000D01*
X130433321Y-92323000D01*
X130302526Y-92349016D01*
X130179320Y-92400050D01*
X130068437Y-92474140D01*
X129974140Y-92568437D01*
X129900050Y-92679320D01*
X129849016Y-92802526D01*
X129823000Y-92933321D01*
X126320396Y-92933321D01*
X126331563Y-92925860D01*
X126425860Y-92831563D01*
X126499950Y-92720680D01*
X126550984Y-92597474D01*
X126577000Y-92466679D01*
X126577000Y-92333321D01*
X126550984Y-92202526D01*
X126499950Y-92079320D01*
X126425860Y-91968437D01*
X126331563Y-91874140D01*
X126220680Y-91800050D01*
X126097474Y-91749016D01*
X125966679Y-91723000D01*
X125833321Y-91723000D01*
X125702526Y-91749016D01*
X125579320Y-91800050D01*
X125468437Y-91874140D01*
X125374140Y-91968437D01*
X125300050Y-92079320D01*
X125249016Y-92202526D01*
X125223000Y-92333321D01*
X121577000Y-92333321D01*
X121550984Y-92202526D01*
X121499950Y-92079320D01*
X121425860Y-91968437D01*
X121331563Y-91874140D01*
X121220680Y-91800050D01*
X121097474Y-91749016D01*
X120966679Y-91723000D01*
X120833321Y-91723000D01*
X120702526Y-91749016D01*
X120579320Y-91800050D01*
X120468437Y-91874140D01*
X120374140Y-91968437D01*
X120300050Y-92079320D01*
X120249016Y-92202526D01*
X120223000Y-92333321D01*
X118418568Y-92333321D01*
X118366679Y-92323000D01*
X118233321Y-92323000D01*
X118102526Y-92349016D01*
X117979320Y-92400050D01*
X117868437Y-92474140D01*
X117774140Y-92568437D01*
X117700050Y-92679320D01*
X117649016Y-92802526D01*
X117623000Y-92933321D01*
X111470474Y-92933321D01*
X111420680Y-92900050D01*
X111297474Y-92849016D01*
X111166679Y-92823000D01*
X111033321Y-92823000D01*
X110902526Y-92849016D01*
X110779320Y-92900050D01*
X110668437Y-92974140D01*
X110574140Y-93068437D01*
X110500050Y-93179320D01*
X110449016Y-93302526D01*
X110423000Y-93433321D01*
X106590744Y-93433321D01*
X106531563Y-93374140D01*
X106420680Y-93300050D01*
X106297474Y-93249016D01*
X106277000Y-93244944D01*
X106277000Y-93233321D01*
X106250984Y-93102526D01*
X106199950Y-92979320D01*
X106125860Y-92868437D01*
X106031563Y-92774140D01*
X105920680Y-92700050D01*
X105797474Y-92649016D01*
X105777000Y-92644944D01*
X105777000Y-92533321D01*
X105750984Y-92402526D01*
X105699950Y-92279320D01*
X105625860Y-92168437D01*
X105531563Y-92074140D01*
X105420680Y-92000050D01*
X105297474Y-91949016D01*
X105166679Y-91923000D01*
X105033321Y-91923000D01*
X104902526Y-91949016D01*
X104779320Y-92000050D01*
X104668437Y-92074140D01*
X104574140Y-92168437D01*
X104500050Y-92279320D01*
X104449016Y-92402526D01*
X104423000Y-92533321D01*
X104423000Y-92666679D01*
X104449016Y-92797474D01*
X104500050Y-92920680D01*
X104574140Y-93031563D01*
X104668437Y-93125860D01*
X104712256Y-93155139D01*
X104697474Y-93149016D01*
X104566679Y-93123000D01*
X104433321Y-93123000D01*
X104302526Y-93149016D01*
X104179320Y-93200050D01*
X104068437Y-93274140D01*
X103974140Y-93368437D01*
X103900050Y-93479320D01*
X103849016Y-93602526D01*
X103823000Y-93733321D01*
X98920396Y-93733321D01*
X98931563Y-93725860D01*
X99025860Y-93631563D01*
X99099950Y-93520680D01*
X99150984Y-93397474D01*
X99177000Y-93266679D01*
X99177000Y-93133321D01*
X99150984Y-93002526D01*
X99099950Y-92879320D01*
X99025860Y-92768437D01*
X98931563Y-92674140D01*
X98820680Y-92600050D01*
X98697474Y-92549016D01*
X98566679Y-92523000D01*
X98433321Y-92523000D01*
X98302526Y-92549016D01*
X98179320Y-92600050D01*
X98068437Y-92674140D01*
X97974140Y-92768437D01*
X97900050Y-92879320D01*
X97849016Y-93002526D01*
X97823000Y-93133321D01*
X88904534Y-93133321D01*
X88970632Y-92973747D01*
X89037000Y-92640095D01*
X89037000Y-92299905D01*
X88970632Y-91966253D01*
X88840447Y-91651959D01*
X88651448Y-91369102D01*
X88410898Y-91128552D01*
X88128041Y-90939553D01*
X87871575Y-90833321D01*
X105123000Y-90833321D01*
X105123000Y-90966679D01*
X105149016Y-91097474D01*
X105200050Y-91220680D01*
X105274140Y-91331563D01*
X105368437Y-91425860D01*
X105479320Y-91499950D01*
X105602526Y-91550984D01*
X105733321Y-91577000D01*
X105866679Y-91577000D01*
X105997474Y-91550984D01*
X106120680Y-91499950D01*
X106231563Y-91425860D01*
X106325860Y-91331563D01*
X106399950Y-91220680D01*
X106450984Y-91097474D01*
X106477000Y-90966679D01*
X106477000Y-90833321D01*
X106450984Y-90702526D01*
X106399950Y-90579320D01*
X106325860Y-90468437D01*
X106231563Y-90374140D01*
X106120680Y-90300050D01*
X105997474Y-90249016D01*
X105866679Y-90223000D01*
X105733321Y-90223000D01*
X105602526Y-90249016D01*
X105479320Y-90300050D01*
X105368437Y-90374140D01*
X105274140Y-90468437D01*
X105200050Y-90579320D01*
X105149016Y-90702526D01*
X105123000Y-90833321D01*
X87871575Y-90833321D01*
X87813747Y-90809368D01*
X87480095Y-90743000D01*
X87139905Y-90743000D01*
X86806253Y-90809368D01*
X86491959Y-90939553D01*
X86209102Y-91128552D01*
X85968552Y-91369102D01*
X85779553Y-91651959D01*
X85649368Y-91966253D01*
X85583000Y-92299905D01*
X85583000Y-92640095D01*
X85649368Y-92973747D01*
X85680236Y-93048269D01*
X85568074Y-92936107D01*
X85231987Y-92711541D01*
X84858546Y-92556857D01*
X84462104Y-92478000D01*
X84057896Y-92478000D01*
X83661454Y-92556857D01*
X83288013Y-92711541D01*
X82951926Y-92936107D01*
X82666107Y-93221926D01*
X82441541Y-93558013D01*
X82286857Y-93931454D01*
X82208000Y-94327896D01*
X80886484Y-94327896D01*
X80928478Y-94165949D01*
X80946323Y-93855228D01*
X80903205Y-93546997D01*
X80800784Y-93253099D01*
X80714964Y-93092542D01*
X80456185Y-93003420D01*
X79539605Y-93920000D01*
X79180395Y-93920000D01*
X78263815Y-93003420D01*
X78005036Y-93092542D01*
X77869642Y-93372781D01*
X77791522Y-93674051D01*
X77773677Y-93984772D01*
X60452000Y-93984772D01*
X60452000Y-92823815D01*
X78443420Y-92823815D01*
X79360000Y-93740395D01*
X80276580Y-92823815D01*
X80187458Y-92565036D01*
X79907219Y-92429642D01*
X79605949Y-92351522D01*
X79295228Y-92333677D01*
X78986997Y-92376795D01*
X78693099Y-92479216D01*
X78532542Y-92565036D01*
X78443420Y-92823815D01*
X60452000Y-92823815D01*
X60452000Y-89933321D01*
X101223000Y-89933321D01*
X101223000Y-90066679D01*
X101249016Y-90197474D01*
X101300050Y-90320680D01*
X101374140Y-90431563D01*
X101468437Y-90525860D01*
X101579320Y-90599950D01*
X101702526Y-90650984D01*
X101833321Y-90677000D01*
X101966679Y-90677000D01*
X102097474Y-90650984D01*
X102220680Y-90599950D01*
X102331563Y-90525860D01*
X102425860Y-90431563D01*
X102499950Y-90320680D01*
X102550984Y-90197474D01*
X102577000Y-90066679D01*
X102577000Y-89933321D01*
X102552212Y-89808699D01*
X145473000Y-89808699D01*
X145473000Y-89991301D01*
X145508624Y-90170396D01*
X145578504Y-90339099D01*
X145679952Y-90490928D01*
X145809072Y-90620048D01*
X145960901Y-90721496D01*
X146129604Y-90791376D01*
X146308699Y-90827000D01*
X146491301Y-90827000D01*
X146670396Y-90791376D01*
X146839099Y-90721496D01*
X146990928Y-90620048D01*
X147120048Y-90490928D01*
X147150000Y-90446101D01*
X147179952Y-90490928D01*
X147309072Y-90620048D01*
X147460901Y-90721496D01*
X147629604Y-90791376D01*
X147808699Y-90827000D01*
X147991301Y-90827000D01*
X148170396Y-90791376D01*
X148339099Y-90721496D01*
X148490928Y-90620048D01*
X148620048Y-90490928D01*
X148721496Y-90339099D01*
X148791376Y-90170396D01*
X148827000Y-89991301D01*
X148827000Y-89808699D01*
X148791376Y-89629604D01*
X148721496Y-89460901D01*
X148620048Y-89309072D01*
X148490928Y-89179952D01*
X148446101Y-89150000D01*
X148490928Y-89120048D01*
X148620048Y-88990928D01*
X148721496Y-88839099D01*
X148791376Y-88670396D01*
X148827000Y-88491301D01*
X148827000Y-88308699D01*
X155373000Y-88308699D01*
X155373000Y-88491301D01*
X155408624Y-88670396D01*
X155478504Y-88839099D01*
X155579952Y-88990928D01*
X155709072Y-89120048D01*
X155860901Y-89221496D01*
X156029604Y-89291376D01*
X156208699Y-89327000D01*
X156391301Y-89327000D01*
X156570396Y-89291376D01*
X156739099Y-89221496D01*
X156890928Y-89120048D01*
X157020048Y-88990928D01*
X157121496Y-88839099D01*
X157175510Y-88708699D01*
X161473000Y-88708699D01*
X161473000Y-88891301D01*
X161508624Y-89070396D01*
X161578504Y-89239099D01*
X161679952Y-89390928D01*
X161809072Y-89520048D01*
X161960901Y-89621496D01*
X162129604Y-89691376D01*
X162308699Y-89727000D01*
X162491301Y-89727000D01*
X162670396Y-89691376D01*
X162839099Y-89621496D01*
X162990928Y-89520048D01*
X163120048Y-89390928D01*
X163150000Y-89346101D01*
X163179952Y-89390928D01*
X163309072Y-89520048D01*
X163460901Y-89621496D01*
X163629604Y-89691376D01*
X163808699Y-89727000D01*
X163991301Y-89727000D01*
X164170396Y-89691376D01*
X164339099Y-89621496D01*
X164490928Y-89520048D01*
X164620048Y-89390928D01*
X164650000Y-89346101D01*
X164679952Y-89390928D01*
X164809072Y-89520048D01*
X164853899Y-89550000D01*
X164809072Y-89579952D01*
X164679952Y-89709072D01*
X164578504Y-89860901D01*
X164508624Y-90029604D01*
X164473000Y-90208699D01*
X164473000Y-90391301D01*
X164508624Y-90570396D01*
X164578504Y-90739099D01*
X164679952Y-90890928D01*
X164809072Y-91020048D01*
X164853899Y-91050000D01*
X164809072Y-91079952D01*
X164679952Y-91209072D01*
X164578504Y-91360901D01*
X164508624Y-91529604D01*
X164473000Y-91708699D01*
X164473000Y-91891301D01*
X164508624Y-92070396D01*
X164578504Y-92239099D01*
X164679952Y-92390928D01*
X164809072Y-92520048D01*
X164960901Y-92621496D01*
X165129604Y-92691376D01*
X165308699Y-92727000D01*
X165491301Y-92727000D01*
X165670396Y-92691376D01*
X165839099Y-92621496D01*
X165990928Y-92520048D01*
X166120048Y-92390928D01*
X166221496Y-92239099D01*
X166291376Y-92070396D01*
X166327000Y-91891301D01*
X166327000Y-91708699D01*
X166291376Y-91529604D01*
X166221496Y-91360901D01*
X166120048Y-91209072D01*
X165990928Y-91079952D01*
X165946101Y-91050000D01*
X165990928Y-91020048D01*
X166120048Y-90890928D01*
X166221496Y-90739099D01*
X166291376Y-90570396D01*
X166327000Y-90391301D01*
X166327000Y-90208699D01*
X166291376Y-90029604D01*
X166221496Y-89860901D01*
X166120048Y-89709072D01*
X165990928Y-89579952D01*
X165946101Y-89550000D01*
X165990928Y-89520048D01*
X166120048Y-89390928D01*
X166221496Y-89239099D01*
X166291376Y-89070396D01*
X166327000Y-88891301D01*
X166327000Y-88708699D01*
X166291376Y-88529604D01*
X166221496Y-88360901D01*
X166120048Y-88209072D01*
X165990928Y-88079952D01*
X165839099Y-87978504D01*
X165670396Y-87908624D01*
X165491301Y-87873000D01*
X165308699Y-87873000D01*
X165129604Y-87908624D01*
X164960901Y-87978504D01*
X164809072Y-88079952D01*
X164679952Y-88209072D01*
X164650000Y-88253899D01*
X164620048Y-88209072D01*
X164490928Y-88079952D01*
X164339099Y-87978504D01*
X164170396Y-87908624D01*
X163991301Y-87873000D01*
X163808699Y-87873000D01*
X163629604Y-87908624D01*
X163460901Y-87978504D01*
X163309072Y-88079952D01*
X163179952Y-88209072D01*
X163150000Y-88253899D01*
X163120048Y-88209072D01*
X162990928Y-88079952D01*
X162839099Y-87978504D01*
X162670396Y-87908624D01*
X162491301Y-87873000D01*
X162308699Y-87873000D01*
X162129604Y-87908624D01*
X161960901Y-87978504D01*
X161809072Y-88079952D01*
X161679952Y-88209072D01*
X161578504Y-88360901D01*
X161508624Y-88529604D01*
X161473000Y-88708699D01*
X157175510Y-88708699D01*
X157191376Y-88670396D01*
X157227000Y-88491301D01*
X157227000Y-88308699D01*
X157191376Y-88129604D01*
X157121496Y-87960901D01*
X157020048Y-87809072D01*
X156890928Y-87679952D01*
X156739099Y-87578504D01*
X156570396Y-87508624D01*
X156391301Y-87473000D01*
X156208699Y-87473000D01*
X156029604Y-87508624D01*
X155860901Y-87578504D01*
X155709072Y-87679952D01*
X155579952Y-87809072D01*
X155478504Y-87960901D01*
X155408624Y-88129604D01*
X155373000Y-88308699D01*
X148827000Y-88308699D01*
X148791376Y-88129604D01*
X148721496Y-87960901D01*
X148620048Y-87809072D01*
X148490928Y-87679952D01*
X148339099Y-87578504D01*
X148170396Y-87508624D01*
X147991301Y-87473000D01*
X147808699Y-87473000D01*
X147629604Y-87508624D01*
X147460901Y-87578504D01*
X147309072Y-87679952D01*
X147179952Y-87809072D01*
X147078504Y-87960901D01*
X147008624Y-88129604D01*
X146973000Y-88308699D01*
X146973000Y-88491301D01*
X147008624Y-88670396D01*
X147078504Y-88839099D01*
X147179952Y-88990928D01*
X147309072Y-89120048D01*
X147353899Y-89150000D01*
X147309072Y-89179952D01*
X147179952Y-89309072D01*
X147150000Y-89353899D01*
X147120048Y-89309072D01*
X146990928Y-89179952D01*
X146839099Y-89078504D01*
X146670396Y-89008624D01*
X146491301Y-88973000D01*
X146308699Y-88973000D01*
X146129604Y-89008624D01*
X145960901Y-89078504D01*
X145809072Y-89179952D01*
X145679952Y-89309072D01*
X145578504Y-89460901D01*
X145508624Y-89629604D01*
X145473000Y-89808699D01*
X102552212Y-89808699D01*
X102550984Y-89802526D01*
X102499950Y-89679320D01*
X102425860Y-89568437D01*
X102331563Y-89474140D01*
X102220680Y-89400050D01*
X102097474Y-89349016D01*
X101966679Y-89323000D01*
X101833321Y-89323000D01*
X101702526Y-89349016D01*
X101579320Y-89400050D01*
X101468437Y-89474140D01*
X101374140Y-89568437D01*
X101300050Y-89679320D01*
X101249016Y-89802526D01*
X101223000Y-89933321D01*
X60452000Y-89933321D01*
X60452000Y-86333321D01*
X118223000Y-86333321D01*
X118223000Y-86466679D01*
X118249016Y-86597474D01*
X118300050Y-86720680D01*
X118374140Y-86831563D01*
X118468437Y-86925860D01*
X118579320Y-86999950D01*
X118702526Y-87050984D01*
X118833321Y-87077000D01*
X118966679Y-87077000D01*
X119097474Y-87050984D01*
X119220680Y-86999950D01*
X119331563Y-86925860D01*
X119425860Y-86831563D01*
X119499950Y-86720680D01*
X119550984Y-86597474D01*
X119577000Y-86466679D01*
X119577000Y-86333321D01*
X121923000Y-86333321D01*
X121923000Y-86466679D01*
X121949016Y-86597474D01*
X122000050Y-86720680D01*
X122074140Y-86831563D01*
X122168437Y-86925860D01*
X122279320Y-86999950D01*
X122402526Y-87050984D01*
X122533321Y-87077000D01*
X122666679Y-87077000D01*
X122797474Y-87050984D01*
X122920680Y-86999950D01*
X123031563Y-86925860D01*
X123125860Y-86831563D01*
X123199950Y-86720680D01*
X123250984Y-86597474D01*
X123277000Y-86466679D01*
X123277000Y-86333321D01*
X127323000Y-86333321D01*
X127323000Y-86466679D01*
X127349016Y-86597474D01*
X127400050Y-86720680D01*
X127474140Y-86831563D01*
X127568437Y-86925860D01*
X127679320Y-86999950D01*
X127802526Y-87050984D01*
X127933321Y-87077000D01*
X128066679Y-87077000D01*
X128197474Y-87050984D01*
X128320680Y-86999950D01*
X128431563Y-86925860D01*
X128525860Y-86831563D01*
X128599950Y-86720680D01*
X128650984Y-86597474D01*
X128677000Y-86466679D01*
X128677000Y-86333321D01*
X128650984Y-86202526D01*
X128599950Y-86079320D01*
X128525860Y-85968437D01*
X128431563Y-85874140D01*
X128320680Y-85800050D01*
X128197474Y-85749016D01*
X128066679Y-85723000D01*
X127933321Y-85723000D01*
X127802526Y-85749016D01*
X127679320Y-85800050D01*
X127568437Y-85874140D01*
X127474140Y-85968437D01*
X127400050Y-86079320D01*
X127349016Y-86202526D01*
X127323000Y-86333321D01*
X123277000Y-86333321D01*
X123250984Y-86202526D01*
X123199950Y-86079320D01*
X123125860Y-85968437D01*
X123031563Y-85874140D01*
X122920680Y-85800050D01*
X122797474Y-85749016D01*
X122666679Y-85723000D01*
X122533321Y-85723000D01*
X122402526Y-85749016D01*
X122279320Y-85800050D01*
X122168437Y-85874140D01*
X122074140Y-85968437D01*
X122000050Y-86079320D01*
X121949016Y-86202526D01*
X121923000Y-86333321D01*
X119577000Y-86333321D01*
X119550984Y-86202526D01*
X119499950Y-86079320D01*
X119425860Y-85968437D01*
X119331563Y-85874140D01*
X119220680Y-85800050D01*
X119097474Y-85749016D01*
X118966679Y-85723000D01*
X118833321Y-85723000D01*
X118702526Y-85749016D01*
X118579320Y-85800050D01*
X118468437Y-85874140D01*
X118374140Y-85968437D01*
X118300050Y-86079320D01*
X118249016Y-86202526D01*
X118223000Y-86333321D01*
X60452000Y-86333321D01*
X60452000Y-84933321D01*
X133123000Y-84933321D01*
X133123000Y-85066679D01*
X133149016Y-85197474D01*
X133200050Y-85320680D01*
X133274140Y-85431563D01*
X133368437Y-85525860D01*
X133479320Y-85599950D01*
X133602526Y-85650984D01*
X133733321Y-85677000D01*
X133866679Y-85677000D01*
X133997474Y-85650984D01*
X134120680Y-85599950D01*
X134231563Y-85525860D01*
X134325860Y-85431563D01*
X134399950Y-85320680D01*
X134450984Y-85197474D01*
X134477000Y-85066679D01*
X134477000Y-84933321D01*
X134450984Y-84802526D01*
X134399950Y-84679320D01*
X134325860Y-84568437D01*
X134231563Y-84474140D01*
X134120680Y-84400050D01*
X133997474Y-84349016D01*
X133866679Y-84323000D01*
X133733321Y-84323000D01*
X133602526Y-84349016D01*
X133479320Y-84400050D01*
X133368437Y-84474140D01*
X133274140Y-84568437D01*
X133200050Y-84679320D01*
X133149016Y-84802526D01*
X133123000Y-84933321D01*
X60452000Y-84933321D01*
X60452000Y-71234830D01*
X71323000Y-71234830D01*
X71323000Y-71565170D01*
X71387446Y-71889163D01*
X71513862Y-72194357D01*
X71697389Y-72469025D01*
X71930975Y-72702611D01*
X72205643Y-72886138D01*
X72510837Y-73012554D01*
X72834830Y-73077000D01*
X73165170Y-73077000D01*
X73489163Y-73012554D01*
X73794357Y-72886138D01*
X74069025Y-72702611D01*
X74302611Y-72469025D01*
X74486138Y-72194357D01*
X74612554Y-71889163D01*
X74677000Y-71565170D01*
X74677000Y-71234830D01*
X76323000Y-71234830D01*
X76323000Y-71565170D01*
X76387446Y-71889163D01*
X76513862Y-72194357D01*
X76697389Y-72469025D01*
X76930975Y-72702611D01*
X77205643Y-72886138D01*
X77510837Y-73012554D01*
X77834830Y-73077000D01*
X78165170Y-73077000D01*
X78489163Y-73012554D01*
X78794357Y-72886138D01*
X79069025Y-72702611D01*
X79302611Y-72469025D01*
X79486138Y-72194357D01*
X79612554Y-71889163D01*
X79677000Y-71565170D01*
X79677000Y-71234830D01*
X81323000Y-71234830D01*
X81323000Y-71565170D01*
X81387446Y-71889163D01*
X81513862Y-72194357D01*
X81697389Y-72469025D01*
X81930975Y-72702611D01*
X82205643Y-72886138D01*
X82510837Y-73012554D01*
X82834830Y-73077000D01*
X83165170Y-73077000D01*
X83489163Y-73012554D01*
X83794357Y-72886138D01*
X84069025Y-72702611D01*
X84302611Y-72469025D01*
X84486138Y-72194357D01*
X84612554Y-71889163D01*
X84677000Y-71565170D01*
X84677000Y-71234830D01*
X86323000Y-71234830D01*
X86323000Y-71565170D01*
X86387446Y-71889163D01*
X86513862Y-72194357D01*
X86697389Y-72469025D01*
X86930975Y-72702611D01*
X87205643Y-72886138D01*
X87510837Y-73012554D01*
X87834830Y-73077000D01*
X88165170Y-73077000D01*
X88489163Y-73012554D01*
X88794357Y-72886138D01*
X89069025Y-72702611D01*
X89302611Y-72469025D01*
X89486138Y-72194357D01*
X89612554Y-71889163D01*
X89677000Y-71565170D01*
X89677000Y-71234830D01*
X91323000Y-71234830D01*
X91323000Y-71565170D01*
X91387446Y-71889163D01*
X91513862Y-72194357D01*
X91697389Y-72469025D01*
X91930975Y-72702611D01*
X92205643Y-72886138D01*
X92510837Y-73012554D01*
X92834830Y-73077000D01*
X93165170Y-73077000D01*
X93489163Y-73012554D01*
X93794357Y-72886138D01*
X94069025Y-72702611D01*
X94302611Y-72469025D01*
X94486138Y-72194357D01*
X94612554Y-71889163D01*
X94677000Y-71565170D01*
X94677000Y-71234830D01*
X96323000Y-71234830D01*
X96323000Y-71565170D01*
X96387446Y-71889163D01*
X96513862Y-72194357D01*
X96697389Y-72469025D01*
X96930975Y-72702611D01*
X97205643Y-72886138D01*
X97510837Y-73012554D01*
X97834830Y-73077000D01*
X98165170Y-73077000D01*
X98489163Y-73012554D01*
X98794357Y-72886138D01*
X99069025Y-72702611D01*
X99302611Y-72469025D01*
X99486138Y-72194357D01*
X99612554Y-71889163D01*
X99677000Y-71565170D01*
X99677000Y-71234830D01*
X99612554Y-70910837D01*
X99486138Y-70605643D01*
X99302611Y-70330975D01*
X99121636Y-70150000D01*
X101320934Y-70150000D01*
X101320934Y-72650000D01*
X101329178Y-72733707D01*
X101353595Y-72814196D01*
X101393245Y-72888376D01*
X101446605Y-72953395D01*
X101511624Y-73006755D01*
X101585804Y-73046405D01*
X101666293Y-73070822D01*
X101750000Y-73079066D01*
X104250000Y-73079066D01*
X104333707Y-73070822D01*
X104414196Y-73046405D01*
X104488376Y-73006755D01*
X104553395Y-72953395D01*
X104606755Y-72888376D01*
X104646405Y-72814196D01*
X104670822Y-72733707D01*
X104679066Y-72650000D01*
X104679066Y-71234830D01*
X111323000Y-71234830D01*
X111323000Y-71565170D01*
X111387446Y-71889163D01*
X111513862Y-72194357D01*
X111697389Y-72469025D01*
X111930975Y-72702611D01*
X112205643Y-72886138D01*
X112510837Y-73012554D01*
X112834830Y-73077000D01*
X113165170Y-73077000D01*
X113489163Y-73012554D01*
X113794357Y-72886138D01*
X114069025Y-72702611D01*
X114302611Y-72469025D01*
X114486138Y-72194357D01*
X114612554Y-71889163D01*
X114677000Y-71565170D01*
X114677000Y-71234830D01*
X114612554Y-70910837D01*
X114486138Y-70605643D01*
X114302611Y-70330975D01*
X114121636Y-70150000D01*
X116320934Y-70150000D01*
X116320934Y-72650000D01*
X116329178Y-72733707D01*
X116353595Y-72814196D01*
X116393245Y-72888376D01*
X116446605Y-72953395D01*
X116511624Y-73006755D01*
X116585804Y-73046405D01*
X116666293Y-73070822D01*
X116750000Y-73079066D01*
X119250000Y-73079066D01*
X119333707Y-73070822D01*
X119414196Y-73046405D01*
X119488376Y-73006755D01*
X119553395Y-72953395D01*
X119606755Y-72888376D01*
X119646405Y-72814196D01*
X119670822Y-72733707D01*
X119679066Y-72650000D01*
X119679066Y-71234830D01*
X126323000Y-71234830D01*
X126323000Y-71565170D01*
X126387446Y-71889163D01*
X126513862Y-72194357D01*
X126697389Y-72469025D01*
X126930975Y-72702611D01*
X127205643Y-72886138D01*
X127510837Y-73012554D01*
X127834830Y-73077000D01*
X128165170Y-73077000D01*
X128489163Y-73012554D01*
X128794357Y-72886138D01*
X129069025Y-72702611D01*
X129302611Y-72469025D01*
X129486138Y-72194357D01*
X129612554Y-71889163D01*
X129677000Y-71565170D01*
X129677000Y-71234830D01*
X129612554Y-70910837D01*
X129486138Y-70605643D01*
X129302611Y-70330975D01*
X129121636Y-70150000D01*
X131320934Y-70150000D01*
X131320934Y-72650000D01*
X131329178Y-72733707D01*
X131353595Y-72814196D01*
X131393245Y-72888376D01*
X131446605Y-72953395D01*
X131511624Y-73006755D01*
X131585804Y-73046405D01*
X131666293Y-73070822D01*
X131750000Y-73079066D01*
X134250000Y-73079066D01*
X134333707Y-73070822D01*
X134414196Y-73046405D01*
X134488376Y-73006755D01*
X134553395Y-72953395D01*
X134606755Y-72888376D01*
X134646405Y-72814196D01*
X134670822Y-72733707D01*
X134679066Y-72650000D01*
X134679066Y-71234830D01*
X141323000Y-71234830D01*
X141323000Y-71565170D01*
X141387446Y-71889163D01*
X141513862Y-72194357D01*
X141697389Y-72469025D01*
X141930975Y-72702611D01*
X142205643Y-72886138D01*
X142510837Y-73012554D01*
X142834830Y-73077000D01*
X143165170Y-73077000D01*
X143489163Y-73012554D01*
X143794357Y-72886138D01*
X144069025Y-72702611D01*
X144302611Y-72469025D01*
X144486138Y-72194357D01*
X144612554Y-71889163D01*
X144677000Y-71565170D01*
X144677000Y-71234830D01*
X144612554Y-70910837D01*
X144486138Y-70605643D01*
X144302611Y-70330975D01*
X144121636Y-70150000D01*
X146320934Y-70150000D01*
X146320934Y-72650000D01*
X146329178Y-72733707D01*
X146353595Y-72814196D01*
X146393245Y-72888376D01*
X146446605Y-72953395D01*
X146511624Y-73006755D01*
X146585804Y-73046405D01*
X146666293Y-73070822D01*
X146750000Y-73079066D01*
X149250000Y-73079066D01*
X149333707Y-73070822D01*
X149414196Y-73046405D01*
X149488376Y-73006755D01*
X149553395Y-72953395D01*
X149606755Y-72888376D01*
X149646405Y-72814196D01*
X149670822Y-72733707D01*
X149679066Y-72650000D01*
X149679066Y-71234830D01*
X156323000Y-71234830D01*
X156323000Y-71565170D01*
X156387446Y-71889163D01*
X156513862Y-72194357D01*
X156697389Y-72469025D01*
X156930975Y-72702611D01*
X157205643Y-72886138D01*
X157510837Y-73012554D01*
X157834830Y-73077000D01*
X158165170Y-73077000D01*
X158489163Y-73012554D01*
X158794357Y-72886138D01*
X159069025Y-72702611D01*
X159302611Y-72469025D01*
X159486138Y-72194357D01*
X159612554Y-71889163D01*
X159677000Y-71565170D01*
X159677000Y-71234830D01*
X159612554Y-70910837D01*
X159486138Y-70605643D01*
X159302611Y-70330975D01*
X159121636Y-70150000D01*
X161320934Y-70150000D01*
X161320934Y-72650000D01*
X161329178Y-72733707D01*
X161353595Y-72814196D01*
X161393245Y-72888376D01*
X161446605Y-72953395D01*
X161511624Y-73006755D01*
X161585804Y-73046405D01*
X161666293Y-73070822D01*
X161750000Y-73079066D01*
X164250000Y-73079066D01*
X164333707Y-73070822D01*
X164414196Y-73046405D01*
X164488376Y-73006755D01*
X164553395Y-72953395D01*
X164606755Y-72888376D01*
X164646405Y-72814196D01*
X164670822Y-72733707D01*
X164679066Y-72650000D01*
X164679066Y-70150000D01*
X164670822Y-70066293D01*
X164646405Y-69985804D01*
X164606755Y-69911624D01*
X164553395Y-69846605D01*
X164488376Y-69793245D01*
X164414196Y-69753595D01*
X164333707Y-69729178D01*
X164250000Y-69720934D01*
X161750000Y-69720934D01*
X161666293Y-69729178D01*
X161585804Y-69753595D01*
X161511624Y-69793245D01*
X161446605Y-69846605D01*
X161393245Y-69911624D01*
X161353595Y-69985804D01*
X161329178Y-70066293D01*
X161320934Y-70150000D01*
X159121636Y-70150000D01*
X159069025Y-70097389D01*
X158794357Y-69913862D01*
X158489163Y-69787446D01*
X158165170Y-69723000D01*
X157834830Y-69723000D01*
X157510837Y-69787446D01*
X157205643Y-69913862D01*
X156930975Y-70097389D01*
X156697389Y-70330975D01*
X156513862Y-70605643D01*
X156387446Y-70910837D01*
X156323000Y-71234830D01*
X149679066Y-71234830D01*
X149679066Y-70150000D01*
X149670822Y-70066293D01*
X149646405Y-69985804D01*
X149606755Y-69911624D01*
X149553395Y-69846605D01*
X149488376Y-69793245D01*
X149414196Y-69753595D01*
X149333707Y-69729178D01*
X149250000Y-69720934D01*
X146750000Y-69720934D01*
X146666293Y-69729178D01*
X146585804Y-69753595D01*
X146511624Y-69793245D01*
X146446605Y-69846605D01*
X146393245Y-69911624D01*
X146353595Y-69985804D01*
X146329178Y-70066293D01*
X146320934Y-70150000D01*
X144121636Y-70150000D01*
X144069025Y-70097389D01*
X143794357Y-69913862D01*
X143489163Y-69787446D01*
X143165170Y-69723000D01*
X142834830Y-69723000D01*
X142510837Y-69787446D01*
X142205643Y-69913862D01*
X141930975Y-70097389D01*
X141697389Y-70330975D01*
X141513862Y-70605643D01*
X141387446Y-70910837D01*
X141323000Y-71234830D01*
X134679066Y-71234830D01*
X134679066Y-70150000D01*
X134670822Y-70066293D01*
X134646405Y-69985804D01*
X134606755Y-69911624D01*
X134553395Y-69846605D01*
X134488376Y-69793245D01*
X134414196Y-69753595D01*
X134333707Y-69729178D01*
X134250000Y-69720934D01*
X131750000Y-69720934D01*
X131666293Y-69729178D01*
X131585804Y-69753595D01*
X131511624Y-69793245D01*
X131446605Y-69846605D01*
X131393245Y-69911624D01*
X131353595Y-69985804D01*
X131329178Y-70066293D01*
X131320934Y-70150000D01*
X129121636Y-70150000D01*
X129069025Y-70097389D01*
X128794357Y-69913862D01*
X128489163Y-69787446D01*
X128165170Y-69723000D01*
X127834830Y-69723000D01*
X127510837Y-69787446D01*
X127205643Y-69913862D01*
X126930975Y-70097389D01*
X126697389Y-70330975D01*
X126513862Y-70605643D01*
X126387446Y-70910837D01*
X126323000Y-71234830D01*
X119679066Y-71234830D01*
X119679066Y-70150000D01*
X119670822Y-70066293D01*
X119646405Y-69985804D01*
X119606755Y-69911624D01*
X119553395Y-69846605D01*
X119488376Y-69793245D01*
X119414196Y-69753595D01*
X119333707Y-69729178D01*
X119250000Y-69720934D01*
X116750000Y-69720934D01*
X116666293Y-69729178D01*
X116585804Y-69753595D01*
X116511624Y-69793245D01*
X116446605Y-69846605D01*
X116393245Y-69911624D01*
X116353595Y-69985804D01*
X116329178Y-70066293D01*
X116320934Y-70150000D01*
X114121636Y-70150000D01*
X114069025Y-70097389D01*
X113794357Y-69913862D01*
X113489163Y-69787446D01*
X113165170Y-69723000D01*
X112834830Y-69723000D01*
X112510837Y-69787446D01*
X112205643Y-69913862D01*
X111930975Y-70097389D01*
X111697389Y-70330975D01*
X111513862Y-70605643D01*
X111387446Y-70910837D01*
X111323000Y-71234830D01*
X104679066Y-71234830D01*
X104679066Y-70150000D01*
X104670822Y-70066293D01*
X104646405Y-69985804D01*
X104606755Y-69911624D01*
X104553395Y-69846605D01*
X104488376Y-69793245D01*
X104414196Y-69753595D01*
X104333707Y-69729178D01*
X104250000Y-69720934D01*
X101750000Y-69720934D01*
X101666293Y-69729178D01*
X101585804Y-69753595D01*
X101511624Y-69793245D01*
X101446605Y-69846605D01*
X101393245Y-69911624D01*
X101353595Y-69985804D01*
X101329178Y-70066293D01*
X101320934Y-70150000D01*
X99121636Y-70150000D01*
X99069025Y-70097389D01*
X98794357Y-69913862D01*
X98489163Y-69787446D01*
X98165170Y-69723000D01*
X97834830Y-69723000D01*
X97510837Y-69787446D01*
X97205643Y-69913862D01*
X96930975Y-70097389D01*
X96697389Y-70330975D01*
X96513862Y-70605643D01*
X96387446Y-70910837D01*
X96323000Y-71234830D01*
X94677000Y-71234830D01*
X94612554Y-70910837D01*
X94486138Y-70605643D01*
X94302611Y-70330975D01*
X94069025Y-70097389D01*
X93794357Y-69913862D01*
X93489163Y-69787446D01*
X93165170Y-69723000D01*
X92834830Y-69723000D01*
X92510837Y-69787446D01*
X92205643Y-69913862D01*
X91930975Y-70097389D01*
X91697389Y-70330975D01*
X91513862Y-70605643D01*
X91387446Y-70910837D01*
X91323000Y-71234830D01*
X89677000Y-71234830D01*
X89612554Y-70910837D01*
X89486138Y-70605643D01*
X89302611Y-70330975D01*
X89069025Y-70097389D01*
X88794357Y-69913862D01*
X88489163Y-69787446D01*
X88165170Y-69723000D01*
X87834830Y-69723000D01*
X87510837Y-69787446D01*
X87205643Y-69913862D01*
X86930975Y-70097389D01*
X86697389Y-70330975D01*
X86513862Y-70605643D01*
X86387446Y-70910837D01*
X86323000Y-71234830D01*
X84677000Y-71234830D01*
X84612554Y-70910837D01*
X84486138Y-70605643D01*
X84302611Y-70330975D01*
X84069025Y-70097389D01*
X83794357Y-69913862D01*
X83489163Y-69787446D01*
X83165170Y-69723000D01*
X82834830Y-69723000D01*
X82510837Y-69787446D01*
X82205643Y-69913862D01*
X81930975Y-70097389D01*
X81697389Y-70330975D01*
X81513862Y-70605643D01*
X81387446Y-70910837D01*
X81323000Y-71234830D01*
X79677000Y-71234830D01*
X79612554Y-70910837D01*
X79486138Y-70605643D01*
X79302611Y-70330975D01*
X79069025Y-70097389D01*
X78794357Y-69913862D01*
X78489163Y-69787446D01*
X78165170Y-69723000D01*
X77834830Y-69723000D01*
X77510837Y-69787446D01*
X77205643Y-69913862D01*
X76930975Y-70097389D01*
X76697389Y-70330975D01*
X76513862Y-70605643D01*
X76387446Y-70910837D01*
X76323000Y-71234830D01*
X74677000Y-71234830D01*
X74612554Y-70910837D01*
X74486138Y-70605643D01*
X74302611Y-70330975D01*
X74069025Y-70097389D01*
X73794357Y-69913862D01*
X73489163Y-69787446D01*
X73165170Y-69723000D01*
X72834830Y-69723000D01*
X72510837Y-69787446D01*
X72205643Y-69913862D01*
X71930975Y-70097389D01*
X71697389Y-70330975D01*
X71513862Y-70605643D01*
X71387446Y-70910837D01*
X71323000Y-71234830D01*
X60452000Y-71234830D01*
X60452000Y-61785584D01*
X62823000Y-61785584D01*
X62823000Y-62214416D01*
X62906660Y-62635008D01*
X63070767Y-63031196D01*
X63309013Y-63387757D01*
X63612243Y-63690987D01*
X63968804Y-63929233D01*
X64364992Y-64093340D01*
X64785584Y-64177000D01*
X65214416Y-64177000D01*
X65635008Y-64093340D01*
X66031196Y-63929233D01*
X66387757Y-63690987D01*
X66690987Y-63387757D01*
X66929233Y-63031196D01*
X67093340Y-62635008D01*
X67177000Y-62214416D01*
X67177000Y-61785584D01*
X168823000Y-61785584D01*
X168823000Y-62214416D01*
X168906660Y-62635008D01*
X169070767Y-63031196D01*
X169309013Y-63387757D01*
X169612243Y-63690987D01*
X169968804Y-63929233D01*
X170364992Y-64093340D01*
X170785584Y-64177000D01*
X171214416Y-64177000D01*
X171635008Y-64093340D01*
X172031196Y-63929233D01*
X172387757Y-63690987D01*
X172690987Y-63387757D01*
X172929233Y-63031196D01*
X173093340Y-62635008D01*
X173177000Y-62214416D01*
X173177000Y-61785584D01*
X173093340Y-61364992D01*
X172929233Y-60968804D01*
X172690987Y-60612243D01*
X172387757Y-60309013D01*
X172031196Y-60070767D01*
X171635008Y-59906660D01*
X171214416Y-59823000D01*
X170785584Y-59823000D01*
X170364992Y-59906660D01*
X169968804Y-60070767D01*
X169612243Y-60309013D01*
X169309013Y-60612243D01*
X169070767Y-60968804D01*
X168906660Y-61364992D01*
X168823000Y-61785584D01*
X67177000Y-61785584D01*
X67093340Y-61364992D01*
X66929233Y-60968804D01*
X66690987Y-60612243D01*
X66387757Y-60309013D01*
X66031196Y-60070767D01*
X65635008Y-59906660D01*
X65214416Y-59823000D01*
X64785584Y-59823000D01*
X64364992Y-59906660D01*
X63968804Y-60070767D01*
X63612243Y-60309013D01*
X63309013Y-60612243D01*
X63070767Y-60968804D01*
X62906660Y-61364992D01*
X62823000Y-61785584D01*
X60452000Y-61785584D01*
X60452000Y-57452000D01*
X175548000Y-57452000D01*
X175548001Y-118548000D01*
G37*
X175548001Y-118548000D02*
X60452000Y-118548000D01*
X60452000Y-113785584D01*
X62823000Y-113785584D01*
X62823000Y-114214416D01*
X62906660Y-114635008D01*
X63070767Y-115031196D01*
X63309013Y-115387757D01*
X63612243Y-115690987D01*
X63968804Y-115929233D01*
X64364992Y-116093340D01*
X64785584Y-116177000D01*
X65214416Y-116177000D01*
X65635008Y-116093340D01*
X66031196Y-115929233D01*
X66387757Y-115690987D01*
X66690987Y-115387757D01*
X66929233Y-115031196D01*
X67093340Y-114635008D01*
X67177000Y-114214416D01*
X67177000Y-113785584D01*
X168823000Y-113785584D01*
X168823000Y-114214416D01*
X168906660Y-114635008D01*
X169070767Y-115031196D01*
X169309013Y-115387757D01*
X169612243Y-115690987D01*
X169968804Y-115929233D01*
X170364992Y-116093340D01*
X170785584Y-116177000D01*
X171214416Y-116177000D01*
X171635008Y-116093340D01*
X172031196Y-115929233D01*
X172387757Y-115690987D01*
X172690987Y-115387757D01*
X172929233Y-115031196D01*
X173093340Y-114635008D01*
X173177000Y-114214416D01*
X173177000Y-113785584D01*
X173093340Y-113364992D01*
X172929233Y-112968804D01*
X172690987Y-112612243D01*
X172387757Y-112309013D01*
X172031196Y-112070767D01*
X171635008Y-111906660D01*
X171214416Y-111823000D01*
X170785584Y-111823000D01*
X170364992Y-111906660D01*
X169968804Y-112070767D01*
X169612243Y-112309013D01*
X169309013Y-112612243D01*
X169070767Y-112968804D01*
X168906660Y-113364992D01*
X168823000Y-113785584D01*
X67177000Y-113785584D01*
X67093340Y-113364992D01*
X66929233Y-112968804D01*
X66690987Y-112612243D01*
X66387757Y-112309013D01*
X66031196Y-112070767D01*
X65635008Y-111906660D01*
X65214416Y-111823000D01*
X64785584Y-111823000D01*
X64364992Y-111906660D01*
X63968804Y-112070767D01*
X63612243Y-112309013D01*
X63309013Y-112612243D01*
X63070767Y-112968804D01*
X62906660Y-113364992D01*
X62823000Y-113785584D01*
X60452000Y-113785584D01*
X60452000Y-111733321D01*
X118723000Y-111733321D01*
X118723000Y-111866679D01*
X118749016Y-111997474D01*
X118800050Y-112120680D01*
X118874140Y-112231563D01*
X118968437Y-112325860D01*
X119079320Y-112399950D01*
X119202526Y-112450984D01*
X119333321Y-112477000D01*
X119466679Y-112477000D01*
X119597474Y-112450984D01*
X119720680Y-112399950D01*
X119831563Y-112325860D01*
X119925860Y-112231563D01*
X119999950Y-112120680D01*
X120050984Y-111997474D01*
X120077000Y-111866679D01*
X120077000Y-111733321D01*
X127823000Y-111733321D01*
X127823000Y-111866679D01*
X127849016Y-111997474D01*
X127900050Y-112120680D01*
X127974140Y-112231563D01*
X128068437Y-112325860D01*
X128179320Y-112399950D01*
X128302526Y-112450984D01*
X128433321Y-112477000D01*
X128566679Y-112477000D01*
X128697474Y-112450984D01*
X128820680Y-112399950D01*
X128931563Y-112325860D01*
X129025860Y-112231563D01*
X129099950Y-112120680D01*
X129150984Y-111997474D01*
X129177000Y-111866679D01*
X129177000Y-111733321D01*
X129723000Y-111733321D01*
X129723000Y-111866679D01*
X129749016Y-111997474D01*
X129800050Y-112120680D01*
X129874140Y-112231563D01*
X129968437Y-112325860D01*
X130079320Y-112399950D01*
X130202526Y-112450984D01*
X130333321Y-112477000D01*
X130466679Y-112477000D01*
X130597474Y-112450984D01*
X130720680Y-112399950D01*
X130831563Y-112325860D01*
X130925860Y-112231563D01*
X130999950Y-112120680D01*
X131050984Y-111997474D01*
X131077000Y-111866679D01*
X131077000Y-111733321D01*
X131050984Y-111602526D01*
X130999950Y-111479320D01*
X130925860Y-111368437D01*
X130831563Y-111274140D01*
X130720680Y-111200050D01*
X130597474Y-111149016D01*
X130466679Y-111123000D01*
X130333321Y-111123000D01*
X130202526Y-111149016D01*
X130079320Y-111200050D01*
X129968437Y-111274140D01*
X129874140Y-111368437D01*
X129800050Y-111479320D01*
X129749016Y-111602526D01*
X129723000Y-111733321D01*
X129177000Y-111733321D01*
X129150984Y-111602526D01*
X129099950Y-111479320D01*
X129025860Y-111368437D01*
X128931563Y-111274140D01*
X128820680Y-111200050D01*
X128697474Y-111149016D01*
X128566679Y-111123000D01*
X128433321Y-111123000D01*
X128302526Y-111149016D01*
X128179320Y-111200050D01*
X128068437Y-111274140D01*
X127974140Y-111368437D01*
X127900050Y-111479320D01*
X127849016Y-111602526D01*
X127823000Y-111733321D01*
X120077000Y-111733321D01*
X120050984Y-111602526D01*
X119999950Y-111479320D01*
X119925860Y-111368437D01*
X119831563Y-111274140D01*
X119720680Y-111200050D01*
X119597474Y-111149016D01*
X119466679Y-111123000D01*
X119333321Y-111123000D01*
X119202526Y-111149016D01*
X119079320Y-111200050D01*
X118968437Y-111274140D01*
X118874140Y-111368437D01*
X118800050Y-111479320D01*
X118749016Y-111602526D01*
X118723000Y-111733321D01*
X60452000Y-111733321D01*
X60452000Y-107666185D01*
X79963420Y-107666185D01*
X80052542Y-107924964D01*
X80332781Y-108060358D01*
X80634051Y-108138478D01*
X80944772Y-108156323D01*
X81253003Y-108113205D01*
X81546901Y-108010784D01*
X81707458Y-107924964D01*
X81796580Y-107666185D01*
X80880000Y-106749605D01*
X79963420Y-107666185D01*
X60452000Y-107666185D01*
X60452000Y-106634772D01*
X79293677Y-106634772D01*
X79336795Y-106943003D01*
X79439216Y-107236901D01*
X79525036Y-107397458D01*
X79783815Y-107486580D01*
X80700395Y-106570000D01*
X81059605Y-106570000D01*
X81976185Y-107486580D01*
X82234964Y-107397458D01*
X82370358Y-107117219D01*
X82427303Y-106897612D01*
X82441541Y-106931987D01*
X82666107Y-107268074D01*
X82951926Y-107553893D01*
X83288013Y-107778459D01*
X83661454Y-107933143D01*
X84057896Y-108012000D01*
X84462104Y-108012000D01*
X84858546Y-107933143D01*
X85231987Y-107778459D01*
X85568074Y-107553893D01*
X85680236Y-107441731D01*
X85649368Y-107516253D01*
X85583000Y-107849905D01*
X85583000Y-108190095D01*
X85649368Y-108523747D01*
X85779553Y-108838041D01*
X85968552Y-109120898D01*
X86209102Y-109361448D01*
X86491959Y-109550447D01*
X86806253Y-109680632D01*
X87139905Y-109747000D01*
X87480095Y-109747000D01*
X87813747Y-109680632D01*
X87987408Y-109608699D01*
X146273000Y-109608699D01*
X146273000Y-109791301D01*
X146308624Y-109970396D01*
X146378504Y-110139099D01*
X146479952Y-110290928D01*
X146609072Y-110420048D01*
X146760901Y-110521496D01*
X146929604Y-110591376D01*
X147108699Y-110627000D01*
X147291301Y-110627000D01*
X147470396Y-110591376D01*
X147639099Y-110521496D01*
X147790928Y-110420048D01*
X147920048Y-110290928D01*
X148021496Y-110139099D01*
X148091376Y-109970396D01*
X148127000Y-109791301D01*
X148127000Y-109608699D01*
X148091376Y-109429604D01*
X148021496Y-109260901D01*
X147920048Y-109109072D01*
X147790928Y-108979952D01*
X147639099Y-108878504D01*
X147470396Y-108808624D01*
X147291301Y-108773000D01*
X147108699Y-108773000D01*
X146929604Y-108808624D01*
X146760901Y-108878504D01*
X146609072Y-108979952D01*
X146479952Y-109109072D01*
X146378504Y-109260901D01*
X146308624Y-109429604D01*
X146273000Y-109608699D01*
X87987408Y-109608699D01*
X88128041Y-109550447D01*
X88410898Y-109361448D01*
X88651448Y-109120898D01*
X88840447Y-108838041D01*
X88970632Y-108523747D01*
X89037000Y-108190095D01*
X89037000Y-107849905D01*
X88970632Y-107516253D01*
X88840447Y-107201959D01*
X88651448Y-106919102D01*
X88410898Y-106678552D01*
X88128041Y-106489553D01*
X87813747Y-106359368D01*
X87480095Y-106293000D01*
X87139905Y-106293000D01*
X86806253Y-106359368D01*
X86491959Y-106489553D01*
X86209102Y-106678552D01*
X86165286Y-106722368D01*
X86233143Y-106558546D01*
X86312000Y-106162104D01*
X86312000Y-105757896D01*
X86233143Y-105361454D01*
X86078459Y-104988013D01*
X85853893Y-104651926D01*
X85568074Y-104366107D01*
X85231987Y-104141541D01*
X84858546Y-103986857D01*
X84462104Y-103908000D01*
X84057896Y-103908000D01*
X83661454Y-103986857D01*
X83288013Y-104141541D01*
X82951926Y-104366107D01*
X82666107Y-104651926D01*
X82441541Y-104988013D01*
X82286857Y-105361454D01*
X82212587Y-105734835D01*
X81976185Y-105653420D01*
X81059605Y-106570000D01*
X80700395Y-106570000D01*
X79783815Y-105653420D01*
X79525036Y-105742542D01*
X79389642Y-106022781D01*
X79311522Y-106324051D01*
X79293677Y-106634772D01*
X60452000Y-106634772D01*
X60452000Y-103894870D01*
X77988000Y-103894870D01*
X77988000Y-104165130D01*
X78040725Y-104430198D01*
X78144149Y-104679886D01*
X78294298Y-104904599D01*
X78485401Y-105095702D01*
X78710114Y-105245851D01*
X78959802Y-105349275D01*
X79224870Y-105402000D01*
X79495130Y-105402000D01*
X79760198Y-105349275D01*
X80009886Y-105245851D01*
X80051507Y-105218040D01*
X79963420Y-105473815D01*
X80880000Y-106390395D01*
X81796580Y-105473815D01*
X81707458Y-105215036D01*
X81427219Y-105079642D01*
X81125949Y-105001522D01*
X80815228Y-104983677D01*
X80506997Y-105026795D01*
X80213099Y-105129216D01*
X80069847Y-105205786D01*
X80234599Y-105095702D01*
X80425702Y-104904599D01*
X80575851Y-104679886D01*
X80679275Y-104430198D01*
X80732000Y-104165130D01*
X80732000Y-103894870D01*
X80679275Y-103629802D01*
X80575851Y-103380114D01*
X80425702Y-103155401D01*
X80234599Y-102964298D01*
X80009886Y-102814149D01*
X79760198Y-102710725D01*
X79495130Y-102658000D01*
X79224870Y-102658000D01*
X78959802Y-102710725D01*
X78710114Y-102814149D01*
X78485401Y-102964298D01*
X78294298Y-103155401D01*
X78144149Y-103380114D01*
X78040725Y-103629802D01*
X77988000Y-103894870D01*
X60452000Y-103894870D01*
X60452000Y-99118548D01*
X87573000Y-99118548D01*
X87573000Y-99281452D01*
X87604782Y-99441227D01*
X87667123Y-99591731D01*
X87757628Y-99727181D01*
X87872819Y-99842372D01*
X88008269Y-99932877D01*
X88158773Y-99995218D01*
X88318548Y-100027000D01*
X88481452Y-100027000D01*
X88641227Y-99995218D01*
X88791731Y-99932877D01*
X88927181Y-99842372D01*
X89042372Y-99727181D01*
X89132877Y-99591731D01*
X89195218Y-99441227D01*
X89227000Y-99281452D01*
X89227000Y-99118548D01*
X89195218Y-98958773D01*
X89132877Y-98808269D01*
X89042372Y-98672819D01*
X88927181Y-98557628D01*
X88791731Y-98467123D01*
X88641227Y-98404782D01*
X88481452Y-98373000D01*
X88318548Y-98373000D01*
X88158773Y-98404782D01*
X88008269Y-98467123D01*
X87872819Y-98557628D01*
X87757628Y-98672819D01*
X87667123Y-98808269D01*
X87604782Y-98958773D01*
X87573000Y-99118548D01*
X60452000Y-99118548D01*
X60452000Y-95016185D01*
X78443420Y-95016185D01*
X78532542Y-95274964D01*
X78812781Y-95410358D01*
X79114051Y-95488478D01*
X79424772Y-95506323D01*
X79733003Y-95463205D01*
X80026901Y-95360784D01*
X80170153Y-95284214D01*
X80005401Y-95394298D01*
X79814298Y-95585401D01*
X79664149Y-95810114D01*
X79560725Y-96059802D01*
X79508000Y-96324870D01*
X79508000Y-96595130D01*
X79560725Y-96860198D01*
X79664149Y-97109886D01*
X79814298Y-97334599D01*
X80005401Y-97525702D01*
X80230114Y-97675851D01*
X80479802Y-97779275D01*
X80744870Y-97832000D01*
X81015130Y-97832000D01*
X81280198Y-97779275D01*
X81529886Y-97675851D01*
X81754599Y-97525702D01*
X81945702Y-97334599D01*
X82095851Y-97109886D01*
X82199275Y-96860198D01*
X82252000Y-96595130D01*
X82252000Y-96324870D01*
X82199275Y-96059802D01*
X82095851Y-95810114D01*
X81945702Y-95585401D01*
X81754599Y-95394298D01*
X81529886Y-95244149D01*
X81280198Y-95140725D01*
X81015130Y-95088000D01*
X80744870Y-95088000D01*
X80479802Y-95140725D01*
X80230114Y-95244149D01*
X80188493Y-95271960D01*
X80276580Y-95016185D01*
X79360000Y-94099605D01*
X78443420Y-95016185D01*
X60452000Y-95016185D01*
X60452000Y-93984772D01*
X77773677Y-93984772D01*
X77816795Y-94293003D01*
X77919216Y-94586901D01*
X78005036Y-94747458D01*
X78263815Y-94836580D01*
X79180395Y-93920000D01*
X79539605Y-93920000D01*
X80456185Y-94836580D01*
X80714964Y-94747458D01*
X80850358Y-94467219D01*
X80886484Y-94327896D01*
X82208000Y-94327896D01*
X82208000Y-94732104D01*
X82286857Y-95128546D01*
X82441541Y-95501987D01*
X82666107Y-95838074D01*
X82951926Y-96123893D01*
X83288013Y-96348459D01*
X83661454Y-96503143D01*
X84057896Y-96582000D01*
X84462104Y-96582000D01*
X84858546Y-96503143D01*
X85231987Y-96348459D01*
X85568074Y-96123893D01*
X85853893Y-95838074D01*
X86078459Y-95501987D01*
X86233143Y-95128546D01*
X86288549Y-94850000D01*
X89220934Y-94850000D01*
X89220934Y-96750000D01*
X89229178Y-96833707D01*
X89253595Y-96914196D01*
X89293245Y-96988376D01*
X89346605Y-97053395D01*
X89411624Y-97106755D01*
X89485804Y-97146405D01*
X89566293Y-97170822D01*
X89650000Y-97179066D01*
X89858925Y-97179066D01*
X89722213Y-97270414D01*
X89530414Y-97462213D01*
X89379718Y-97687746D01*
X89275917Y-97938344D01*
X89223000Y-98204377D01*
X89223000Y-98475623D01*
X89275917Y-98741656D01*
X89379718Y-98992254D01*
X89530414Y-99217787D01*
X89722213Y-99409586D01*
X89947746Y-99560282D01*
X90067776Y-99610000D01*
X89947746Y-99659718D01*
X89722213Y-99810414D01*
X89530414Y-100002213D01*
X89379718Y-100227746D01*
X89275917Y-100478344D01*
X89223000Y-100744377D01*
X89223000Y-101015623D01*
X89275917Y-101281656D01*
X89379718Y-101532254D01*
X89530414Y-101757787D01*
X89722213Y-101949586D01*
X89947746Y-102100282D01*
X90067776Y-102150000D01*
X89947746Y-102199718D01*
X89722213Y-102350414D01*
X89530414Y-102542213D01*
X89379718Y-102767746D01*
X89275917Y-103018344D01*
X89223000Y-103284377D01*
X89223000Y-103555623D01*
X89275917Y-103821656D01*
X89379718Y-104072254D01*
X89530414Y-104297787D01*
X89722213Y-104489586D01*
X89947746Y-104640282D01*
X90198344Y-104744083D01*
X90464377Y-104797000D01*
X90735623Y-104797000D01*
X91001656Y-104744083D01*
X91252254Y-104640282D01*
X91477787Y-104489586D01*
X91669586Y-104297787D01*
X91820282Y-104072254D01*
X91924083Y-103821656D01*
X91977000Y-103555623D01*
X91977000Y-103284377D01*
X91924083Y-103018344D01*
X91820282Y-102767746D01*
X91669586Y-102542213D01*
X91477787Y-102350414D01*
X91252254Y-102199718D01*
X91132224Y-102150000D01*
X91252254Y-102100282D01*
X91477787Y-101949586D01*
X91669586Y-101757787D01*
X91820282Y-101532254D01*
X91924083Y-101281656D01*
X91977000Y-101015623D01*
X91977000Y-100744377D01*
X91924083Y-100478344D01*
X91820282Y-100227746D01*
X91669586Y-100002213D01*
X91477787Y-99810414D01*
X91252254Y-99659718D01*
X91132224Y-99610000D01*
X91252254Y-99560282D01*
X91477787Y-99409586D01*
X91669586Y-99217787D01*
X91820282Y-98992254D01*
X91924083Y-98741656D01*
X91977000Y-98475623D01*
X91977000Y-98204377D01*
X91924083Y-97938344D01*
X91820282Y-97687746D01*
X91669586Y-97462213D01*
X91477787Y-97270414D01*
X91341075Y-97179066D01*
X91550000Y-97179066D01*
X91633707Y-97170822D01*
X91714196Y-97146405D01*
X91763000Y-97120319D01*
X91763000Y-97205623D01*
X91815917Y-97471656D01*
X91919718Y-97722254D01*
X92070414Y-97947787D01*
X92262213Y-98139586D01*
X92487746Y-98290282D01*
X92607776Y-98340000D01*
X92487746Y-98389718D01*
X92262213Y-98540414D01*
X92070414Y-98732213D01*
X91919718Y-98957746D01*
X91815917Y-99208344D01*
X91763000Y-99474377D01*
X91763000Y-99745623D01*
X91815917Y-100011656D01*
X91919718Y-100262254D01*
X92070414Y-100487787D01*
X92262213Y-100679586D01*
X92487746Y-100830282D01*
X92607776Y-100880000D01*
X92487746Y-100929718D01*
X92262213Y-101080414D01*
X92070414Y-101272213D01*
X91919718Y-101497746D01*
X91815917Y-101748344D01*
X91763000Y-102014377D01*
X91763000Y-102285623D01*
X91815917Y-102551656D01*
X91919718Y-102802254D01*
X92070414Y-103027787D01*
X92262213Y-103219586D01*
X92487746Y-103370282D01*
X92607776Y-103420000D01*
X92487746Y-103469718D01*
X92262213Y-103620414D01*
X92070414Y-103812213D01*
X91919718Y-104037746D01*
X91815917Y-104288344D01*
X91763000Y-104554377D01*
X91763000Y-104825623D01*
X91815917Y-105091656D01*
X91919718Y-105342254D01*
X92070414Y-105567787D01*
X92262213Y-105759586D01*
X92487746Y-105910282D01*
X92738344Y-106014083D01*
X93004377Y-106067000D01*
X93275623Y-106067000D01*
X93541656Y-106014083D01*
X93792254Y-105910282D01*
X94017787Y-105759586D01*
X94027373Y-105750000D01*
X139711928Y-105750000D01*
X139724188Y-105874482D01*
X139760498Y-105994180D01*
X139819463Y-106104494D01*
X139898815Y-106201185D01*
X139995506Y-106280537D01*
X140105820Y-106339502D01*
X140225518Y-106375812D01*
X140350000Y-106388072D01*
X140914250Y-106385000D01*
X141073000Y-106226250D01*
X141073000Y-105027000D01*
X141327000Y-105027000D01*
X141327000Y-106226250D01*
X141485750Y-106385000D01*
X142050000Y-106388072D01*
X142174482Y-106375812D01*
X142294180Y-106339502D01*
X142351807Y-106308699D01*
X162673000Y-106308699D01*
X162673000Y-106491301D01*
X162708624Y-106670396D01*
X162778504Y-106839099D01*
X162879952Y-106990928D01*
X163009072Y-107120048D01*
X163160901Y-107221496D01*
X163329604Y-107291376D01*
X163508699Y-107327000D01*
X163691301Y-107327000D01*
X163870396Y-107291376D01*
X164039099Y-107221496D01*
X164190928Y-107120048D01*
X164320048Y-106990928D01*
X164421496Y-106839099D01*
X164491376Y-106670396D01*
X164527000Y-106491301D01*
X164527000Y-106308699D01*
X164491376Y-106129604D01*
X164421496Y-105960901D01*
X164320048Y-105809072D01*
X164190928Y-105679952D01*
X164039099Y-105578504D01*
X163870396Y-105508624D01*
X163691301Y-105473000D01*
X163508699Y-105473000D01*
X163329604Y-105508624D01*
X163160901Y-105578504D01*
X163009072Y-105679952D01*
X162879952Y-105809072D01*
X162778504Y-105960901D01*
X162708624Y-106129604D01*
X162673000Y-106308699D01*
X142351807Y-106308699D01*
X142404494Y-106280537D01*
X142501185Y-106201185D01*
X142580537Y-106104494D01*
X142639502Y-105994180D01*
X142675812Y-105874482D01*
X142688072Y-105750000D01*
X142685000Y-105185750D01*
X142526250Y-105027000D01*
X141327000Y-105027000D01*
X141073000Y-105027000D01*
X139873750Y-105027000D01*
X139715000Y-105185750D01*
X139711928Y-105750000D01*
X94027373Y-105750000D01*
X94209586Y-105567787D01*
X94360282Y-105342254D01*
X94464083Y-105091656D01*
X94517000Y-104825623D01*
X94517000Y-104633321D01*
X108223000Y-104633321D01*
X108223000Y-104766679D01*
X108249016Y-104897474D01*
X108300050Y-105020680D01*
X108374140Y-105131563D01*
X108468437Y-105225860D01*
X108579320Y-105299950D01*
X108702526Y-105350984D01*
X108833321Y-105377000D01*
X108966679Y-105377000D01*
X109097474Y-105350984D01*
X109220680Y-105299950D01*
X109331563Y-105225860D01*
X109425860Y-105131563D01*
X109499950Y-105020680D01*
X109550984Y-104897474D01*
X109577000Y-104766679D01*
X109577000Y-104633321D01*
X109550984Y-104502526D01*
X109522319Y-104433321D01*
X110423000Y-104433321D01*
X110423000Y-104566679D01*
X110449016Y-104697474D01*
X110500050Y-104820680D01*
X110574140Y-104931563D01*
X110668437Y-105025860D01*
X110779320Y-105099950D01*
X110902526Y-105150984D01*
X111033321Y-105177000D01*
X111166679Y-105177000D01*
X111297474Y-105150984D01*
X111420680Y-105099950D01*
X111531563Y-105025860D01*
X111625860Y-104931563D01*
X111699950Y-104820680D01*
X111750984Y-104697474D01*
X111777000Y-104566679D01*
X111777000Y-104433321D01*
X111757110Y-104333321D01*
X117723000Y-104333321D01*
X117723000Y-104466679D01*
X117749016Y-104597474D01*
X117800050Y-104720680D01*
X117874140Y-104831563D01*
X117968437Y-104925860D01*
X118079320Y-104999950D01*
X118202526Y-105050984D01*
X118333321Y-105077000D01*
X118466679Y-105077000D01*
X118597474Y-105050984D01*
X118720680Y-104999950D01*
X118831563Y-104925860D01*
X118925860Y-104831563D01*
X118999950Y-104720680D01*
X119050984Y-104597474D01*
X119063744Y-104533321D01*
X129223000Y-104533321D01*
X129223000Y-104666679D01*
X129249016Y-104797474D01*
X129300050Y-104920680D01*
X129374140Y-105031563D01*
X129468437Y-105125860D01*
X129579320Y-105199950D01*
X129702526Y-105250984D01*
X129833321Y-105277000D01*
X129966679Y-105277000D01*
X130097474Y-105250984D01*
X130220680Y-105199950D01*
X130331563Y-105125860D01*
X130425860Y-105031563D01*
X130499950Y-104920680D01*
X130550984Y-104797474D01*
X130577000Y-104666679D01*
X130577000Y-104533321D01*
X130550984Y-104402526D01*
X130499950Y-104279320D01*
X130425860Y-104168437D01*
X130331563Y-104074140D01*
X130295436Y-104050000D01*
X139711928Y-104050000D01*
X139715000Y-104614250D01*
X139873750Y-104773000D01*
X141073000Y-104773000D01*
X141073000Y-104753000D01*
X141327000Y-104753000D01*
X141327000Y-104773000D01*
X142526250Y-104773000D01*
X142685000Y-104614250D01*
X142688072Y-104050000D01*
X142675812Y-103925518D01*
X142639502Y-103805820D01*
X142580537Y-103695506D01*
X142501185Y-103598815D01*
X142404494Y-103519463D01*
X142294180Y-103460498D01*
X142174482Y-103424188D01*
X142050000Y-103411928D01*
X141923185Y-103412618D01*
X142014040Y-103351911D01*
X142191911Y-103174040D01*
X142331663Y-102964886D01*
X142427926Y-102732487D01*
X142477000Y-102485774D01*
X142477000Y-102234226D01*
X142427926Y-101987513D01*
X142331663Y-101755114D01*
X142191911Y-101545960D01*
X142014040Y-101368089D01*
X141804886Y-101228337D01*
X141572487Y-101132074D01*
X141360966Y-101090000D01*
X141572487Y-101047926D01*
X141804886Y-100951663D01*
X142014040Y-100811911D01*
X142191911Y-100634040D01*
X142331663Y-100424886D01*
X142427926Y-100192487D01*
X142477000Y-99945774D01*
X142477000Y-99694226D01*
X142427926Y-99447513D01*
X142331663Y-99215114D01*
X142191911Y-99005960D01*
X142014040Y-98828089D01*
X141835360Y-98708699D01*
X152073000Y-98708699D01*
X152073000Y-98891301D01*
X152108624Y-99070396D01*
X152178504Y-99239099D01*
X152279952Y-99390928D01*
X152409072Y-99520048D01*
X152560901Y-99621496D01*
X152729604Y-99691376D01*
X152908699Y-99727000D01*
X153091301Y-99727000D01*
X153270396Y-99691376D01*
X153439099Y-99621496D01*
X153590928Y-99520048D01*
X153720048Y-99390928D01*
X153821496Y-99239099D01*
X153891376Y-99070396D01*
X153927000Y-98891301D01*
X153927000Y-98708699D01*
X153891376Y-98529604D01*
X153821496Y-98360901D01*
X153720048Y-98209072D01*
X153590928Y-98079952D01*
X153439099Y-97978504D01*
X153270396Y-97908624D01*
X153091301Y-97873000D01*
X152908699Y-97873000D01*
X152729604Y-97908624D01*
X152560901Y-97978504D01*
X152409072Y-98079952D01*
X152279952Y-98209072D01*
X152178504Y-98360901D01*
X152108624Y-98529604D01*
X152073000Y-98708699D01*
X141835360Y-98708699D01*
X141804886Y-98688337D01*
X141572487Y-98592074D01*
X141360966Y-98550000D01*
X141572487Y-98507926D01*
X141804886Y-98411663D01*
X142014040Y-98271911D01*
X142191911Y-98094040D01*
X142331663Y-97884886D01*
X142427926Y-97652487D01*
X142477000Y-97405774D01*
X142477000Y-97154226D01*
X142467945Y-97108699D01*
X144773000Y-97108699D01*
X144773000Y-97291301D01*
X144808624Y-97470396D01*
X144878504Y-97639099D01*
X144979952Y-97790928D01*
X145109072Y-97920048D01*
X145260901Y-98021496D01*
X145429604Y-98091376D01*
X145608699Y-98127000D01*
X145791301Y-98127000D01*
X145970396Y-98091376D01*
X146139099Y-98021496D01*
X146290928Y-97920048D01*
X146420048Y-97790928D01*
X146521496Y-97639099D01*
X146591376Y-97470396D01*
X146627000Y-97291301D01*
X146627000Y-97108699D01*
X146591376Y-96929604D01*
X146521496Y-96760901D01*
X146420048Y-96609072D01*
X146290928Y-96479952D01*
X146139099Y-96378504D01*
X145970396Y-96308624D01*
X145791301Y-96273000D01*
X145608699Y-96273000D01*
X145429604Y-96308624D01*
X145260901Y-96378504D01*
X145109072Y-96479952D01*
X144979952Y-96609072D01*
X144878504Y-96760901D01*
X144808624Y-96929604D01*
X144773000Y-97108699D01*
X142467945Y-97108699D01*
X142427926Y-96907513D01*
X142331663Y-96675114D01*
X142191911Y-96465960D01*
X142014040Y-96288089D01*
X141804886Y-96148337D01*
X141572487Y-96052074D01*
X141360966Y-96010000D01*
X141572487Y-95967926D01*
X141804886Y-95871663D01*
X142014040Y-95731911D01*
X142191911Y-95554040D01*
X142331663Y-95344886D01*
X142427926Y-95112487D01*
X142477000Y-94865774D01*
X142477000Y-94614226D01*
X142427926Y-94367513D01*
X142331663Y-94135114D01*
X142191911Y-93925960D01*
X142014040Y-93748089D01*
X141804886Y-93608337D01*
X141572487Y-93512074D01*
X141360966Y-93470000D01*
X141572487Y-93427926D01*
X141804886Y-93331663D01*
X142014040Y-93191911D01*
X142191911Y-93014040D01*
X142331663Y-92804886D01*
X142427926Y-92572487D01*
X142477000Y-92325774D01*
X142477000Y-92074226D01*
X142444075Y-91908699D01*
X155373000Y-91908699D01*
X155373000Y-92091301D01*
X155408624Y-92270396D01*
X155478504Y-92439099D01*
X155579952Y-92590928D01*
X155709072Y-92720048D01*
X155860901Y-92821496D01*
X156029604Y-92891376D01*
X156208699Y-92927000D01*
X156391301Y-92927000D01*
X156570396Y-92891376D01*
X156739099Y-92821496D01*
X156890928Y-92720048D01*
X157020048Y-92590928D01*
X157121496Y-92439099D01*
X157191376Y-92270396D01*
X157227000Y-92091301D01*
X157227000Y-91908699D01*
X157191376Y-91729604D01*
X157121496Y-91560901D01*
X157020048Y-91409072D01*
X156890928Y-91279952D01*
X156739099Y-91178504D01*
X156570396Y-91108624D01*
X156391301Y-91073000D01*
X156208699Y-91073000D01*
X156029604Y-91108624D01*
X155860901Y-91178504D01*
X155709072Y-91279952D01*
X155579952Y-91409072D01*
X155478504Y-91560901D01*
X155408624Y-91729604D01*
X155373000Y-91908699D01*
X142444075Y-91908699D01*
X142427926Y-91827513D01*
X142331663Y-91595114D01*
X142191911Y-91385960D01*
X142014040Y-91208089D01*
X141804886Y-91068337D01*
X141572487Y-90972074D01*
X141325774Y-90923000D01*
X141074226Y-90923000D01*
X140827513Y-90972074D01*
X140595114Y-91068337D01*
X140385960Y-91208089D01*
X140208089Y-91385960D01*
X140068337Y-91595114D01*
X139972074Y-91827513D01*
X139923000Y-92074226D01*
X139923000Y-92325774D01*
X139972074Y-92572487D01*
X140068337Y-92804886D01*
X140208089Y-93014040D01*
X140385960Y-93191911D01*
X140595114Y-93331663D01*
X140827513Y-93427926D01*
X141039034Y-93470000D01*
X140827513Y-93512074D01*
X140595114Y-93608337D01*
X140385960Y-93748089D01*
X140208089Y-93925960D01*
X140068337Y-94135114D01*
X139972074Y-94367513D01*
X139923000Y-94614226D01*
X139923000Y-94865774D01*
X139972074Y-95112487D01*
X140068337Y-95344886D01*
X140208089Y-95554040D01*
X140385960Y-95731911D01*
X140595114Y-95871663D01*
X140827513Y-95967926D01*
X141039034Y-96010000D01*
X140827513Y-96052074D01*
X140595114Y-96148337D01*
X140385960Y-96288089D01*
X140208089Y-96465960D01*
X140068337Y-96675114D01*
X139972074Y-96907513D01*
X139923000Y-97154226D01*
X139923000Y-97405774D01*
X139972074Y-97652487D01*
X140068337Y-97884886D01*
X140208089Y-98094040D01*
X140385960Y-98271911D01*
X140595114Y-98411663D01*
X140827513Y-98507926D01*
X141039034Y-98550000D01*
X140827513Y-98592074D01*
X140595114Y-98688337D01*
X140385960Y-98828089D01*
X140208089Y-99005960D01*
X140068337Y-99215114D01*
X139972074Y-99447513D01*
X139923000Y-99694226D01*
X139923000Y-99945774D01*
X139972074Y-100192487D01*
X140068337Y-100424886D01*
X140208089Y-100634040D01*
X140385960Y-100811911D01*
X140595114Y-100951663D01*
X140827513Y-101047926D01*
X141039034Y-101090000D01*
X140827513Y-101132074D01*
X140595114Y-101228337D01*
X140385960Y-101368089D01*
X140208089Y-101545960D01*
X140068337Y-101755114D01*
X139972074Y-101987513D01*
X139923000Y-102234226D01*
X139923000Y-102485774D01*
X139972074Y-102732487D01*
X140068337Y-102964886D01*
X140208089Y-103174040D01*
X140385960Y-103351911D01*
X140476815Y-103412618D01*
X140350000Y-103411928D01*
X140225518Y-103424188D01*
X140105820Y-103460498D01*
X139995506Y-103519463D01*
X139898815Y-103598815D01*
X139819463Y-103695506D01*
X139760498Y-103805820D01*
X139724188Y-103925518D01*
X139711928Y-104050000D01*
X130295436Y-104050000D01*
X130220680Y-104000050D01*
X130097474Y-103949016D01*
X129966679Y-103923000D01*
X129833321Y-103923000D01*
X129702526Y-103949016D01*
X129579320Y-104000050D01*
X129468437Y-104074140D01*
X129374140Y-104168437D01*
X129300050Y-104279320D01*
X129249016Y-104402526D01*
X129223000Y-104533321D01*
X119063744Y-104533321D01*
X119077000Y-104466679D01*
X119077000Y-104333321D01*
X119062025Y-104258035D01*
X119097474Y-104250984D01*
X119220680Y-104199950D01*
X119331563Y-104125860D01*
X119425860Y-104031563D01*
X119499950Y-103920680D01*
X119550984Y-103797474D01*
X119577000Y-103666679D01*
X119577000Y-103533321D01*
X119550984Y-103402526D01*
X119499950Y-103279320D01*
X119425860Y-103168437D01*
X119331563Y-103074140D01*
X119220680Y-103000050D01*
X119097474Y-102949016D01*
X118966679Y-102923000D01*
X118833321Y-102923000D01*
X118702526Y-102949016D01*
X118579320Y-103000050D01*
X118468437Y-103074140D01*
X118374140Y-103168437D01*
X118300050Y-103279320D01*
X118249016Y-103402526D01*
X118223000Y-103533321D01*
X118223000Y-103666679D01*
X118237975Y-103741965D01*
X118202526Y-103749016D01*
X118079320Y-103800050D01*
X117968437Y-103874140D01*
X117874140Y-103968437D01*
X117800050Y-104079320D01*
X117749016Y-104202526D01*
X117723000Y-104333321D01*
X111757110Y-104333321D01*
X111750984Y-104302526D01*
X111699950Y-104179320D01*
X111625860Y-104068437D01*
X111531563Y-103974140D01*
X111420680Y-103900050D01*
X111297474Y-103849016D01*
X111166679Y-103823000D01*
X111033321Y-103823000D01*
X110902526Y-103849016D01*
X110779320Y-103900050D01*
X110668437Y-103974140D01*
X110574140Y-104068437D01*
X110500050Y-104179320D01*
X110449016Y-104302526D01*
X110423000Y-104433321D01*
X109522319Y-104433321D01*
X109499950Y-104379320D01*
X109425860Y-104268437D01*
X109331563Y-104174140D01*
X109220680Y-104100050D01*
X109097474Y-104049016D01*
X108966679Y-104023000D01*
X108833321Y-104023000D01*
X108702526Y-104049016D01*
X108579320Y-104100050D01*
X108468437Y-104174140D01*
X108374140Y-104268437D01*
X108300050Y-104379320D01*
X108249016Y-104502526D01*
X108223000Y-104633321D01*
X94517000Y-104633321D01*
X94517000Y-104554377D01*
X94464083Y-104288344D01*
X94360282Y-104037746D01*
X94209586Y-103812213D01*
X94017787Y-103620414D01*
X93792254Y-103469718D01*
X93672224Y-103420000D01*
X93792254Y-103370282D01*
X94017787Y-103219586D01*
X94116552Y-103120821D01*
X105435500Y-103120821D01*
X105435500Y-103254179D01*
X105461516Y-103384974D01*
X105512550Y-103508180D01*
X105586640Y-103619063D01*
X105680937Y-103713360D01*
X105791820Y-103787450D01*
X105915026Y-103838484D01*
X106045821Y-103864500D01*
X106179179Y-103864500D01*
X106309974Y-103838484D01*
X106433180Y-103787450D01*
X106544063Y-103713360D01*
X106638360Y-103619063D01*
X106712450Y-103508180D01*
X106763484Y-103384974D01*
X106789500Y-103254179D01*
X106789500Y-103120821D01*
X106763484Y-102990026D01*
X106712450Y-102866820D01*
X106638360Y-102755937D01*
X106544063Y-102661640D01*
X106433180Y-102587550D01*
X106309974Y-102536516D01*
X106293912Y-102533321D01*
X110423000Y-102533321D01*
X110423000Y-102666679D01*
X110449016Y-102797474D01*
X110500050Y-102920680D01*
X110574140Y-103031563D01*
X110668437Y-103125860D01*
X110779320Y-103199950D01*
X110902526Y-103250984D01*
X111033321Y-103277000D01*
X111166679Y-103277000D01*
X111297474Y-103250984D01*
X111420680Y-103199950D01*
X111531563Y-103125860D01*
X111625860Y-103031563D01*
X111699950Y-102920680D01*
X111750984Y-102797474D01*
X111763744Y-102733321D01*
X114423000Y-102733321D01*
X114423000Y-102866679D01*
X114449016Y-102997474D01*
X114500050Y-103120680D01*
X114574140Y-103231563D01*
X114668437Y-103325860D01*
X114779320Y-103399950D01*
X114902526Y-103450984D01*
X115033321Y-103477000D01*
X115166679Y-103477000D01*
X115297474Y-103450984D01*
X115420680Y-103399950D01*
X115531563Y-103325860D01*
X115625860Y-103231563D01*
X115699950Y-103120680D01*
X115750984Y-102997474D01*
X115777000Y-102866679D01*
X115777000Y-102733321D01*
X115750984Y-102602526D01*
X115699950Y-102479320D01*
X115625860Y-102368437D01*
X115531563Y-102274140D01*
X115420680Y-102200050D01*
X115297474Y-102149016D01*
X115166679Y-102123000D01*
X115033321Y-102123000D01*
X114902526Y-102149016D01*
X114779320Y-102200050D01*
X114668437Y-102274140D01*
X114574140Y-102368437D01*
X114500050Y-102479320D01*
X114449016Y-102602526D01*
X114423000Y-102733321D01*
X111763744Y-102733321D01*
X111777000Y-102666679D01*
X111777000Y-102533321D01*
X111750984Y-102402526D01*
X111699950Y-102279320D01*
X111625860Y-102168437D01*
X111531563Y-102074140D01*
X111420680Y-102000050D01*
X111297474Y-101949016D01*
X111218568Y-101933321D01*
X118723000Y-101933321D01*
X118723000Y-102066679D01*
X118749016Y-102197474D01*
X118800050Y-102320680D01*
X118874140Y-102431563D01*
X118968437Y-102525860D01*
X119079320Y-102599950D01*
X119202526Y-102650984D01*
X119333321Y-102677000D01*
X119466679Y-102677000D01*
X119597474Y-102650984D01*
X119720680Y-102599950D01*
X119831563Y-102525860D01*
X119925860Y-102431563D01*
X119999950Y-102320680D01*
X120050984Y-102197474D01*
X120077000Y-102066679D01*
X120077000Y-101933321D01*
X120050984Y-101802526D01*
X119999950Y-101679320D01*
X119925860Y-101568437D01*
X119831563Y-101474140D01*
X119720680Y-101400050D01*
X119597474Y-101349016D01*
X119466679Y-101323000D01*
X119333321Y-101323000D01*
X119202526Y-101349016D01*
X119079320Y-101400050D01*
X118968437Y-101474140D01*
X118874140Y-101568437D01*
X118800050Y-101679320D01*
X118749016Y-101802526D01*
X118723000Y-101933321D01*
X111218568Y-101933321D01*
X111166679Y-101923000D01*
X111033321Y-101923000D01*
X110902526Y-101949016D01*
X110779320Y-102000050D01*
X110668437Y-102074140D01*
X110574140Y-102168437D01*
X110500050Y-102279320D01*
X110449016Y-102402526D01*
X110423000Y-102533321D01*
X106293912Y-102533321D01*
X106179179Y-102510500D01*
X106045821Y-102510500D01*
X105915026Y-102536516D01*
X105791820Y-102587550D01*
X105680937Y-102661640D01*
X105586640Y-102755937D01*
X105512550Y-102866820D01*
X105461516Y-102990026D01*
X105435500Y-103120821D01*
X94116552Y-103120821D01*
X94209586Y-103027787D01*
X94360282Y-102802254D01*
X94464083Y-102551656D01*
X94517000Y-102285623D01*
X94517000Y-102014377D01*
X94464083Y-101748344D01*
X94380196Y-101545821D01*
X100610500Y-101545821D01*
X100610500Y-101679179D01*
X100636516Y-101809974D01*
X100687550Y-101933180D01*
X100761640Y-102044063D01*
X100855937Y-102138360D01*
X100966820Y-102212450D01*
X101090026Y-102263484D01*
X101220821Y-102289500D01*
X101354179Y-102289500D01*
X101484974Y-102263484D01*
X101608180Y-102212450D01*
X101719063Y-102138360D01*
X101813360Y-102044063D01*
X101887450Y-101933180D01*
X101938484Y-101809974D01*
X101964500Y-101679179D01*
X101964500Y-101545821D01*
X101938484Y-101415026D01*
X101887450Y-101291820D01*
X101813360Y-101180937D01*
X101765744Y-101133321D01*
X123623000Y-101133321D01*
X123623000Y-101266679D01*
X123649016Y-101397474D01*
X123700050Y-101520680D01*
X123774140Y-101631563D01*
X123868437Y-101725860D01*
X123979320Y-101799950D01*
X124102526Y-101850984D01*
X124233321Y-101877000D01*
X124366679Y-101877000D01*
X124497474Y-101850984D01*
X124620680Y-101799950D01*
X124731563Y-101725860D01*
X124825860Y-101631563D01*
X124899950Y-101520680D01*
X124950984Y-101397474D01*
X124977000Y-101266679D01*
X124977000Y-101133321D01*
X124950984Y-101002526D01*
X124899950Y-100879320D01*
X124825860Y-100768437D01*
X124731563Y-100674140D01*
X124620680Y-100600050D01*
X124497474Y-100549016D01*
X124366679Y-100523000D01*
X124233321Y-100523000D01*
X124102526Y-100549016D01*
X123979320Y-100600050D01*
X123868437Y-100674140D01*
X123774140Y-100768437D01*
X123700050Y-100879320D01*
X123649016Y-101002526D01*
X123623000Y-101133321D01*
X101765744Y-101133321D01*
X101719063Y-101086640D01*
X101608180Y-101012550D01*
X101484974Y-100961516D01*
X101354179Y-100935500D01*
X101220821Y-100935500D01*
X101090026Y-100961516D01*
X100966820Y-101012550D01*
X100855937Y-101086640D01*
X100761640Y-101180937D01*
X100687550Y-101291820D01*
X100636516Y-101415026D01*
X100610500Y-101545821D01*
X94380196Y-101545821D01*
X94360282Y-101497746D01*
X94209586Y-101272213D01*
X94017787Y-101080414D01*
X93792254Y-100929718D01*
X93672224Y-100880000D01*
X93792254Y-100830282D01*
X94017787Y-100679586D01*
X94209586Y-100487787D01*
X94360282Y-100262254D01*
X94464083Y-100011656D01*
X94517000Y-99745623D01*
X94517000Y-99474377D01*
X94464083Y-99208344D01*
X94360282Y-98957746D01*
X94209586Y-98732213D01*
X94017787Y-98540414D01*
X93792254Y-98389718D01*
X93672224Y-98340000D01*
X93792254Y-98290282D01*
X94017787Y-98139586D01*
X94209586Y-97947787D01*
X94352887Y-97733321D01*
X114323000Y-97733321D01*
X114323000Y-97866679D01*
X114349016Y-97997474D01*
X114400050Y-98120680D01*
X114474140Y-98231563D01*
X114542577Y-98300000D01*
X114474140Y-98368437D01*
X114400050Y-98479320D01*
X114349016Y-98602526D01*
X114323000Y-98733321D01*
X114323000Y-98866679D01*
X114349016Y-98997474D01*
X114400050Y-99120680D01*
X114474140Y-99231563D01*
X114568437Y-99325860D01*
X114679320Y-99399950D01*
X114802526Y-99450984D01*
X114933321Y-99477000D01*
X115066679Y-99477000D01*
X115197474Y-99450984D01*
X115320680Y-99399950D01*
X115431563Y-99325860D01*
X115525860Y-99231563D01*
X115599950Y-99120680D01*
X115650984Y-98997474D01*
X115677000Y-98866679D01*
X115677000Y-98733321D01*
X118723000Y-98733321D01*
X118723000Y-98866679D01*
X118749016Y-98997474D01*
X118800050Y-99120680D01*
X118874140Y-99231563D01*
X118968437Y-99325860D01*
X119079320Y-99399950D01*
X119202526Y-99450984D01*
X119333321Y-99477000D01*
X119466679Y-99477000D01*
X119597474Y-99450984D01*
X119720680Y-99399950D01*
X119831563Y-99325860D01*
X119925860Y-99231563D01*
X119999950Y-99120680D01*
X120050984Y-98997474D01*
X120077000Y-98866679D01*
X120077000Y-98833321D01*
X124223000Y-98833321D01*
X124223000Y-98966679D01*
X124249016Y-99097474D01*
X124300050Y-99220680D01*
X124374140Y-99331563D01*
X124468437Y-99425860D01*
X124579320Y-99499950D01*
X124702526Y-99550984D01*
X124833321Y-99577000D01*
X124966679Y-99577000D01*
X125097474Y-99550984D01*
X125220680Y-99499950D01*
X125331563Y-99425860D01*
X125425860Y-99331563D01*
X125499950Y-99220680D01*
X125550984Y-99097474D01*
X125577000Y-98966679D01*
X125577000Y-98833321D01*
X125550984Y-98702526D01*
X125499950Y-98579320D01*
X125425860Y-98468437D01*
X125331563Y-98374140D01*
X125220680Y-98300050D01*
X125097474Y-98249016D01*
X124966679Y-98223000D01*
X124833321Y-98223000D01*
X124702526Y-98249016D01*
X124579320Y-98300050D01*
X124468437Y-98374140D01*
X124374140Y-98468437D01*
X124300050Y-98579320D01*
X124249016Y-98702526D01*
X124223000Y-98833321D01*
X120077000Y-98833321D01*
X120077000Y-98733321D01*
X120050984Y-98602526D01*
X119999950Y-98479320D01*
X119972785Y-98438665D01*
X120002526Y-98450984D01*
X120133321Y-98477000D01*
X120266679Y-98477000D01*
X120397474Y-98450984D01*
X120520680Y-98399950D01*
X120631563Y-98325860D01*
X120725860Y-98231563D01*
X120799950Y-98120680D01*
X120850984Y-97997474D01*
X120877000Y-97866679D01*
X120877000Y-97733321D01*
X120850984Y-97602526D01*
X120822319Y-97533321D01*
X124723000Y-97533321D01*
X124723000Y-97666679D01*
X124749016Y-97797474D01*
X124800050Y-97920680D01*
X124874140Y-98031563D01*
X124968437Y-98125860D01*
X125079320Y-98199950D01*
X125202526Y-98250984D01*
X125333321Y-98277000D01*
X125466679Y-98277000D01*
X125597474Y-98250984D01*
X125720680Y-98199950D01*
X125831563Y-98125860D01*
X125925860Y-98031563D01*
X125999950Y-97920680D01*
X126050984Y-97797474D01*
X126077000Y-97666679D01*
X126077000Y-97533321D01*
X126050984Y-97402526D01*
X125999950Y-97279320D01*
X125925860Y-97168437D01*
X125831563Y-97074140D01*
X125720680Y-97000050D01*
X125597474Y-96949016D01*
X125466679Y-96923000D01*
X125333321Y-96923000D01*
X125202526Y-96949016D01*
X125079320Y-97000050D01*
X124968437Y-97074140D01*
X124874140Y-97168437D01*
X124800050Y-97279320D01*
X124749016Y-97402526D01*
X124723000Y-97533321D01*
X120822319Y-97533321D01*
X120799950Y-97479320D01*
X120725860Y-97368437D01*
X120631563Y-97274140D01*
X120520680Y-97200050D01*
X120397474Y-97149016D01*
X120266679Y-97123000D01*
X120133321Y-97123000D01*
X120002526Y-97149016D01*
X119879320Y-97200050D01*
X119768437Y-97274140D01*
X119674140Y-97368437D01*
X119600050Y-97479320D01*
X119549016Y-97602526D01*
X119523000Y-97733321D01*
X119523000Y-97866679D01*
X119549016Y-97997474D01*
X119600050Y-98120680D01*
X119627215Y-98161335D01*
X119597474Y-98149016D01*
X119466679Y-98123000D01*
X119333321Y-98123000D01*
X119202526Y-98149016D01*
X119079320Y-98200050D01*
X118968437Y-98274140D01*
X118874140Y-98368437D01*
X118800050Y-98479320D01*
X118749016Y-98602526D01*
X118723000Y-98733321D01*
X115677000Y-98733321D01*
X115650984Y-98602526D01*
X115599950Y-98479320D01*
X115525860Y-98368437D01*
X115457423Y-98300000D01*
X115525860Y-98231563D01*
X115599950Y-98120680D01*
X115650984Y-97997474D01*
X115677000Y-97866679D01*
X115677000Y-97733321D01*
X115650984Y-97602526D01*
X115599950Y-97479320D01*
X115525860Y-97368437D01*
X115431563Y-97274140D01*
X115320680Y-97200050D01*
X115197474Y-97149016D01*
X115066679Y-97123000D01*
X114933321Y-97123000D01*
X114802526Y-97149016D01*
X114679320Y-97200050D01*
X114568437Y-97274140D01*
X114474140Y-97368437D01*
X114400050Y-97479320D01*
X114349016Y-97602526D01*
X114323000Y-97733321D01*
X94352887Y-97733321D01*
X94360282Y-97722254D01*
X94464083Y-97471656D01*
X94517000Y-97205623D01*
X94517000Y-96934377D01*
X94464083Y-96668344D01*
X94360282Y-96417746D01*
X94209586Y-96192213D01*
X94150694Y-96133321D01*
X125723000Y-96133321D01*
X125723000Y-96266679D01*
X125749016Y-96397474D01*
X125800050Y-96520680D01*
X125874140Y-96631563D01*
X125968437Y-96725860D01*
X126079320Y-96799950D01*
X126202526Y-96850984D01*
X126333321Y-96877000D01*
X126466679Y-96877000D01*
X126597474Y-96850984D01*
X126720680Y-96799950D01*
X126831563Y-96725860D01*
X126925860Y-96631563D01*
X126999950Y-96520680D01*
X127050984Y-96397474D01*
X127077000Y-96266679D01*
X127077000Y-96133321D01*
X127068989Y-96093047D01*
X127079320Y-96099950D01*
X127202526Y-96150984D01*
X127333321Y-96177000D01*
X127466679Y-96177000D01*
X127597474Y-96150984D01*
X127720680Y-96099950D01*
X127831563Y-96025860D01*
X127925860Y-95931563D01*
X127999950Y-95820680D01*
X128050984Y-95697474D01*
X128077000Y-95566679D01*
X128077000Y-95433321D01*
X129823000Y-95433321D01*
X129823000Y-95566679D01*
X129849016Y-95697474D01*
X129900050Y-95820680D01*
X129974140Y-95931563D01*
X130068437Y-96025860D01*
X130179320Y-96099950D01*
X130302526Y-96150984D01*
X130433321Y-96177000D01*
X130566679Y-96177000D01*
X130697474Y-96150984D01*
X130820680Y-96099950D01*
X130931563Y-96025860D01*
X131025860Y-95931563D01*
X131099950Y-95820680D01*
X131150984Y-95697474D01*
X131177000Y-95566679D01*
X131177000Y-95433321D01*
X131150984Y-95302526D01*
X131099950Y-95179320D01*
X131025860Y-95068437D01*
X130931563Y-94974140D01*
X130820680Y-94900050D01*
X130697474Y-94849016D01*
X130566679Y-94823000D01*
X130433321Y-94823000D01*
X130302526Y-94849016D01*
X130179320Y-94900050D01*
X130068437Y-94974140D01*
X129974140Y-95068437D01*
X129900050Y-95179320D01*
X129849016Y-95302526D01*
X129823000Y-95433321D01*
X128077000Y-95433321D01*
X128050984Y-95302526D01*
X127999950Y-95179320D01*
X127925860Y-95068437D01*
X127831563Y-94974140D01*
X127720680Y-94900050D01*
X127597474Y-94849016D01*
X127466679Y-94823000D01*
X127333321Y-94823000D01*
X127202526Y-94849016D01*
X127079320Y-94900050D01*
X126968437Y-94974140D01*
X126874140Y-95068437D01*
X126800050Y-95179320D01*
X126749016Y-95302526D01*
X126723000Y-95433321D01*
X126723000Y-95566679D01*
X126731011Y-95606953D01*
X126720680Y-95600050D01*
X126597474Y-95549016D01*
X126466679Y-95523000D01*
X126333321Y-95523000D01*
X126202526Y-95549016D01*
X126079320Y-95600050D01*
X125968437Y-95674140D01*
X125874140Y-95768437D01*
X125800050Y-95879320D01*
X125749016Y-96002526D01*
X125723000Y-96133321D01*
X94150694Y-96133321D01*
X94017787Y-96000414D01*
X93792254Y-95849718D01*
X93541656Y-95745917D01*
X93275623Y-95693000D01*
X93004377Y-95693000D01*
X92738344Y-95745917D01*
X92487746Y-95849718D01*
X92262213Y-96000414D01*
X92070414Y-96192213D01*
X91979066Y-96328925D01*
X91979066Y-94933321D01*
X110523000Y-94933321D01*
X110523000Y-95066679D01*
X110549016Y-95197474D01*
X110600050Y-95320680D01*
X110674140Y-95431563D01*
X110768437Y-95525860D01*
X110879320Y-95599950D01*
X111002526Y-95650984D01*
X111133321Y-95677000D01*
X111266679Y-95677000D01*
X111397474Y-95650984D01*
X111520680Y-95599950D01*
X111631563Y-95525860D01*
X111725860Y-95431563D01*
X111799950Y-95320680D01*
X111850984Y-95197474D01*
X111877000Y-95066679D01*
X111877000Y-94933321D01*
X111850984Y-94802526D01*
X111799950Y-94679320D01*
X111725860Y-94568437D01*
X111631563Y-94474140D01*
X111520680Y-94400050D01*
X111397474Y-94349016D01*
X111266679Y-94323000D01*
X111133321Y-94323000D01*
X111002526Y-94349016D01*
X110879320Y-94400050D01*
X110768437Y-94474140D01*
X110674140Y-94568437D01*
X110600050Y-94679320D01*
X110549016Y-94802526D01*
X110523000Y-94933321D01*
X91979066Y-94933321D01*
X91979066Y-94850000D01*
X91970822Y-94766293D01*
X91946405Y-94685804D01*
X91906755Y-94611624D01*
X91853395Y-94546605D01*
X91788376Y-94493245D01*
X91714196Y-94453595D01*
X91633707Y-94429178D01*
X91550000Y-94420934D01*
X89650000Y-94420934D01*
X89566293Y-94429178D01*
X89485804Y-94453595D01*
X89411624Y-94493245D01*
X89346605Y-94546605D01*
X89293245Y-94611624D01*
X89253595Y-94685804D01*
X89229178Y-94766293D01*
X89220934Y-94850000D01*
X86288549Y-94850000D01*
X86312000Y-94732104D01*
X86312000Y-94327896D01*
X86233143Y-93931454D01*
X86165286Y-93767632D01*
X86209102Y-93811448D01*
X86491959Y-94000447D01*
X86806253Y-94130632D01*
X87139905Y-94197000D01*
X87480095Y-94197000D01*
X87813747Y-94130632D01*
X88128041Y-94000447D01*
X88410898Y-93811448D01*
X88651448Y-93570898D01*
X88840447Y-93288041D01*
X88904534Y-93133321D01*
X97823000Y-93133321D01*
X97823000Y-93266679D01*
X97849016Y-93397474D01*
X97900050Y-93520680D01*
X97974140Y-93631563D01*
X98068437Y-93725860D01*
X98179320Y-93799950D01*
X98302526Y-93850984D01*
X98433321Y-93877000D01*
X98566679Y-93877000D01*
X98697474Y-93850984D01*
X98820680Y-93799950D01*
X98920396Y-93733321D01*
X103823000Y-93733321D01*
X103823000Y-93866679D01*
X103849016Y-93997474D01*
X103900050Y-94120680D01*
X103974140Y-94231563D01*
X104068437Y-94325860D01*
X104179320Y-94399950D01*
X104302526Y-94450984D01*
X104433321Y-94477000D01*
X104566679Y-94477000D01*
X104697474Y-94450984D01*
X104820680Y-94399950D01*
X104931563Y-94325860D01*
X105025860Y-94231563D01*
X105099950Y-94120680D01*
X105150984Y-93997474D01*
X105177000Y-93866679D01*
X105177000Y-93831582D01*
X105279320Y-93899950D01*
X105402526Y-93950984D01*
X105423000Y-93955056D01*
X105423000Y-93966679D01*
X105449016Y-94097474D01*
X105500050Y-94220680D01*
X105574140Y-94331563D01*
X105668437Y-94425860D01*
X105779320Y-94499950D01*
X105902526Y-94550984D01*
X106033321Y-94577000D01*
X106166679Y-94577000D01*
X106297474Y-94550984D01*
X106420680Y-94499950D01*
X106531563Y-94425860D01*
X106625860Y-94331563D01*
X106699950Y-94220680D01*
X106750984Y-94097474D01*
X106777000Y-93966679D01*
X106777000Y-93833321D01*
X106750984Y-93702526D01*
X106699950Y-93579320D01*
X106625860Y-93468437D01*
X106590744Y-93433321D01*
X110423000Y-93433321D01*
X110423000Y-93566679D01*
X110449016Y-93697474D01*
X110500050Y-93820680D01*
X110574140Y-93931563D01*
X110668437Y-94025860D01*
X110779320Y-94099950D01*
X110902526Y-94150984D01*
X111033321Y-94177000D01*
X111166679Y-94177000D01*
X111297474Y-94150984D01*
X111420680Y-94099950D01*
X111531563Y-94025860D01*
X111625860Y-93931563D01*
X111699950Y-93820680D01*
X111750984Y-93697474D01*
X111777000Y-93566679D01*
X111777000Y-93433321D01*
X111750984Y-93302526D01*
X111699950Y-93179320D01*
X111625860Y-93068437D01*
X111531563Y-92974140D01*
X111470474Y-92933321D01*
X117623000Y-92933321D01*
X117623000Y-93066679D01*
X117649016Y-93197474D01*
X117700050Y-93320680D01*
X117774140Y-93431563D01*
X117868437Y-93525860D01*
X117979320Y-93599950D01*
X118102526Y-93650984D01*
X118233321Y-93677000D01*
X118366679Y-93677000D01*
X118497474Y-93650984D01*
X118620680Y-93599950D01*
X118731563Y-93525860D01*
X118825860Y-93431563D01*
X118899950Y-93320680D01*
X118950984Y-93197474D01*
X118977000Y-93066679D01*
X118977000Y-92933321D01*
X118950984Y-92802526D01*
X118899950Y-92679320D01*
X118825860Y-92568437D01*
X118731563Y-92474140D01*
X118620680Y-92400050D01*
X118497474Y-92349016D01*
X118418568Y-92333321D01*
X120223000Y-92333321D01*
X120223000Y-92466679D01*
X120249016Y-92597474D01*
X120300050Y-92720680D01*
X120374140Y-92831563D01*
X120468437Y-92925860D01*
X120579320Y-92999950D01*
X120702526Y-93050984D01*
X120833321Y-93077000D01*
X120966679Y-93077000D01*
X121097474Y-93050984D01*
X121220680Y-92999950D01*
X121331563Y-92925860D01*
X121425860Y-92831563D01*
X121499950Y-92720680D01*
X121550984Y-92597474D01*
X121577000Y-92466679D01*
X121577000Y-92333321D01*
X125223000Y-92333321D01*
X125223000Y-92466679D01*
X125249016Y-92597474D01*
X125300050Y-92720680D01*
X125374140Y-92831563D01*
X125468437Y-92925860D01*
X125579320Y-92999950D01*
X125702526Y-93050984D01*
X125833321Y-93077000D01*
X125966679Y-93077000D01*
X126097474Y-93050984D01*
X126220680Y-92999950D01*
X126320396Y-92933321D01*
X129823000Y-92933321D01*
X129823000Y-93066679D01*
X129849016Y-93197474D01*
X129900050Y-93320680D01*
X129974140Y-93431563D01*
X130068437Y-93525860D01*
X130179320Y-93599950D01*
X130302526Y-93650984D01*
X130433321Y-93677000D01*
X130566679Y-93677000D01*
X130697474Y-93650984D01*
X130820680Y-93599950D01*
X130931563Y-93525860D01*
X131025860Y-93431563D01*
X131099950Y-93320680D01*
X131150984Y-93197474D01*
X131177000Y-93066679D01*
X131177000Y-92933321D01*
X131150984Y-92802526D01*
X131099950Y-92679320D01*
X131025860Y-92568437D01*
X130931563Y-92474140D01*
X130870474Y-92433321D01*
X137123000Y-92433321D01*
X137123000Y-92566679D01*
X137149016Y-92697474D01*
X137200050Y-92820680D01*
X137274140Y-92931563D01*
X137368437Y-93025860D01*
X137479320Y-93099950D01*
X137602526Y-93150984D01*
X137733321Y-93177000D01*
X137866679Y-93177000D01*
X137997474Y-93150984D01*
X138120680Y-93099950D01*
X138231563Y-93025860D01*
X138325860Y-92931563D01*
X138399950Y-92820680D01*
X138450984Y-92697474D01*
X138477000Y-92566679D01*
X138477000Y-92433321D01*
X138450984Y-92302526D01*
X138399950Y-92179320D01*
X138325860Y-92068437D01*
X138231563Y-91974140D01*
X138120680Y-91900050D01*
X137997474Y-91849016D01*
X137866679Y-91823000D01*
X137733321Y-91823000D01*
X137602526Y-91849016D01*
X137479320Y-91900050D01*
X137368437Y-91974140D01*
X137274140Y-92068437D01*
X137200050Y-92179320D01*
X137149016Y-92302526D01*
X137123000Y-92433321D01*
X130870474Y-92433321D01*
X130820680Y-92400050D01*
X130697474Y-92349016D01*
X130566679Y-92323000D01*
X130433321Y-92323000D01*
X130302526Y-92349016D01*
X130179320Y-92400050D01*
X130068437Y-92474140D01*
X129974140Y-92568437D01*
X129900050Y-92679320D01*
X129849016Y-92802526D01*
X129823000Y-92933321D01*
X126320396Y-92933321D01*
X126331563Y-92925860D01*
X126425860Y-92831563D01*
X126499950Y-92720680D01*
X126550984Y-92597474D01*
X126577000Y-92466679D01*
X126577000Y-92333321D01*
X126550984Y-92202526D01*
X126499950Y-92079320D01*
X126425860Y-91968437D01*
X126331563Y-91874140D01*
X126220680Y-91800050D01*
X126097474Y-91749016D01*
X125966679Y-91723000D01*
X125833321Y-91723000D01*
X125702526Y-91749016D01*
X125579320Y-91800050D01*
X125468437Y-91874140D01*
X125374140Y-91968437D01*
X125300050Y-92079320D01*
X125249016Y-92202526D01*
X125223000Y-92333321D01*
X121577000Y-92333321D01*
X121550984Y-92202526D01*
X121499950Y-92079320D01*
X121425860Y-91968437D01*
X121331563Y-91874140D01*
X121220680Y-91800050D01*
X121097474Y-91749016D01*
X120966679Y-91723000D01*
X120833321Y-91723000D01*
X120702526Y-91749016D01*
X120579320Y-91800050D01*
X120468437Y-91874140D01*
X120374140Y-91968437D01*
X120300050Y-92079320D01*
X120249016Y-92202526D01*
X120223000Y-92333321D01*
X118418568Y-92333321D01*
X118366679Y-92323000D01*
X118233321Y-92323000D01*
X118102526Y-92349016D01*
X117979320Y-92400050D01*
X117868437Y-92474140D01*
X117774140Y-92568437D01*
X117700050Y-92679320D01*
X117649016Y-92802526D01*
X117623000Y-92933321D01*
X111470474Y-92933321D01*
X111420680Y-92900050D01*
X111297474Y-92849016D01*
X111166679Y-92823000D01*
X111033321Y-92823000D01*
X110902526Y-92849016D01*
X110779320Y-92900050D01*
X110668437Y-92974140D01*
X110574140Y-93068437D01*
X110500050Y-93179320D01*
X110449016Y-93302526D01*
X110423000Y-93433321D01*
X106590744Y-93433321D01*
X106531563Y-93374140D01*
X106420680Y-93300050D01*
X106297474Y-93249016D01*
X106277000Y-93244944D01*
X106277000Y-93233321D01*
X106250984Y-93102526D01*
X106199950Y-92979320D01*
X106125860Y-92868437D01*
X106031563Y-92774140D01*
X105920680Y-92700050D01*
X105797474Y-92649016D01*
X105777000Y-92644944D01*
X105777000Y-92533321D01*
X105750984Y-92402526D01*
X105699950Y-92279320D01*
X105625860Y-92168437D01*
X105531563Y-92074140D01*
X105420680Y-92000050D01*
X105297474Y-91949016D01*
X105166679Y-91923000D01*
X105033321Y-91923000D01*
X104902526Y-91949016D01*
X104779320Y-92000050D01*
X104668437Y-92074140D01*
X104574140Y-92168437D01*
X104500050Y-92279320D01*
X104449016Y-92402526D01*
X104423000Y-92533321D01*
X104423000Y-92666679D01*
X104449016Y-92797474D01*
X104500050Y-92920680D01*
X104574140Y-93031563D01*
X104668437Y-93125860D01*
X104712256Y-93155139D01*
X104697474Y-93149016D01*
X104566679Y-93123000D01*
X104433321Y-93123000D01*
X104302526Y-93149016D01*
X104179320Y-93200050D01*
X104068437Y-93274140D01*
X103974140Y-93368437D01*
X103900050Y-93479320D01*
X103849016Y-93602526D01*
X103823000Y-93733321D01*
X98920396Y-93733321D01*
X98931563Y-93725860D01*
X99025860Y-93631563D01*
X99099950Y-93520680D01*
X99150984Y-93397474D01*
X99177000Y-93266679D01*
X99177000Y-93133321D01*
X99150984Y-93002526D01*
X99099950Y-92879320D01*
X99025860Y-92768437D01*
X98931563Y-92674140D01*
X98820680Y-92600050D01*
X98697474Y-92549016D01*
X98566679Y-92523000D01*
X98433321Y-92523000D01*
X98302526Y-92549016D01*
X98179320Y-92600050D01*
X98068437Y-92674140D01*
X97974140Y-92768437D01*
X97900050Y-92879320D01*
X97849016Y-93002526D01*
X97823000Y-93133321D01*
X88904534Y-93133321D01*
X88970632Y-92973747D01*
X89037000Y-92640095D01*
X89037000Y-92299905D01*
X88970632Y-91966253D01*
X88840447Y-91651959D01*
X88651448Y-91369102D01*
X88410898Y-91128552D01*
X88128041Y-90939553D01*
X87871575Y-90833321D01*
X105123000Y-90833321D01*
X105123000Y-90966679D01*
X105149016Y-91097474D01*
X105200050Y-91220680D01*
X105274140Y-91331563D01*
X105368437Y-91425860D01*
X105479320Y-91499950D01*
X105602526Y-91550984D01*
X105733321Y-91577000D01*
X105866679Y-91577000D01*
X105997474Y-91550984D01*
X106120680Y-91499950D01*
X106231563Y-91425860D01*
X106325860Y-91331563D01*
X106399950Y-91220680D01*
X106450984Y-91097474D01*
X106477000Y-90966679D01*
X106477000Y-90833321D01*
X106450984Y-90702526D01*
X106399950Y-90579320D01*
X106325860Y-90468437D01*
X106231563Y-90374140D01*
X106120680Y-90300050D01*
X105997474Y-90249016D01*
X105866679Y-90223000D01*
X105733321Y-90223000D01*
X105602526Y-90249016D01*
X105479320Y-90300050D01*
X105368437Y-90374140D01*
X105274140Y-90468437D01*
X105200050Y-90579320D01*
X105149016Y-90702526D01*
X105123000Y-90833321D01*
X87871575Y-90833321D01*
X87813747Y-90809368D01*
X87480095Y-90743000D01*
X87139905Y-90743000D01*
X86806253Y-90809368D01*
X86491959Y-90939553D01*
X86209102Y-91128552D01*
X85968552Y-91369102D01*
X85779553Y-91651959D01*
X85649368Y-91966253D01*
X85583000Y-92299905D01*
X85583000Y-92640095D01*
X85649368Y-92973747D01*
X85680236Y-93048269D01*
X85568074Y-92936107D01*
X85231987Y-92711541D01*
X84858546Y-92556857D01*
X84462104Y-92478000D01*
X84057896Y-92478000D01*
X83661454Y-92556857D01*
X83288013Y-92711541D01*
X82951926Y-92936107D01*
X82666107Y-93221926D01*
X82441541Y-93558013D01*
X82286857Y-93931454D01*
X82208000Y-94327896D01*
X80886484Y-94327896D01*
X80928478Y-94165949D01*
X80946323Y-93855228D01*
X80903205Y-93546997D01*
X80800784Y-93253099D01*
X80714964Y-93092542D01*
X80456185Y-93003420D01*
X79539605Y-93920000D01*
X79180395Y-93920000D01*
X78263815Y-93003420D01*
X78005036Y-93092542D01*
X77869642Y-93372781D01*
X77791522Y-93674051D01*
X77773677Y-93984772D01*
X60452000Y-93984772D01*
X60452000Y-92823815D01*
X78443420Y-92823815D01*
X79360000Y-93740395D01*
X80276580Y-92823815D01*
X80187458Y-92565036D01*
X79907219Y-92429642D01*
X79605949Y-92351522D01*
X79295228Y-92333677D01*
X78986997Y-92376795D01*
X78693099Y-92479216D01*
X78532542Y-92565036D01*
X78443420Y-92823815D01*
X60452000Y-92823815D01*
X60452000Y-89933321D01*
X101223000Y-89933321D01*
X101223000Y-90066679D01*
X101249016Y-90197474D01*
X101300050Y-90320680D01*
X101374140Y-90431563D01*
X101468437Y-90525860D01*
X101579320Y-90599950D01*
X101702526Y-90650984D01*
X101833321Y-90677000D01*
X101966679Y-90677000D01*
X102097474Y-90650984D01*
X102220680Y-90599950D01*
X102331563Y-90525860D01*
X102425860Y-90431563D01*
X102499950Y-90320680D01*
X102550984Y-90197474D01*
X102577000Y-90066679D01*
X102577000Y-89933321D01*
X102552212Y-89808699D01*
X145473000Y-89808699D01*
X145473000Y-89991301D01*
X145508624Y-90170396D01*
X145578504Y-90339099D01*
X145679952Y-90490928D01*
X145809072Y-90620048D01*
X145960901Y-90721496D01*
X146129604Y-90791376D01*
X146308699Y-90827000D01*
X146491301Y-90827000D01*
X146670396Y-90791376D01*
X146839099Y-90721496D01*
X146990928Y-90620048D01*
X147120048Y-90490928D01*
X147150000Y-90446101D01*
X147179952Y-90490928D01*
X147309072Y-90620048D01*
X147460901Y-90721496D01*
X147629604Y-90791376D01*
X147808699Y-90827000D01*
X147991301Y-90827000D01*
X148170396Y-90791376D01*
X148339099Y-90721496D01*
X148490928Y-90620048D01*
X148620048Y-90490928D01*
X148721496Y-90339099D01*
X148791376Y-90170396D01*
X148827000Y-89991301D01*
X148827000Y-89808699D01*
X148791376Y-89629604D01*
X148721496Y-89460901D01*
X148620048Y-89309072D01*
X148490928Y-89179952D01*
X148446101Y-89150000D01*
X148490928Y-89120048D01*
X148620048Y-88990928D01*
X148721496Y-88839099D01*
X148791376Y-88670396D01*
X148827000Y-88491301D01*
X148827000Y-88308699D01*
X155373000Y-88308699D01*
X155373000Y-88491301D01*
X155408624Y-88670396D01*
X155478504Y-88839099D01*
X155579952Y-88990928D01*
X155709072Y-89120048D01*
X155860901Y-89221496D01*
X156029604Y-89291376D01*
X156208699Y-89327000D01*
X156391301Y-89327000D01*
X156570396Y-89291376D01*
X156739099Y-89221496D01*
X156890928Y-89120048D01*
X157020048Y-88990928D01*
X157121496Y-88839099D01*
X157175510Y-88708699D01*
X161473000Y-88708699D01*
X161473000Y-88891301D01*
X161508624Y-89070396D01*
X161578504Y-89239099D01*
X161679952Y-89390928D01*
X161809072Y-89520048D01*
X161960901Y-89621496D01*
X162129604Y-89691376D01*
X162308699Y-89727000D01*
X162491301Y-89727000D01*
X162670396Y-89691376D01*
X162839099Y-89621496D01*
X162990928Y-89520048D01*
X163120048Y-89390928D01*
X163150000Y-89346101D01*
X163179952Y-89390928D01*
X163309072Y-89520048D01*
X163460901Y-89621496D01*
X163629604Y-89691376D01*
X163808699Y-89727000D01*
X163991301Y-89727000D01*
X164170396Y-89691376D01*
X164339099Y-89621496D01*
X164490928Y-89520048D01*
X164620048Y-89390928D01*
X164650000Y-89346101D01*
X164679952Y-89390928D01*
X164809072Y-89520048D01*
X164853899Y-89550000D01*
X164809072Y-89579952D01*
X164679952Y-89709072D01*
X164578504Y-89860901D01*
X164508624Y-90029604D01*
X164473000Y-90208699D01*
X164473000Y-90391301D01*
X164508624Y-90570396D01*
X164578504Y-90739099D01*
X164679952Y-90890928D01*
X164809072Y-91020048D01*
X164853899Y-91050000D01*
X164809072Y-91079952D01*
X164679952Y-91209072D01*
X164578504Y-91360901D01*
X164508624Y-91529604D01*
X164473000Y-91708699D01*
X164473000Y-91891301D01*
X164508624Y-92070396D01*
X164578504Y-92239099D01*
X164679952Y-92390928D01*
X164809072Y-92520048D01*
X164960901Y-92621496D01*
X165129604Y-92691376D01*
X165308699Y-92727000D01*
X165491301Y-92727000D01*
X165670396Y-92691376D01*
X165839099Y-92621496D01*
X165990928Y-92520048D01*
X166120048Y-92390928D01*
X166221496Y-92239099D01*
X166291376Y-92070396D01*
X166327000Y-91891301D01*
X166327000Y-91708699D01*
X166291376Y-91529604D01*
X166221496Y-91360901D01*
X166120048Y-91209072D01*
X165990928Y-91079952D01*
X165946101Y-91050000D01*
X165990928Y-91020048D01*
X166120048Y-90890928D01*
X166221496Y-90739099D01*
X166291376Y-90570396D01*
X166327000Y-90391301D01*
X166327000Y-90208699D01*
X166291376Y-90029604D01*
X166221496Y-89860901D01*
X166120048Y-89709072D01*
X165990928Y-89579952D01*
X165946101Y-89550000D01*
X165990928Y-89520048D01*
X166120048Y-89390928D01*
X166221496Y-89239099D01*
X166291376Y-89070396D01*
X166327000Y-88891301D01*
X166327000Y-88708699D01*
X166291376Y-88529604D01*
X166221496Y-88360901D01*
X166120048Y-88209072D01*
X165990928Y-88079952D01*
X165839099Y-87978504D01*
X165670396Y-87908624D01*
X165491301Y-87873000D01*
X165308699Y-87873000D01*
X165129604Y-87908624D01*
X164960901Y-87978504D01*
X164809072Y-88079952D01*
X164679952Y-88209072D01*
X164650000Y-88253899D01*
X164620048Y-88209072D01*
X164490928Y-88079952D01*
X164339099Y-87978504D01*
X164170396Y-87908624D01*
X163991301Y-87873000D01*
X163808699Y-87873000D01*
X163629604Y-87908624D01*
X163460901Y-87978504D01*
X163309072Y-88079952D01*
X163179952Y-88209072D01*
X163150000Y-88253899D01*
X163120048Y-88209072D01*
X162990928Y-88079952D01*
X162839099Y-87978504D01*
X162670396Y-87908624D01*
X162491301Y-87873000D01*
X162308699Y-87873000D01*
X162129604Y-87908624D01*
X161960901Y-87978504D01*
X161809072Y-88079952D01*
X161679952Y-88209072D01*
X161578504Y-88360901D01*
X161508624Y-88529604D01*
X161473000Y-88708699D01*
X157175510Y-88708699D01*
X157191376Y-88670396D01*
X157227000Y-88491301D01*
X157227000Y-88308699D01*
X157191376Y-88129604D01*
X157121496Y-87960901D01*
X157020048Y-87809072D01*
X156890928Y-87679952D01*
X156739099Y-87578504D01*
X156570396Y-87508624D01*
X156391301Y-87473000D01*
X156208699Y-87473000D01*
X156029604Y-87508624D01*
X155860901Y-87578504D01*
X155709072Y-87679952D01*
X155579952Y-87809072D01*
X155478504Y-87960901D01*
X155408624Y-88129604D01*
X155373000Y-88308699D01*
X148827000Y-88308699D01*
X148791376Y-88129604D01*
X148721496Y-87960901D01*
X148620048Y-87809072D01*
X148490928Y-87679952D01*
X148339099Y-87578504D01*
X148170396Y-87508624D01*
X147991301Y-87473000D01*
X147808699Y-87473000D01*
X147629604Y-87508624D01*
X147460901Y-87578504D01*
X147309072Y-87679952D01*
X147179952Y-87809072D01*
X147078504Y-87960901D01*
X147008624Y-88129604D01*
X146973000Y-88308699D01*
X146973000Y-88491301D01*
X147008624Y-88670396D01*
X147078504Y-88839099D01*
X147179952Y-88990928D01*
X147309072Y-89120048D01*
X147353899Y-89150000D01*
X147309072Y-89179952D01*
X147179952Y-89309072D01*
X147150000Y-89353899D01*
X147120048Y-89309072D01*
X146990928Y-89179952D01*
X146839099Y-89078504D01*
X146670396Y-89008624D01*
X146491301Y-88973000D01*
X146308699Y-88973000D01*
X146129604Y-89008624D01*
X145960901Y-89078504D01*
X145809072Y-89179952D01*
X145679952Y-89309072D01*
X145578504Y-89460901D01*
X145508624Y-89629604D01*
X145473000Y-89808699D01*
X102552212Y-89808699D01*
X102550984Y-89802526D01*
X102499950Y-89679320D01*
X102425860Y-89568437D01*
X102331563Y-89474140D01*
X102220680Y-89400050D01*
X102097474Y-89349016D01*
X101966679Y-89323000D01*
X101833321Y-89323000D01*
X101702526Y-89349016D01*
X101579320Y-89400050D01*
X101468437Y-89474140D01*
X101374140Y-89568437D01*
X101300050Y-89679320D01*
X101249016Y-89802526D01*
X101223000Y-89933321D01*
X60452000Y-89933321D01*
X60452000Y-86333321D01*
X118223000Y-86333321D01*
X118223000Y-86466679D01*
X118249016Y-86597474D01*
X118300050Y-86720680D01*
X118374140Y-86831563D01*
X118468437Y-86925860D01*
X118579320Y-86999950D01*
X118702526Y-87050984D01*
X118833321Y-87077000D01*
X118966679Y-87077000D01*
X119097474Y-87050984D01*
X119220680Y-86999950D01*
X119331563Y-86925860D01*
X119425860Y-86831563D01*
X119499950Y-86720680D01*
X119550984Y-86597474D01*
X119577000Y-86466679D01*
X119577000Y-86333321D01*
X121923000Y-86333321D01*
X121923000Y-86466679D01*
X121949016Y-86597474D01*
X122000050Y-86720680D01*
X122074140Y-86831563D01*
X122168437Y-86925860D01*
X122279320Y-86999950D01*
X122402526Y-87050984D01*
X122533321Y-87077000D01*
X122666679Y-87077000D01*
X122797474Y-87050984D01*
X122920680Y-86999950D01*
X123031563Y-86925860D01*
X123125860Y-86831563D01*
X123199950Y-86720680D01*
X123250984Y-86597474D01*
X123277000Y-86466679D01*
X123277000Y-86333321D01*
X127323000Y-86333321D01*
X127323000Y-86466679D01*
X127349016Y-86597474D01*
X127400050Y-86720680D01*
X127474140Y-86831563D01*
X127568437Y-86925860D01*
X127679320Y-86999950D01*
X127802526Y-87050984D01*
X127933321Y-87077000D01*
X128066679Y-87077000D01*
X128197474Y-87050984D01*
X128320680Y-86999950D01*
X128431563Y-86925860D01*
X128525860Y-86831563D01*
X128599950Y-86720680D01*
X128650984Y-86597474D01*
X128677000Y-86466679D01*
X128677000Y-86333321D01*
X128650984Y-86202526D01*
X128599950Y-86079320D01*
X128525860Y-85968437D01*
X128431563Y-85874140D01*
X128320680Y-85800050D01*
X128197474Y-85749016D01*
X128066679Y-85723000D01*
X127933321Y-85723000D01*
X127802526Y-85749016D01*
X127679320Y-85800050D01*
X127568437Y-85874140D01*
X127474140Y-85968437D01*
X127400050Y-86079320D01*
X127349016Y-86202526D01*
X127323000Y-86333321D01*
X123277000Y-86333321D01*
X123250984Y-86202526D01*
X123199950Y-86079320D01*
X123125860Y-85968437D01*
X123031563Y-85874140D01*
X122920680Y-85800050D01*
X122797474Y-85749016D01*
X122666679Y-85723000D01*
X122533321Y-85723000D01*
X122402526Y-85749016D01*
X122279320Y-85800050D01*
X122168437Y-85874140D01*
X122074140Y-85968437D01*
X122000050Y-86079320D01*
X121949016Y-86202526D01*
X121923000Y-86333321D01*
X119577000Y-86333321D01*
X119550984Y-86202526D01*
X119499950Y-86079320D01*
X119425860Y-85968437D01*
X119331563Y-85874140D01*
X119220680Y-85800050D01*
X119097474Y-85749016D01*
X118966679Y-85723000D01*
X118833321Y-85723000D01*
X118702526Y-85749016D01*
X118579320Y-85800050D01*
X118468437Y-85874140D01*
X118374140Y-85968437D01*
X118300050Y-86079320D01*
X118249016Y-86202526D01*
X118223000Y-86333321D01*
X60452000Y-86333321D01*
X60452000Y-84933321D01*
X133123000Y-84933321D01*
X133123000Y-85066679D01*
X133149016Y-85197474D01*
X133200050Y-85320680D01*
X133274140Y-85431563D01*
X133368437Y-85525860D01*
X133479320Y-85599950D01*
X133602526Y-85650984D01*
X133733321Y-85677000D01*
X133866679Y-85677000D01*
X133997474Y-85650984D01*
X134120680Y-85599950D01*
X134231563Y-85525860D01*
X134325860Y-85431563D01*
X134399950Y-85320680D01*
X134450984Y-85197474D01*
X134477000Y-85066679D01*
X134477000Y-84933321D01*
X134450984Y-84802526D01*
X134399950Y-84679320D01*
X134325860Y-84568437D01*
X134231563Y-84474140D01*
X134120680Y-84400050D01*
X133997474Y-84349016D01*
X133866679Y-84323000D01*
X133733321Y-84323000D01*
X133602526Y-84349016D01*
X133479320Y-84400050D01*
X133368437Y-84474140D01*
X133274140Y-84568437D01*
X133200050Y-84679320D01*
X133149016Y-84802526D01*
X133123000Y-84933321D01*
X60452000Y-84933321D01*
X60452000Y-71234830D01*
X71323000Y-71234830D01*
X71323000Y-71565170D01*
X71387446Y-71889163D01*
X71513862Y-72194357D01*
X71697389Y-72469025D01*
X71930975Y-72702611D01*
X72205643Y-72886138D01*
X72510837Y-73012554D01*
X72834830Y-73077000D01*
X73165170Y-73077000D01*
X73489163Y-73012554D01*
X73794357Y-72886138D01*
X74069025Y-72702611D01*
X74302611Y-72469025D01*
X74486138Y-72194357D01*
X74612554Y-71889163D01*
X74677000Y-71565170D01*
X74677000Y-71234830D01*
X76323000Y-71234830D01*
X76323000Y-71565170D01*
X76387446Y-71889163D01*
X76513862Y-72194357D01*
X76697389Y-72469025D01*
X76930975Y-72702611D01*
X77205643Y-72886138D01*
X77510837Y-73012554D01*
X77834830Y-73077000D01*
X78165170Y-73077000D01*
X78489163Y-73012554D01*
X78794357Y-72886138D01*
X79069025Y-72702611D01*
X79302611Y-72469025D01*
X79486138Y-72194357D01*
X79612554Y-71889163D01*
X79677000Y-71565170D01*
X79677000Y-71234830D01*
X81323000Y-71234830D01*
X81323000Y-71565170D01*
X81387446Y-71889163D01*
X81513862Y-72194357D01*
X81697389Y-72469025D01*
X81930975Y-72702611D01*
X82205643Y-72886138D01*
X82510837Y-73012554D01*
X82834830Y-73077000D01*
X83165170Y-73077000D01*
X83489163Y-73012554D01*
X83794357Y-72886138D01*
X84069025Y-72702611D01*
X84302611Y-72469025D01*
X84486138Y-72194357D01*
X84612554Y-71889163D01*
X84677000Y-71565170D01*
X84677000Y-71234830D01*
X86323000Y-71234830D01*
X86323000Y-71565170D01*
X86387446Y-71889163D01*
X86513862Y-72194357D01*
X86697389Y-72469025D01*
X86930975Y-72702611D01*
X87205643Y-72886138D01*
X87510837Y-73012554D01*
X87834830Y-73077000D01*
X88165170Y-73077000D01*
X88489163Y-73012554D01*
X88794357Y-72886138D01*
X89069025Y-72702611D01*
X89302611Y-72469025D01*
X89486138Y-72194357D01*
X89612554Y-71889163D01*
X89677000Y-71565170D01*
X89677000Y-71234830D01*
X91323000Y-71234830D01*
X91323000Y-71565170D01*
X91387446Y-71889163D01*
X91513862Y-72194357D01*
X91697389Y-72469025D01*
X91930975Y-72702611D01*
X92205643Y-72886138D01*
X92510837Y-73012554D01*
X92834830Y-73077000D01*
X93165170Y-73077000D01*
X93489163Y-73012554D01*
X93794357Y-72886138D01*
X94069025Y-72702611D01*
X94302611Y-72469025D01*
X94486138Y-72194357D01*
X94612554Y-71889163D01*
X94677000Y-71565170D01*
X94677000Y-71234830D01*
X96323000Y-71234830D01*
X96323000Y-71565170D01*
X96387446Y-71889163D01*
X96513862Y-72194357D01*
X96697389Y-72469025D01*
X96930975Y-72702611D01*
X97205643Y-72886138D01*
X97510837Y-73012554D01*
X97834830Y-73077000D01*
X98165170Y-73077000D01*
X98489163Y-73012554D01*
X98794357Y-72886138D01*
X99069025Y-72702611D01*
X99302611Y-72469025D01*
X99486138Y-72194357D01*
X99612554Y-71889163D01*
X99677000Y-71565170D01*
X99677000Y-71234830D01*
X99612554Y-70910837D01*
X99486138Y-70605643D01*
X99302611Y-70330975D01*
X99121636Y-70150000D01*
X101320934Y-70150000D01*
X101320934Y-72650000D01*
X101329178Y-72733707D01*
X101353595Y-72814196D01*
X101393245Y-72888376D01*
X101446605Y-72953395D01*
X101511624Y-73006755D01*
X101585804Y-73046405D01*
X101666293Y-73070822D01*
X101750000Y-73079066D01*
X104250000Y-73079066D01*
X104333707Y-73070822D01*
X104414196Y-73046405D01*
X104488376Y-73006755D01*
X104553395Y-72953395D01*
X104606755Y-72888376D01*
X104646405Y-72814196D01*
X104670822Y-72733707D01*
X104679066Y-72650000D01*
X104679066Y-71234830D01*
X111323000Y-71234830D01*
X111323000Y-71565170D01*
X111387446Y-71889163D01*
X111513862Y-72194357D01*
X111697389Y-72469025D01*
X111930975Y-72702611D01*
X112205643Y-72886138D01*
X112510837Y-73012554D01*
X112834830Y-73077000D01*
X113165170Y-73077000D01*
X113489163Y-73012554D01*
X113794357Y-72886138D01*
X114069025Y-72702611D01*
X114302611Y-72469025D01*
X114486138Y-72194357D01*
X114612554Y-71889163D01*
X114677000Y-71565170D01*
X114677000Y-71234830D01*
X114612554Y-70910837D01*
X114486138Y-70605643D01*
X114302611Y-70330975D01*
X114121636Y-70150000D01*
X116320934Y-70150000D01*
X116320934Y-72650000D01*
X116329178Y-72733707D01*
X116353595Y-72814196D01*
X116393245Y-72888376D01*
X116446605Y-72953395D01*
X116511624Y-73006755D01*
X116585804Y-73046405D01*
X116666293Y-73070822D01*
X116750000Y-73079066D01*
X119250000Y-73079066D01*
X119333707Y-73070822D01*
X119414196Y-73046405D01*
X119488376Y-73006755D01*
X119553395Y-72953395D01*
X119606755Y-72888376D01*
X119646405Y-72814196D01*
X119670822Y-72733707D01*
X119679066Y-72650000D01*
X119679066Y-71234830D01*
X126323000Y-71234830D01*
X126323000Y-71565170D01*
X126387446Y-71889163D01*
X126513862Y-72194357D01*
X126697389Y-72469025D01*
X126930975Y-72702611D01*
X127205643Y-72886138D01*
X127510837Y-73012554D01*
X127834830Y-73077000D01*
X128165170Y-73077000D01*
X128489163Y-73012554D01*
X128794357Y-72886138D01*
X129069025Y-72702611D01*
X129302611Y-72469025D01*
X129486138Y-72194357D01*
X129612554Y-71889163D01*
X129677000Y-71565170D01*
X129677000Y-71234830D01*
X129612554Y-70910837D01*
X129486138Y-70605643D01*
X129302611Y-70330975D01*
X129121636Y-70150000D01*
X131320934Y-70150000D01*
X131320934Y-72650000D01*
X131329178Y-72733707D01*
X131353595Y-72814196D01*
X131393245Y-72888376D01*
X131446605Y-72953395D01*
X131511624Y-73006755D01*
X131585804Y-73046405D01*
X131666293Y-73070822D01*
X131750000Y-73079066D01*
X134250000Y-73079066D01*
X134333707Y-73070822D01*
X134414196Y-73046405D01*
X134488376Y-73006755D01*
X134553395Y-72953395D01*
X134606755Y-72888376D01*
X134646405Y-72814196D01*
X134670822Y-72733707D01*
X134679066Y-72650000D01*
X134679066Y-71234830D01*
X141323000Y-71234830D01*
X141323000Y-71565170D01*
X141387446Y-71889163D01*
X141513862Y-72194357D01*
X141697389Y-72469025D01*
X141930975Y-72702611D01*
X142205643Y-72886138D01*
X142510837Y-73012554D01*
X142834830Y-73077000D01*
X143165170Y-73077000D01*
X143489163Y-73012554D01*
X143794357Y-72886138D01*
X144069025Y-72702611D01*
X144302611Y-72469025D01*
X144486138Y-72194357D01*
X144612554Y-71889163D01*
X144677000Y-71565170D01*
X144677000Y-71234830D01*
X144612554Y-70910837D01*
X144486138Y-70605643D01*
X144302611Y-70330975D01*
X144121636Y-70150000D01*
X146320934Y-70150000D01*
X146320934Y-72650000D01*
X146329178Y-72733707D01*
X146353595Y-72814196D01*
X146393245Y-72888376D01*
X146446605Y-72953395D01*
X146511624Y-73006755D01*
X146585804Y-73046405D01*
X146666293Y-73070822D01*
X146750000Y-73079066D01*
X149250000Y-73079066D01*
X149333707Y-73070822D01*
X149414196Y-73046405D01*
X149488376Y-73006755D01*
X149553395Y-72953395D01*
X149606755Y-72888376D01*
X149646405Y-72814196D01*
X149670822Y-72733707D01*
X149679066Y-72650000D01*
X149679066Y-71234830D01*
X156323000Y-71234830D01*
X156323000Y-71565170D01*
X156387446Y-71889163D01*
X156513862Y-72194357D01*
X156697389Y-72469025D01*
X156930975Y-72702611D01*
X157205643Y-72886138D01*
X157510837Y-73012554D01*
X157834830Y-73077000D01*
X158165170Y-73077000D01*
X158489163Y-73012554D01*
X158794357Y-72886138D01*
X159069025Y-72702611D01*
X159302611Y-72469025D01*
X159486138Y-72194357D01*
X159612554Y-71889163D01*
X159677000Y-71565170D01*
X159677000Y-71234830D01*
X159612554Y-70910837D01*
X159486138Y-70605643D01*
X159302611Y-70330975D01*
X159121636Y-70150000D01*
X161320934Y-70150000D01*
X161320934Y-72650000D01*
X161329178Y-72733707D01*
X161353595Y-72814196D01*
X161393245Y-72888376D01*
X161446605Y-72953395D01*
X161511624Y-73006755D01*
X161585804Y-73046405D01*
X161666293Y-73070822D01*
X161750000Y-73079066D01*
X164250000Y-73079066D01*
X164333707Y-73070822D01*
X164414196Y-73046405D01*
X164488376Y-73006755D01*
X164553395Y-72953395D01*
X164606755Y-72888376D01*
X164646405Y-72814196D01*
X164670822Y-72733707D01*
X164679066Y-72650000D01*
X164679066Y-70150000D01*
X164670822Y-70066293D01*
X164646405Y-69985804D01*
X164606755Y-69911624D01*
X164553395Y-69846605D01*
X164488376Y-69793245D01*
X164414196Y-69753595D01*
X164333707Y-69729178D01*
X164250000Y-69720934D01*
X161750000Y-69720934D01*
X161666293Y-69729178D01*
X161585804Y-69753595D01*
X161511624Y-69793245D01*
X161446605Y-69846605D01*
X161393245Y-69911624D01*
X161353595Y-69985804D01*
X161329178Y-70066293D01*
X161320934Y-70150000D01*
X159121636Y-70150000D01*
X159069025Y-70097389D01*
X158794357Y-69913862D01*
X158489163Y-69787446D01*
X158165170Y-69723000D01*
X157834830Y-69723000D01*
X157510837Y-69787446D01*
X157205643Y-69913862D01*
X156930975Y-70097389D01*
X156697389Y-70330975D01*
X156513862Y-70605643D01*
X156387446Y-70910837D01*
X156323000Y-71234830D01*
X149679066Y-71234830D01*
X149679066Y-70150000D01*
X149670822Y-70066293D01*
X149646405Y-69985804D01*
X149606755Y-69911624D01*
X149553395Y-69846605D01*
X149488376Y-69793245D01*
X149414196Y-69753595D01*
X149333707Y-69729178D01*
X149250000Y-69720934D01*
X146750000Y-69720934D01*
X146666293Y-69729178D01*
X146585804Y-69753595D01*
X146511624Y-69793245D01*
X146446605Y-69846605D01*
X146393245Y-69911624D01*
X146353595Y-69985804D01*
X146329178Y-70066293D01*
X146320934Y-70150000D01*
X144121636Y-70150000D01*
X144069025Y-70097389D01*
X143794357Y-69913862D01*
X143489163Y-69787446D01*
X143165170Y-69723000D01*
X142834830Y-69723000D01*
X142510837Y-69787446D01*
X142205643Y-69913862D01*
X141930975Y-70097389D01*
X141697389Y-70330975D01*
X141513862Y-70605643D01*
X141387446Y-70910837D01*
X141323000Y-71234830D01*
X134679066Y-71234830D01*
X134679066Y-70150000D01*
X134670822Y-70066293D01*
X134646405Y-69985804D01*
X134606755Y-69911624D01*
X134553395Y-69846605D01*
X134488376Y-69793245D01*
X134414196Y-69753595D01*
X134333707Y-69729178D01*
X134250000Y-69720934D01*
X131750000Y-69720934D01*
X131666293Y-69729178D01*
X131585804Y-69753595D01*
X131511624Y-69793245D01*
X131446605Y-69846605D01*
X131393245Y-69911624D01*
X131353595Y-69985804D01*
X131329178Y-70066293D01*
X131320934Y-70150000D01*
X129121636Y-70150000D01*
X129069025Y-70097389D01*
X128794357Y-69913862D01*
X128489163Y-69787446D01*
X128165170Y-69723000D01*
X127834830Y-69723000D01*
X127510837Y-69787446D01*
X127205643Y-69913862D01*
X126930975Y-70097389D01*
X126697389Y-70330975D01*
X126513862Y-70605643D01*
X126387446Y-70910837D01*
X126323000Y-71234830D01*
X119679066Y-71234830D01*
X119679066Y-70150000D01*
X119670822Y-70066293D01*
X119646405Y-69985804D01*
X119606755Y-69911624D01*
X119553395Y-69846605D01*
X119488376Y-69793245D01*
X119414196Y-69753595D01*
X119333707Y-69729178D01*
X119250000Y-69720934D01*
X116750000Y-69720934D01*
X116666293Y-69729178D01*
X116585804Y-69753595D01*
X116511624Y-69793245D01*
X116446605Y-69846605D01*
X116393245Y-69911624D01*
X116353595Y-69985804D01*
X116329178Y-70066293D01*
X116320934Y-70150000D01*
X114121636Y-70150000D01*
X114069025Y-70097389D01*
X113794357Y-69913862D01*
X113489163Y-69787446D01*
X113165170Y-69723000D01*
X112834830Y-69723000D01*
X112510837Y-69787446D01*
X112205643Y-69913862D01*
X111930975Y-70097389D01*
X111697389Y-70330975D01*
X111513862Y-70605643D01*
X111387446Y-70910837D01*
X111323000Y-71234830D01*
X104679066Y-71234830D01*
X104679066Y-70150000D01*
X104670822Y-70066293D01*
X104646405Y-69985804D01*
X104606755Y-69911624D01*
X104553395Y-69846605D01*
X104488376Y-69793245D01*
X104414196Y-69753595D01*
X104333707Y-69729178D01*
X104250000Y-69720934D01*
X101750000Y-69720934D01*
X101666293Y-69729178D01*
X101585804Y-69753595D01*
X101511624Y-69793245D01*
X101446605Y-69846605D01*
X101393245Y-69911624D01*
X101353595Y-69985804D01*
X101329178Y-70066293D01*
X101320934Y-70150000D01*
X99121636Y-70150000D01*
X99069025Y-70097389D01*
X98794357Y-69913862D01*
X98489163Y-69787446D01*
X98165170Y-69723000D01*
X97834830Y-69723000D01*
X97510837Y-69787446D01*
X97205643Y-69913862D01*
X96930975Y-70097389D01*
X96697389Y-70330975D01*
X96513862Y-70605643D01*
X96387446Y-70910837D01*
X96323000Y-71234830D01*
X94677000Y-71234830D01*
X94612554Y-70910837D01*
X94486138Y-70605643D01*
X94302611Y-70330975D01*
X94069025Y-70097389D01*
X93794357Y-69913862D01*
X93489163Y-69787446D01*
X93165170Y-69723000D01*
X92834830Y-69723000D01*
X92510837Y-69787446D01*
X92205643Y-69913862D01*
X91930975Y-70097389D01*
X91697389Y-70330975D01*
X91513862Y-70605643D01*
X91387446Y-70910837D01*
X91323000Y-71234830D01*
X89677000Y-71234830D01*
X89612554Y-70910837D01*
X89486138Y-70605643D01*
X89302611Y-70330975D01*
X89069025Y-70097389D01*
X88794357Y-69913862D01*
X88489163Y-69787446D01*
X88165170Y-69723000D01*
X87834830Y-69723000D01*
X87510837Y-69787446D01*
X87205643Y-69913862D01*
X86930975Y-70097389D01*
X86697389Y-70330975D01*
X86513862Y-70605643D01*
X86387446Y-70910837D01*
X86323000Y-71234830D01*
X84677000Y-71234830D01*
X84612554Y-70910837D01*
X84486138Y-70605643D01*
X84302611Y-70330975D01*
X84069025Y-70097389D01*
X83794357Y-69913862D01*
X83489163Y-69787446D01*
X83165170Y-69723000D01*
X82834830Y-69723000D01*
X82510837Y-69787446D01*
X82205643Y-69913862D01*
X81930975Y-70097389D01*
X81697389Y-70330975D01*
X81513862Y-70605643D01*
X81387446Y-70910837D01*
X81323000Y-71234830D01*
X79677000Y-71234830D01*
X79612554Y-70910837D01*
X79486138Y-70605643D01*
X79302611Y-70330975D01*
X79069025Y-70097389D01*
X78794357Y-69913862D01*
X78489163Y-69787446D01*
X78165170Y-69723000D01*
X77834830Y-69723000D01*
X77510837Y-69787446D01*
X77205643Y-69913862D01*
X76930975Y-70097389D01*
X76697389Y-70330975D01*
X76513862Y-70605643D01*
X76387446Y-70910837D01*
X76323000Y-71234830D01*
X74677000Y-71234830D01*
X74612554Y-70910837D01*
X74486138Y-70605643D01*
X74302611Y-70330975D01*
X74069025Y-70097389D01*
X73794357Y-69913862D01*
X73489163Y-69787446D01*
X73165170Y-69723000D01*
X72834830Y-69723000D01*
X72510837Y-69787446D01*
X72205643Y-69913862D01*
X71930975Y-70097389D01*
X71697389Y-70330975D01*
X71513862Y-70605643D01*
X71387446Y-70910837D01*
X71323000Y-71234830D01*
X60452000Y-71234830D01*
X60452000Y-61785584D01*
X62823000Y-61785584D01*
X62823000Y-62214416D01*
X62906660Y-62635008D01*
X63070767Y-63031196D01*
X63309013Y-63387757D01*
X63612243Y-63690987D01*
X63968804Y-63929233D01*
X64364992Y-64093340D01*
X64785584Y-64177000D01*
X65214416Y-64177000D01*
X65635008Y-64093340D01*
X66031196Y-63929233D01*
X66387757Y-63690987D01*
X66690987Y-63387757D01*
X66929233Y-63031196D01*
X67093340Y-62635008D01*
X67177000Y-62214416D01*
X67177000Y-61785584D01*
X168823000Y-61785584D01*
X168823000Y-62214416D01*
X168906660Y-62635008D01*
X169070767Y-63031196D01*
X169309013Y-63387757D01*
X169612243Y-63690987D01*
X169968804Y-63929233D01*
X170364992Y-64093340D01*
X170785584Y-64177000D01*
X171214416Y-64177000D01*
X171635008Y-64093340D01*
X172031196Y-63929233D01*
X172387757Y-63690987D01*
X172690987Y-63387757D01*
X172929233Y-63031196D01*
X173093340Y-62635008D01*
X173177000Y-62214416D01*
X173177000Y-61785584D01*
X173093340Y-61364992D01*
X172929233Y-60968804D01*
X172690987Y-60612243D01*
X172387757Y-60309013D01*
X172031196Y-60070767D01*
X171635008Y-59906660D01*
X171214416Y-59823000D01*
X170785584Y-59823000D01*
X170364992Y-59906660D01*
X169968804Y-60070767D01*
X169612243Y-60309013D01*
X169309013Y-60612243D01*
X169070767Y-60968804D01*
X168906660Y-61364992D01*
X168823000Y-61785584D01*
X67177000Y-61785584D01*
X67093340Y-61364992D01*
X66929233Y-60968804D01*
X66690987Y-60612243D01*
X66387757Y-60309013D01*
X66031196Y-60070767D01*
X65635008Y-59906660D01*
X65214416Y-59823000D01*
X64785584Y-59823000D01*
X64364992Y-59906660D01*
X63968804Y-60070767D01*
X63612243Y-60309013D01*
X63309013Y-60612243D01*
X63070767Y-60968804D01*
X62906660Y-61364992D01*
X62823000Y-61785584D01*
X60452000Y-61785584D01*
X60452000Y-57452000D01*
X175548000Y-57452000D01*
X175548001Y-118548000D01*
M02*
