M48
; DRILL file {KiCad 5.1.5-52549c5~86~ubuntu18.04.1} date Thu 16 Apr 2020 21:51:46 BST
; FORMAT={-:-/ absolute / inch / decimal}
; #@! TF.CreationDate,2020-04-16T21:51:46+01:00
; #@! TF.GenerationSoftware,Kicad,Pcbnew,5.1.5-52549c5~86~ubuntu18.04.1
; #@! TF.FileFunction,Plated,1,4,PTH
FMAT,2
INCH
T1C0.0098
T2C0.0157
T3C0.0197
T4C0.0350
T5C0.0354
T6C0.0394
T7C0.0512
T8C0.0630
%
G90
G05
T1
X3.8228Y-3.6693
X3.878Y-3.6693
X3.9877Y-4.0005
X4.0118Y-3.5433
X4.1142Y-3.6929
X4.1378Y-3.6457
X4.1575Y-3.6732
X4.1654Y-3.5787
X4.1772Y-3.6969
X4.1777Y-4.0625
X4.2638Y-3.8504
X4.2874Y-4.122
X4.374Y-3.6811
X4.374Y-4.0394
X4.374Y-4.1142
X4.378Y-3.7402
X4.5276Y-3.8504
X4.5276Y-3.8898
X4.5315Y-3.6811
X4.5315Y-4.0472
X4.5315Y-4.1142
X4.6575Y-3.6614
X4.6614Y-4.1102
X4.6811Y-3.4016
X4.6811Y-4.0787
X4.7008Y-3.8898
X4.7008Y-4.0157
X4.7008Y-4.4016
X4.7323Y-3.8504
X4.7402Y-3.5118
X4.7598Y-3.6378
X4.8268Y-3.4016
X4.8937Y-3.9843
X4.9173Y-3.8937
X4.937Y-3.8425
X4.9567Y-3.6378
X4.9764Y-3.7874
X4.9843Y-3.5118
X5.0157Y-3.7598
X5.0394Y-3.4016
X5.0591Y-4.4016
X5.1142Y-4.1181
X5.1339Y-4.2441
X5.1339Y-4.4016
X5.1378Y-3.6614
X5.1378Y-3.7598
X5.2638Y-3.6417
X5.2677Y-3.3465
X5.4252Y-3.6417
T2
X3.4803Y-3.9055
T3
X5.7362Y-3.8268
X5.7638Y-3.5394
X5.7953Y-4.3189
X5.8228Y-3.4803
X5.8228Y-3.5394
X5.8701Y-4.189
X6.0236Y-3.8898
X6.1535Y-3.4803
X6.1535Y-3.622
X6.3937Y-3.4961
X6.4409Y-4.189
X6.4528Y-3.4961
X6.5079Y-3.811
X6.5079Y-3.8661
X6.5118Y-3.4961
X6.5118Y-3.5551
X6.5118Y-3.6142
T4
X3.1244Y-3.6976
X3.1244Y-4.0957
X3.1843Y-3.7976
X3.1843Y-4.1957
T5
X3.5669Y-3.7717
X3.5669Y-3.8717
X3.5669Y-3.9717
X3.5669Y-4.0717
X3.6669Y-3.8217
X3.6669Y-3.9217
X3.6669Y-4.0217
X3.6669Y-4.1217
T6
X5.5591Y-3.6299
X5.5591Y-3.7299
X5.5591Y-3.8299
X5.5591Y-3.9299
X5.5591Y-4.0299
X5.5591Y-4.1299
T7
X5.0394Y-2.811
X5.2362Y-2.811
X6.2205Y-2.811
X6.4173Y-2.811
X2.874Y-2.811
X3.0709Y-2.811
X3.2677Y-2.811
X3.4646Y-2.811
X3.6614Y-2.811
X3.8583Y-2.811
X4.0551Y-2.811
X5.6299Y-2.811
X5.8268Y-2.811
X4.4488Y-2.811
X4.6457Y-2.811
T8
X3.4374Y-3.6406
X3.4374Y-4.2528
T0
M30
